<svg xmlns="http://www.w3.org/2000/svg" viewBox="0 0 512 512"><path d="M412.894 48.381c-16.322 8.117-23.356 25.626-20.221 43.151 1.817 10.16 6.914 16.711 16.265 20.821 8.628 3.793 20.449 7.433 29.847 4.837 8.835-2.441 16.656-9.186 18.898-18.315 1.335-5.439 2.607-11.151 2.564-16.757-.023-2.926-.776-5.684-1.41-8.523-.649-2.908-.511-6.347-2.01-8.983-1.117-1.965-2.564-3.913-3.804-5.817-2.662-4.086-6.391-7.39-10.694-9.668-8.155-4.316-18.368-5.11-27.016-1.802-.825.313-1.632.664-2.419 1.056z" fill="#ffc94e"/><g fill="#7cc366"><path d="M187.004 369.139c-3.155-9.327-9.051-24.439-20.504-25.85-19.103-2.353-21.356 18.385-21.64 32.95.669-4.765-4.165-10.007-7.972-5.451-5.095 6.098-1.616 16.392-1.9 23.448-.474 11.77-17.856-.708-25.438 2.604-6.205 2.711-6.995 19.206-11.002 18.564-2.322-.372-5.309-4.4-8.067-4.99-4.946-1.057-6.409 3.292-7.889 7.241-1.291 3.446-1.625 8.022-5.724 5.596-3.545-2.098-4.042-7.037-8.499-8.376-3.497-1.05-7.744.421-10.033 3.16-2.133 2.551-2.911 6.301-3.668 9.499-.41 1.736-.401 7.928-2.062 8.89-2.211 1.281-4.655-2.293-7.727-.494-5.031 2.946-6.479 13.723-7.383 18.661-.579 3.159-1.195 12.018-4.624 13.239-3.977 1.416-5.971-2.756-9.527 1.908-1.797 2.358-1.486 7.885-3.949 9.354-.97.579-4.337-.2-5.716.134-2.537.617-5.015 2.038-6.947 3.809-4.332 3.969-3.021 8.867 2.502 11.053 4.721 1.869 11.8 1.205 16.85 1.597 4.934.384 9.78-.122 14.723-.11 25.871.064 51.591.189 77.45 1.185 25.35.977 50.679.164 75.991 1.178 49.276 1.973 98.72-.085 148.027-.085 7.774 0 15.555.098 23.322.366 9.084.313 17.877-.891 26.969-1.144 15.699-.435 31.046-.727 46.644-3.095 14.737-2.237 29.213-5.855 43.953-7.981 6.729-.97 16.572-2.169 20.458-8.453 2.426-3.923 3.52-9.969 1.752-14.295-2.499-6.113-8.052-5.421-12.206-9.33-3.636-3.422-2.368-9.888-6.843-13.057-6.474-4.585-14.541 1.56-21.288.778-.323-2.559 1.297-5.632 1.412-8.433.131-3.171.863-8.207-.023-11.259-2.144-7.382-9.452-3.379-14.854-2.96-3.242.252-1.821 1.297-3.067-1.656-1.45-3.438-1.805-9.225-2.488-13.06-.89-5.003-.795-13.707-6.891-15.753-8.334-2.796-9.774 11.28-15.312 13.525-6.831 2.769-5.685-9.07-5.76-12.16-.235-9.596-8.842-1.63-11.709 2.602-1.476 2.179-2.543 5.958-5.711 6.032-3.007.069-3.776-3.046-5.554-4.992-3.268-3.577-5.369-2.534-9.684-.495-2.934 1.386-9.691 5.99-9.996.3-.214-3.99 5.725-8.36 1.429-12.076-3.684-3.186-7.658 2.731-11.189 1.607 1.701-3.88 5.446-6.538 7.373-10.308 1.305-2.553 2.071-5.721 2.703-8.534.83-3.698 1.773-8.732-.069-12.267-6.809-13.058-22.798 4.908-28.784 9.723 2.145-3.809 4.938-11.167 1.603-15.135-2.124-2.523-6.299-1.676-9.027-.517-6.4 2.719-12.485 10.261-16.484 15.678-1.664 2.254-4.841 6.156-4.377 9.237.303 2.014 2.02 3.613 3.092 5.335 1.988 3.19 3.769 6.784 5.334 10.203 2.686 5.865 5.234 11.586 8.273 17.274 8.16 15.278 20.37 32.472 22.744 49.882 1.353 9.923-1.445 13.791-11.189 15.097-8.313 1.114-12.562-.582-17.893-7.335-5.595-7.088-8.163-15.979-12.849-23.626-3.204-5.229-3.808-12.712-10.443-13.569-9.241-1.195-20.6 1.42-29.996 1.903-11.559.593-23.065-.894-34.627-.956-18.802-.101-37.595 2.137-56.304 3.025-9.165.435-8.694 5.425-12.92 12.861-3.776 6.644-9.398 12.575-14.144 18.559-2.906 3.663-5.473 8.249-8.782 11.546-7.213 7.187-13.78-.316-14.643-8.379-1.114-10.389 6.414-20.877 11.774-29.061 13.523-20.65 26.749-41.499 40.999-64.361z"/><path d="M198.394 400.652c2.082-6.472 8.12-12.019 12.076-17.392 2.095-2.844 4.752-8.473 8.047-10.138 5.132-2.595 5.79 6.376 7.309 10.035 2.49-3.303 6.691-8.882 11.481-8.673 3.916.171 7.118 4.372 7.463 7.914 5.323-3.561 11.126-16.01 18.064-6.792 1.781 2.368 2.363 5.95 5.588 4.582 3.668-1.556 3.722-7.994 7.424-9.832 9.784-4.861 14.827 10.459 17.085 17.104.958 2.817 4.347 10.001 1.859 12.546-1.361 1.393-7.627.983-9.314 1.025-6.275.156-12.489-.306-18.744-.387-14.689-.189-29.293-.372-43.974-.371-7.046.001-16.968 1.633-24.364.379z"/></g><g fill="#a8a6a2"><path d="M208.266 342.941c-7.556 6.18-11.971 15.91-17.631 23.714-8.886 12.252-17.453 24.785-26.898 36.657-11.911 14.972-34.693 40.35-29.231 62.006 2.08 8.243 10.257 10.264 16.45 5 10.103-8.586 16.714-22.433 23.697-33.42 14.83-23.333 29.419-46.484 46.704-68.085 3.028-3.783 19.456-18.942 10.086-22.374-4.074-1.492-9.644-1.223-13.991-2.079-3.327-.65-6.555-1.65-9.186-1.419zM275.468 349.396c.331 3.319 3.528 7.642 5.316 10.482 3.013 4.788 5.982 9.585 8.436 14.737 5.295 11.118 9.116 22.95 14.474 34.096 5.496 11.431 10.626 23.145 16.386 34.4 4.366 8.53 9.169 20.041 18.219 24.557 7.002 3.493 11.822 2.712 17.392-2.657 7.549-7.277 2.422-15.64-1.628-23.553-10.415-20.352-17.359-42.54-29.059-62.276-4.334-7.313-9.044-14.157-13.047-21.681-2.424-4.555-3.487-10.951-9.133-11.908-5.627-.954-12.771.652-18.335 1.539-4.794.761-8.365 1.077-9.021 2.264z"/></g><g fill="#777673"><path d="M198.394 400.273c-3.177 4.632-7.374 8.481-10.472 13.215-1.434 2.191-5.667 6.973-5.839 9.769-.257 4.193 5.107 4.634 8.203 4.648 8.354.038 16.803-1.464 25.188-1.444 12.762.028 25.455-.773 38.236-.748 13.344.025 26.657-1.034 39.98-.4 3.876.185 13.03 2.748 15.206-1.31 2.383-4.446-4.124-12.624-6.007-16.24-3.661-7.027-6.549-8.266-14.949-7.836-19.751 1.01-39.824.787-59.65.351-8.46-.187-21.71-2.92-29.896-.005zM130.812 200.184c-8.514 25.83-3.267 53.175 5.342 78.167 4.869 14.135 9.163 26.911 19.212 38.256 8.209 9.269 17.846 15.135 29.362 19.404 20.546 7.617 42.412 10.334 64.204 11.505 22.198 1.193 42.347-.629 63.235-8.375 11.913-4.418 26.334-11.475 35.626-20.303 9.649-9.167 18.874-20.514 26.192-31.598 13.626-20.637 17.299-46.626 16.901-71.033-.082-5.052-.811-14.87-7.85-13.39-4.476.941-10.095 5.515-14.251 7.53-5.288 2.564-10.782 4.965-16.383 6.626-30.053 8.911-59.685 12.786-91.009 12.824-30.358.038-62.251-2.907-91.524-11.39-8.741-2.533-19.351-6.236-26.346-12.15-1.753-1.479-12.699-11.562-12.711-6.073z"/></g><path d="M266.735 265.488c-7.374-2.207-19.318.371-26.786 1.813-4.635.895-12.108 1.542-14.882 5.779-2.531 3.864-2.753 9.919-.779 14.141 3.428 7.336 11.983 5.769 18.805 5.677 19.464-.263 39.097 2.086 58.391-1.13 10.374-1.729 14.897-8.912 11.675-19.562-2.303-7.613-10.392-8.609-17.359-8.712-10.421-.152-21.385.634-29.065 1.994z" fill="#ec9b5e"/><g fill="#88524c"><path d="M325.964 268.905c-6.868 0-17.531.384-13.297 10.546 1.818 4.365 5.947 4.009 10.084 3.894 4.533-.126 6.442-1.523 7.39-6.005 1.034-4.894-1.622-9.117-7.213-6.917M220.416 275.739c-3.222-1.015-9.716-.42-11.703 2.657-2.641 4.09-1.994 8.956 2.972 9.88 3.246.604 8.579.158 10.556-2.655 2.205-3.139 1.149-8.125-1.825-9.882z"/></g><path d="M180.929 167.912c-5.701 2.701-12.932 7.024-14.902 13.365-1.887 6.077-1.658 18.505 4.073 22.513 7.781 5.441 22.05 4.372 30.98 4.001 11.201-.464 20.362-2.468 31.292.977 7.782 2.452 14.601 4.364 22.772 3.612 10.29-.948 25.85-2.115 33.722-9.718 5.747-5.55 6.885-18.445 5.203-25.721-2.045-8.845-11.717-10.757-18.53-15.314-4.5-3.01-6.695-6.956-10.507-10.433-5.504-5.02-16.576-3.078-23.291-3.032-22.975.154-40.049 13.226-60.812 19.75z" fill="#e66c73"/><path d="M237.121 162.596c-4.761 1.398-12.741 3.628-14.046 9.502-1.463 6.579 6.404 7.032 10.924 7.203 5.77.219 31.803-1.802 25.142-13.667-3.43-6.11-18.576-2.76-22.02-3.038z" fill="#fac1b7"/><path d="M291.035 153.863c-4.336.574-10.861 5.086-7.987 10.076 2.209 3.835 8.512 4.123 11.582 6.999 5.988 5.611-1.332 15.539 1.427 22.325 5.237 12.888 49.958-8.515 23.812-21.174-4.942-2.393-5.397-3.039-6.805-8.333-2.364-8.893-12.882-10.814-22.029-9.893z" fill="#7cc366"/><path d="M342.069 167.416c-3.931.945-2.987 2.523-5.3 5.12-1.375 1.545-4.006 2.247-5.868 3.063-4.698 2.057-5.368 8.922-.76 11.287 1.992 1.022 4.096.942 5.981 2.384 1.612 1.232 2.212 3.135 3.587 4.46 7.223 6.966 14.305-2.761 15.869-9.577 1.134-4.946-1.591-14.067-6.41-16.507-2.062-1.043-4.711-.77-6.889-.28-.072.016-.142.034-.21.05z" fill="#ffd274"/><path d="M313.816 195.628c-7.628.514-4.122 10.233-.304 13.267 4.503 3.579 13.394 4.127 18.531 2.012 12.641-5.205 13.414-22.294-1.901-22.873-3.916-.148-5.314.698-8.068 3.324-3.667 3.492-6.606 4.768-8.258 4.27z" fill="#ec838e"/><path d="M312.296 158.8c2.654 1.632.939 5.355 1.521 7.896.732 3.206.978 2.493 3.987 3.837 4.351 1.944 5.88 6.328 11.2 5.373 5.549-.997 8.381-4.556 8.816-10.167.443-5.711-2.742-8.186-8.247-9.644-5.416-1.433-12.595-1.396-17.277 2.705z" fill="#faad60"/><path d="M164.223 182.339c-2.794 12.779 4.668 23.65 17.197 26.961 14.191 3.751 28.457-6.783 42.885-2.967 6.294 1.665 11.321 4.862 18.035 5.601 7.486.824 15.365.752 22.783-.693 7.436-1.448 16.099-4.111 22.081-8.979 5.25-4.272 5.258-8.101 12.276-6.256 5.193 1.366 5.942 1.247 8.165 5.876 2.155 4.489 6.151 7.319 11.094 8.479 4.247.995 11.705 1.556 15.377-1.237 3.825-2.909 5.057-8.412 8.36-11.222 2.123-1.805 5.326-2.398 7.596-4.399 2.598-2.291 3.528-3.714 7.025-4.309 6.709-1.14 21.556 1.637 24.991 8.721 1.84 3.793-2.699 6.816-5.623 9.099-8.374 6.536-18.694 9.775-28.865 12.3-21.951 5.449-45.317 9.347-67.768 11.783-10.46 1.136-20.591.159-31.018-.54-9.2-.617-18.451-.685-27.621-1.416-18.124-1.444-35.307-4.644-52.795-9.577-9.805-2.766-17.749-7.745-26.039-13.602-3.491-2.466-9.26-7.013-5.644-11.476 2.762-3.409 9.935-5.815 13.833-7.799 4.078-2.073 8.056-4.67 13.675-4.348z" fill="#d1d3d4"/><path d="M393.772 61.705c-.993 2.31-1.989 4.761-2.791 7.172-.088.198-.182.398-.267.595-3.977 9.294-3.869 22.507 1.372 31.308 5.52 9.268 14.496 15.135 24.938 17.325 9.969 2.09 23.193 3.762 32.3-1.949 3.41-2.138 5.823-7.089 7.243-10.715 1.865-4.762 4.336-8.921 4.832-14.108 1.026-10.722.86-21.886-5.375-31.063-5.337-7.858-12.232-14.979-22.137-16.31-10.238-1.376-20.698-1.075-29.446 5.243-4.199 3.035-8.608 7.71-10.669 12.502zm17.935-8.152c4.593-2.245 9.075-3.451 14.266-2.976 2.485.228 5.407.608 7.973.277 4.365 1.321 8.347 3.693 11.901 7.061 5.555 5.266 8.617 13.529 9.252 21.004.79 9.283-1.253 17.647-5.536 25.828-1.707 3.261-3.294 6.012-6.938 7.27-4.857 1.678-11.47 1.554-16.455.814-9.077-1.344-17.716-2.69-24.371-9.61-7.725-8.032-8.261-17.547-6.489-28.04.794-4.702 3.557-8.177 6.277-11.89 2.813-3.838 5.752-7.602 10.12-9.738zM414.985 32.129c.289 1.903 1.269 4.132 3.035 5.097.642.351 1.513.425 2.148 0 2.236-1.497 1.593-3.67 1.801-5.971.24-2.665-.279-5.393-1.06-7.93-1.491-4.848-9.29-2.604-7.547 2.081.848 2.275 1.261 4.342 1.623 6.723zM436.654 128.071c-1.038-2.574-4.243-2.594-5.278 0-.918 2.301-1.271 5.417-1.113 7.904.096 1.508.437 2.849.428 4.382-.031 5.112 8.003 5.12 7.944 0-.006-.524.016-1.054-.005-1.578-.055-1.426-.523-2.367-.85-3.7-.568-2.318-.202-4.711-1.126-7.008zM370.662 103.102c.365-.008.722-.039 1.092-.081.992-.112 1.955-.35 2.903-.66.984-.322 1.842-.763 2.743-1.251.976-.529 2.066-.752 2.983-1.402 1.492-1.058 2.329-3.541.637-4.937-1.537-1.267-3.448-1.983-5.465-1.521-1.432.328-2.673.991-4.144 1.265-.682.128-2.144.072-3.16.317-1.961.473-3.095 1.827-3.804 3.66-.745 1.925.664 4.244 2.432 4.955 1.401.564 2.691.359 3.783-.345zM467.192 80.622c1.221.663 2.089.579 3.413.47 1.221-.1 2.453.153 3.721-.172 1.412-.361 2.775-.852 4.237-1.023 1.488-.173 2.886-.01 4.342-.506 4.094-1.391 3.76-8.426-1.084-8.011l-.47.04a4.49 4.49 0 0 0-.722.125c-2.606.486-5.091.754-7.544 1.925-.073.035-.747.386-.995.555-.32.016-1.026.11-1.134.124-1.295.173-1.968 1.074-3.102 1.408-2.216.655-2.807 3.901-.662 5.065zM456.22 49.161c.76-.763 1.613-1.433 2.382-2.188.372-.366.713-.756 1.049-1.155.432-.513.182-.229.608-.579 2.179-1.794 5.03-3.943 3.95-7.215-.951-2.882-4.089-3.482-6.324-1.67-.605.491-.841 1.114-1.247 1.727.342-.514-.452.399-.486.431-.803.763-1.556 1.506-2.188 2.432-1.281 1.875-2.653 3.793-2.803 6.12-.172 2.62 3.325 3.839 5.059 2.097zM395.734 122.002c-1.756 2.176-4.064 4.423-4.973 7.079-1.043 3.049 2.901 6.197 5.611 4.313 2.226-1.547 3.436-4.046 4.876-6.291 1.121-1.747 2.5-3.448 3.252-5.386.677-1.746-1.034-3.489-2.682-3.522-2.617-.054-4.551 1.908-6.084 3.807zM375.46 53.165c2.132.984 4.298 1.891 6.406 2.927 2.05 1.008 3.985 1.939 6.254 1.078 1.523-.577 2.368-2.182 1.509-3.71-1.812-3.222-5.098-5.364-8.423-6.987a3.783 3.783 0 0 0-2.278-1.469c-1.93-.407-3.647.298-4.733 1.926l-.267.399c-1.191 1.785-.477 4.91 1.532 5.836zM465.972 117.158c1.64.937 3.645.617 5-.645.218-.203.484-.583.645-.835.894-1.398.72-3.9-.645-5-1.046-.842-2.07-1.403-3.325-1.884-.328-.125-.669-.218-.993-.347-.256-.083-.262-.091-.017-.025-.141-.08-.285-.157-.428-.231-.948-.531-1.14-.506-1.944-.866-.539-.24-.67-.311-.998-.461-.249-.115-1.355-.783-.742-.341-1.235-.89-3.431-.015-3.686 1.499-.742 4.417 3.829 7.247 7.133 9.136zM437.008 38.382c2.466-3.182 3.106-5.753 4.247-9.645 1.189-4.05 3.574-7.737 4.514-11.849.624-2.734-2.456-4.313-4.492-2.615-1.599 1.334-1.873 3.103-2.605 4.973-.956 2.441-2.083 4.78-2.83 7.306-.726 2.452-1.047 4.976-1.477 7.486-.269 1.568-.677 2.622.316 4.046.479.688 1.695 1.115 2.327.298zM463.134 63.636c2.869 1.401 6.521-.816 9.28-1.863 4.519-1.717 9.309-4.34 14.144-4.951 4.041-.511 4.317-6.717 0-6.538-4.586.19-9.161 2.441-13.289 4.334-3.555 1.63-7.578 3.402-10.518 6.043-.864.774-.684 2.453.383 2.975zM451.495 124.292c-.551-.699-1.978-.696-2.526 0-1.953 2.48-.334 6.405.195 9.243.86 4.623 2.985 8.601 4.11 13.079 1.128 4.495 7.786 2.573 6.89-1.9-.802-4.006-3.394-7.608-4.485-11.598-.937-3.417-2.035-6.094-4.184-8.824zM416.127 125.918c-3.54 2.108-4.615 7.242-6.381 10.768-.849 1.696-1.572 3.481-2.508 5.129-.861 1.516-1.975 2.524-2.45 4.242-1.17 4.226 5.392 6.03 6.561 1.809.117-.423 1.552-2.178 2.022-3.097.962-1.886 1.767-3.873 2.662-5.793 1.665-3.577 3.967-7.805 3.168-11.808-.269-1.334-1.981-1.901-3.074-1.25zM371.745 124.577c.783-.919 3.024-1.449 4.102-2.217 1.778-1.268 3.694-2.317 5.472-3.577 2.996-2.123 5.938-3.615 8.617-6.169.696-.663.76-2.008 0-2.661-1.501-1.292-2.69-1.316-4.496-.691-2.49.86-4.896 1.919-7.069 3.389-2.189 1.48-4.526 3.231-6.834 4.478-2.068 1.116-3.717 1.229-5.103 3.352-2.07 3.171 2.802 7.04 5.311 4.096zM365.64 74.699c2.579.216 4.877.913 7.339 1.69 1.764.557 4.108 1.859 6.009 1.584.456-.066 2.328-1.041 1.182-.4.665-.372 1.025-.364 1.66-.96.951-.895.159-2.359-.977-2.414-1.706-2.086-3.769-3.266-6.42-4.484-1.964-.902-3.997-1.614-6.131-1.98-1.72-.295-3.676-.017-5.118-1.088-3.392-2.518-7.088 2.804-4.376 5.671 1.893 2.004 4.229 2.162 6.832 2.381zM395.103 37.158c1.162 3.022 3.917 8.4 7.988 6.194.601-.326 1.057-1.256.786-1.932-2.726-6.791-3.89-14.177-7.428-20.661-1.491-2.733-5.277-1.802-6.208.811-.997 2.8.789 4.963 1.891 7.429 1.182 2.64 1.936 5.464 2.971 8.159zM481.782 96.965c-1.575-.467-3.185-1.114-4.744-1.648-1.429-.49-3.711-1.088-5.019-1.825-3.735-2.102-7.051 3.567-3.357 5.743 2.811 1.656 6.355 2.389 9.411 3.592 1.408.555 2.711.877 4.176 1.228 2.035.488 3.851 1.513 5.868 2.063 4.315 1.178 6.136-5.459 1.844-6.689-1.098-.316-2.078-.768-3.154-1.206-1.653-.673-3.335-.756-5.025-1.258zM510.588 461.553c-2.229-4.867-5.609-6.912-10.281-9.064-.863-.398-2.082-.772-2.908-1.302-2.139-1.373-1.84-1.646-2.426-3.906-.59-2.275-.942-4.528-2.173-6.596-2.466-4.143-7.016-6.072-11.698-5.607-2.875.285-6.005.671-8.841 1.277-1.098.235-2.064.568-3.106.927.472-1.235.986-2.423 1.189-3.192.51-1.937.953-3.91 1.272-5.889.598-3.701.804-7.805-1.288-11.109-2.439-3.849-7.538-4.976-11.801-4.673a15.235 15.235 0 0 0-5.833 1.648 11.1 11.1 0 0 0-1.055.636c.333-4.397-.312-8.774-1.027-13.298-.819-5.178-1.103-10.3-5.026-14.206-3.526-3.509-8.207-3.649-12.631-1.699-5 2.204-7.473 7.376-9.749 12.037a8.92 8.92 0 0 1-.268.5 6.724 6.724 0 0 1-.116-.495c-.849-4.521-1.408-11.285-5.188-14.528-3.946-3.384-7.921-.034-10.568 3.111-2.06 2.447-4.221 4.934-5.892 7.672-.213.35-.556 1.106-.936 1.944-.369-1.449-.81-2.892-1.94-4.081-1.915-2.016-5.004-3.23-7.775-3.317-2.092-.065-4.827.694-6.983 1.731.123-.573.222-1.104.294-1.504.919-5.096-.021-12.349-6.604-12.265-1.391.018-2.67.202-3.876.499.878-1.206 1.752-2.418 2.49-3.735 3.061-5.454 5.767-12.666 5.036-18.977-1.319-11.394-11.878-10.473-19.961-6.186-2.662 1.412-5.351 3.35-7.728 5.552.055-.229.11-.461.158-.682.885-4.179 1.066-9.446-3.29-11.665-5.178-2.637-12.648.858-16.853 3.975-5.501 4.079-10.658 8.169-13.888 14.331-.276.526-.662 1.167-1.079 1.876a100.878 100.878 0 0 1-2.458-5.355c-1.309-3.111-3.147-5.875-5.122-8.538 12.082-3.979 23.048-10.362 33.322-18.407 5.827-4.563 11.629-9.739 16.253-15.512 2.591-3.237 5.631-6.047 8.215-9.291 2.73-3.426 4.733-7.224 7.128-10.862 5.397-8.195 10.119-16.925 13.273-26.229 3.291-9.708 6.484-19.762 6.503-30.102.016-9.341 1.393-18.755.667-28.124-.357-4.599-2.338-8.518-5.127-12.123-.998-1.289-2.042-2.59-3.5-3.393-.568-.313-1.183-.51-1.8-.698-6.082-3.487-18.051-8.224-25.038-8.411.016-.285.023-.568.014-.846-.223-6.622-1.746-11.454-7.076-15.783-3.812-3.098-7.426-4.509-11.569-3.372.003-2.811-.835-5.535-2.767-7.71-4.419-4.974-11.762-5.464-17.879-4.643-2.852.384-6.5 1.76-8.603 4.122a14.345 14.345 0 0 0-.973-.969c-6.013-5.38-13.052-5.916-20.583-3.828-3.728 1.034-9.743 4.681-10.55 9.181l-.081-.026c-4.526-1.488-6.062-3.662-8.17-7.718-3.448-6.634-10.002-7.879-17.016-8.11-8.765-.289-17.632.091-26.154 2.353-8.256 2.193-16.498 4.668-24.482 7.713-3.785 1.444-7.57 2.783-11.394 4.105-3.198 1.105-5.787 3.3-8.9 4.638-3.558 1.53-7.115 3.161-10.315 5.365-3.047 2.098-5.236 5.283-8.389 6.978-7.486 4.024-16.347 5.494-23.602 9.873-2.953 1.784-5.672 3.677-7.978 5.943-.816.65-1.603 1.428-2.464 2.335-4.932 5.186-7.251 13.61-8.289 20.515-2.695 17.928.179 37.042 4.204 54.542 3.766 16.369 10.459 34.809 22.985 46.597a125.414 125.414 0 0 0 21.138 16.019c7.513 4.537 15.285 7.677 23.332 11.096a91.88 91.88 0 0 0 7.608 2.818c-.949 1.123-1.827 2.232-2.606 3.129-3.992 4.588-7.456 9.868-11.014 14.811-3.631-13.86-18.896-29.875-33.087-23.27-8.962 4.17-10.457 13.894-11.885 22.665-.067.412-.116.825-.166 1.237-3.033-2.997-7.631-2.895-10.264 1.175-2.93 4.529-3.906 11.005-4.036 16.245-.091 3.721.215 7.372.698 11.06.161 1.223.312 2.451.554 3.661-.533-.103-1.07-.204-1.62-.342-2.349-.584-4.549-1.419-6.938-1.881-4.439-.858-9.526-1.722-13.881-.035-3.906 1.513-6.66 4.931-8.044 8.801-.829 2.32-1.37 4.8-2.032 7.182-.956-1.018-1.986-1.983-3.111-2.761-3.136-2.17-7.156-2.598-10.617-.876-3.234 1.609-5.447 4.557-6.26 8.047-.409 1.753-.343 3.635-.226 5.523a14.098 14.098 0 0 0-.633-1.075c-1.272-1.89-2.516-3.733-4.228-5.254-3.49-3.1-7.127-3.876-11.528-2.141-4.663 1.837-7.633 6.201-9.439 10.703-1.324 3.297-1.828 6.364-2.158 9.537-2.61-.219-5.204.412-7.112 2.402-4.839 5.044-5.781 9.992-7.092 16.651-.319 1.62-.58 3.256-.851 4.884-.196 1.174-.014 4.311-.826 5.137-1.251 1.271-4.549.924-6.31 1.392-5.247 1.394-8.883 5.859-9.976 11.061-.043.202-.194.78-.261 1.248-1.14.016-2.3.054-2.37.056-3.016.141-5.852 1.001-8.521 2.424-4.583 2.444-8.272 8.199-6.145 13.472 2.047 5.077 8.952 7.736 13.857 8.991 6.996 1.789 13.549 1.294 20.679 1.384 3.774.048 7.429-.76 11.201-.775 4.259-.017 8.559.087 12.816.254 3.987.157 7.946.751 11.943.681 4.106-.072 8.177-.64 12.29-.657 16.657-.072 33.304.591 49.943 1.182 8.229.292 16.577.229 24.776.929 8.003.683 15.968.277 23.988.462 8.078.186 16.289.56 24.328 1.343 6.598.642 13.288-.355 20.002.091 9.142.607 18.388.378 27.548.262 4.571-.058 9.143-.265 13.714-.124 4.451.138 8.741 1.066 13.156 1.412 4.081.32 8.178-.263 12.265-.131 4.628.149 9.261.5 13.868.957 4.546.45 9.198 1.186 13.773 1.054.934-.026 1.86-.117 2.783-.233 1.74.188 3.48.374 5.217.54 6.029.574 11.758-.419 17.757-.424 2.432-.002 4.539-.48 6.928-.704 3.082-.29 6.24.249 9.327.197 5.417-.091 11.013-.924 16.354-1.787 5.137-.83 10.054-1.867 15.259-2.31 5.089-.434 10.199-.511 15.283-.991 11.195-1.057 22.559-.924 33.73-2.69 5.56-.879 10.918-2.206 16.536-2.849 5.67-.648 11.394-1.419 16.991-2.542 9.478-1.902 18.509-5.587 26.884-10.281 7.137-3.994 10.219-14.473 6.775-21.992zM313 369.592c2.302 3.64 4.176 7.313 6.708 10.813 2.726 3.769 3.639 8.234 5.921 12.239 2.131 3.742 4.688 7.112 6.733 10.932 2.341 4.375 4.306 8.825 6.478 13.276.968 1.984 2.425 3.698 3.248 5.693.819 1.982 1.166 3.458 2.401 5.202 2.659 3.76 4.282 8.547 5.663 12.945 2.014 6.412 8.095 15.917 2.342 21.887-2.665 2.767-7.882 3.622-11.12 1.55-4.694-3.004-6.995-6.91-9.861-11.454-9.937-15.748-17.707-32.696-25.859-49.398-2.145-4.396-4.679-8.569-6.756-12.988-2.266-4.823-4.14-9.9-6.627-14.601-2.521-4.765-5.298-9.333-7.958-14.016-1.427-2.513-2.761-5.622-4.545-8.159 6.112-.761 12.158-1.857 18.257-2.931a90.792 90.792 0 0 0 3.4-.67c.116.153.233.305.362.457 1.632 1.922 3.1 3.49 4.4 5.679 2.585 4.351 4.089 9.235 6.813 13.544zm-85.001 16.78c2.678-1.425 2.379-3.709 3.823-6.105 2.628-4.364 7.616-5.017 9.675.063 1.015 2.504 2.44 8.038 6.499 5.688 1.727-1 1.306-2.156 1.608-3.805.755-4.131 3.122-8.714 8.108-7.339 5.12 1.411 6.364 7.797 10.543 10.343 2.066 1.26 4.665.022 5.348-2.176 1.057-3.403 3.464-9.251 6.529-11.378a3.238 3.238 0 0 0 1.129-1.33c1.564 3.015 3.154 6.019 4.622 9.088 2.176 4.548 4.015 9.301 6.122 13.901a107.266 107.266 0 0 0 1.915 3.933c-1.59-.11-3.149-.526-4.759-.592-4.147-.17-8.368-.035-12.454.631-4.975.811-10.07.276-15.086.316-5.08.04-10.159.145-15.237.146-3.135.001-6.106.366-9.244.285-4.58-.117-9.173-.476-13.732-.517-4.987-.044-9.993.167-14.979.268-1.542.031-3.186-.057-4.767.024a283.856 283.856 0 0 0 3.759-5.111c4.016-5.622 8.065-11.304 12.532-16.575.188-.222.361-.453.544-.68 1.485 2.613 1.649 5.983 2.428 8.858.601 2.221 3.123 3.102 5.074 2.064zm-4.607-14.752c.763-1.057 1.526-2.117 2.332-3.157 1.668-2.153 3.435-4.266 5.006-6.496 1.869-2.654 3.531-5.336 5.635-7.816.621-.731 1.153-1.423 1.58-2.137 2.559.265 5.114.516 7.653.761 9.252.894 18.579 2.128 27.915 1.385.361-.028.72-.067 1.081-.099.435 1.531.63 3.138 1.21 4.651.813 2.125 1.789 4.264 2.777 6.312.21.433.431.86.645 1.292a3.738 3.738 0 0 0-.57-.105c-3.582-.354-5.834 1.095-7.497 4.201-.896 1.676-1.793 3.333-2.579 5.033-.817-.695-1.694-1.349-2.479-2.047-2.199-1.959-4.66-3.4-7.692-3.67-6.049-.538-10.504 3.615-12.246 9.191-.286-.918-.9-1.976-1.298-2.635-1.244-2.049-3.141-3.622-5.514-4.135-3.058-.661-6.117.468-8.618 2.178-1.166.797-2.215 1.728-3.21 2.727-.976-1.999-2.214-3.735-4.131-5.434zm-14.23 31.153c5.021.097 10.141-.077 15.146.27 4.454.309 9.003.396 13.447.768 3.405.284 6.593-.043 10.03.158 4.924.288 9.867.167 14.798.279 4.646.105 9.34.675 13.976.118 4.342-.522 9.181-.992 13.574-.473 2.6.308 4.999.713 7.363.249a112.775 112.775 0 0 1 1.829 3.728c2.23 4.791 4.554 9.506 6.841 14.245-2.164.113-4.399.517-6.138.524-5.773.021-11.497.232-17.215-.547-4.97-.678-10.357-.305-15.336.169-6.312.601-12.611.493-18.959.509-5.558.014-11.197-.255-16.722.341-5.866.633-11.815-.343-17.666.607-2.784.452-5.137.588-7.96.637-2.529.043-4.688.834-7.17 1.044-4.062.344-9.167.843-13.584.502 3.077-5.263 6.097-10.56 9.373-15.68 1.593-2.491 3.333-4.935 5.117-7.359 3.047.078 6.19-.148 9.256-.089zm168.766-203.76c.891.893 1.99 1.511 3.038 2.278-.902.543-1.956.965-2.688 1.456-1.859 1.246-3.379 2.433-5.493 3.284-.197.08-.385.174-.58.257-1.403-1.59-3.631-2.871-5.722-3.987 2.277-1.713 4.447-3.513 6.339-5.514 1.68.792 3.365 1.548 5.106 2.226zm-19.965-7.583c.157.073.311.146.475.212 2.677 1.085 5.449 1.608 8.183 2.475-1.754 1.242-3.431 2.869-4.795 3.947-.396.313-.797.625-1.196.939-2.173-1.191-4.476-2.251-6.623-3.39 1.485-1.045 2.856-2.515 3.956-4.183zm7.784 18.082a66.724 66.724 0 0 1-3.558 1.785c-3.148 1.441-6.421 2.543-9.738 3.509a6.876 6.876 0 0 0-.649-.623c1.746-1.332 3.488-2.672 5.159-4.112 1.326-1.142 2.603-2.35 3.874-3.567.226.124.447.251.673.374 1.398.76 2.805 1.697 4.239 2.634zm-10.56-6.232c-1.187.933-2.377 1.863-3.55 2.807-1.715 1.378-4.026 2.924-6.282 4.634-1.795-.888-3.457-1.758-5.206-2.259 2.188-2.243 3.755-5.146 4.29-8.165 1.222-.254 2.465-.777 3.67-1.379a184.188 184.188 0 0 0 7.078 4.362zm-14.014-34.344c2.44.809 4.939 1.229 7.105 2.94 1.545 1.221 3.017 2.647 3.976 4.381 1.031 1.863.891 4.446 1.068 6.56.495 5.917-5.259 7.683-9.97 9.994a11.242 11.242 0 0 0-1.255-1.903c-1.685-2.035-7.84-5.949-12.068-6.006.339-1.775.355-3.541.049-5.229 5.185-.824 9.434-5.471 11.095-10.737zm-8.797 38.152c-2.063 1.018-3.647 1.849-6.006 1.508-2.15-.311-4.534-.59-6.521-1.439-1.564-.669-5.352-1.904-6.465-3.104-.957-1.032-1.244-2.672-1.261-4.159 7.061-1.083 13.62-4.635 16.588-10.949.103-.22.19-.442.285-.663 4.286.975 9.356 3.594 10.773 8.09.329 1.046.408 2.014.286 2.91-.491 3.654-4.268 6.122-7.679 7.806zm7.527 8.635c-.778.965-1.399 1.968-1.803 3.009-3.86.868-8.153 2.305-12.108 2.342-3.846.036-7.573-1.658-11.088-3.215-.485-.276-.974-.55-1.459-.816 1.665-1.039 3.323-2.256 4.209-3.467 6.057 2.564 11.755 1.873 17.003-1.05 1.703 1.127 3.373 2.321 5.246 3.197zm-5.32-55.513c2.654 2.84 1.366 7.856-1.037 10.504-1.3 1.433-2.988 1.845-4.575 2.78a6.514 6.514 0 0 0-1.19.896 13.315 13.315 0 0 0-2.833-2.761c-2.581-1.873-5.366-3.31-8.554-3.52.566-2.902.01-5.994-1.36-8.694 5.563-3.313 15.332-3.718 19.549.795zm-20.561 12.815c1.871-.001 3.727.306 5.666 1.55 3.19 2.047 5.203 4.528 4.364 8.513-.472 2.242-1.301 4.108-3.01 5.686-5.631 5.195-15.272 6.863-22.102 3.346 1.013-3.424 1.41-6.987 1.023-10.198-.039-.32-.088-.647-.141-.975.788-1.374 1.34-2.296 3.458-2.789 1.78-.415 2.772-.898 4.331-1.743 2.078-1.125 4.709-1.65 6.411-3.39zm-96.613 37.849c.021-.011.041-.023.062-.033.5-.277.822-.69.993-1.155 3.622.066 7.221.563 10.81 1.852 3.324 1.194 6.472 2.9 9.915 3.76 3.544.885 7.379.937 11.013.867 3.333-.065 6.735-.427 10.143-.915l.049.038c.109.11.215.224.328.333a290.799 290.799 0 0 1-9.637 5.847c-1.637.954-3.373 1.85-4.973 2.907-2.905-1.072-5.8-1.819-6.974-2.206-7.587-2.505-14.309-8.249-21.729-11.295zm15.652 16.095c-12.93-.181-25.658-2.203-38.227-4.982 2.412-.892 4.783-2.136 6.851-3.122a370.76 370.76 0 0 0 9.308-4.59c1.041.721 2.178 1.341 3.354 1.912 1.254.91 2.612 1.723 4.107 2.561 3.571 1.999 6.928 4.372 10.535 6.297a54.357 54.357 0 0 0 4.072 1.924zm21.632-1.274c3.837-1.923 7.18-4.547 10.929-6.601 2.677 1.474 5.635 2.673 8.413 3.898.818.41 1.628.824 2.419 1.25a71.744 71.744 0 0 0 3.274 1.63c.33.198.671.406 1.019.618-1.687.17-3.37.37-5.008.597-4.896.677-9.776.5-14.716.456-3.006-.027-6.009-.09-9.011-.158a11.415 11.415 0 0 0-.229-.177c.979-.505 1.951-1.033 2.91-1.513zm26.047-7.011c-2.387-1.423-4.943-2.557-7.585-3.477 1.179-.595 2.353-1.202 3.536-1.779 1.493-.729 2.939-1.236 3.984-2.193a31.123 31.123 0 0 0 2.434-1.095c1.421 1.182 3.199 2.009 4.893 2.739 3.882 1.674 7.775 3.237 11.636 4.935-.49.342-.982.679-1.467 1.029-1.449 1.041-4.948 2.829-7.471 4.938-.18-.082-.359-.161-.54-.248-3.143-1.522-6.402-3.052-9.42-4.849zm7.714-11.825c1.333-.98 2.608-2.022 3.772-3.14 1.599-1.534 3.007-3.44 4.178-5.548 2.753 1.157 5.897 1.84 9.134 2.029-.058 2.099.693 4.391 1.522 6.066.842 1.701 1.989 2.881 3.32 3.808-.476.368-.966.77-1.505 1.19a80.954 80.954 0 0 1-2.852 2.111c-5.859-2.599-11.6-4.63-17.569-6.516zm17.899 14.261c1.408.81 2.857 1.689 4.337 2.546-3.271.452-6.546.871-9.83 1.218 1.839-1.239 3.628-2.556 5.493-3.764zm-9.151-64.899c5.57-.585 14.004 3.694 13.062 10.248-.509 3.545-8.03 4.614-10.728 5.507-.906.3-1.722.722-2.444 1.234-.06-.1-.115-.206-.177-.305-.47-4.157-4.244-7.473-7.936-9.379-1.153-.596-2.341-1.079-3.545-1.515 3.29-3.389 6.475-5.233 11.768-5.79zm-121.074 19.615c.361-.462.796-.976 1.28-1.504 3.188-2.102 6.67-3.517 10.546-5.112 2.704-1.113 5.09-2.959 7.843-3.85 3.378-1.092 6.73-2.168 10.077-3.366 6.531-2.338 13.234-4.258 19.964-5.923 7.444-1.843 14.725-3.59 22.451-3.556 3.436.015 6.994-.151 10.398.323 4.31.6 5.902 1.924 8.155 5.61 3.051 4.992 7.36 7.456 12.807 9.073 2.335.694 4.709 1.379 6.823 2.623.827.488 1.483 1.03 2.059 1.609.304.818.671 1.553 1.047 2.309-1.178 1.76-3.979 3.162-5.595 4.52-2.673 2.245-5.227 4.493-8.254 6.266-5.265 3.083-10.895 5.516-16.99 5.942-6.22.434-12.044.315-18.313-.047-6.29-.363-9.309-3.671-14.609-6.304-4.539-2.255-9.447-1.656-14.243-.68-6.213 1.263-12.435 1.355-18.673 2.363-3.71.599-7.321.956-11.08.639a34.54 34.54 0 0 1-4.955-.76c-1.56-.366-4.68-1.869-5.023-3.652-.185-.96 3.677-5.744 4.285-6.523zm-7.985 13.166c.095-1.088.204-2.055.359-2.946.535.801 1.289 1.579 2.333 2.327 5.381 3.852 14.011 4.018 20.218 3.163 4.287-.591 8.458-.975 12.778-1.297 4.119-.308 8.051-1.54 12.133-2.031 8.167-.984 12.03 5.588 19.394 7.162 3.817.816 7.942.628 11.824.942 3.545.287 6.716.069 10.186-.352 3.669-.445 6.541-.724 10.095-1.833 3.629-1.132 6.846-2.646 10.142-4.546 3.125-1.801 5.868-3.974 8.613-6.305 1.558-1.324 3.63-2.646 5.276-4.203.85 3.243.885 6.257-.089 9.75-1.115 4.001-2.015 7.069-5.245 9.913-2.404 2.117-6.062 4.675-9.13 5.808-3.539 1.308-7.928 1.247-11.626 1.77-4.041.571-8.063 1.361-12.119 1.826-3.862.443-8.212.533-12.032-.345-3.446-.792-6.606-2.572-9.915-3.76-6.093-2.187-12.995-2.722-19.359-1.882-3.703.489-7.473.6-11.156 1.106-3.515.482-6.769 1.228-10.392 1.177-7.039-.101-15.287-.74-20.313-6.323-1.447-1.606-2.132-3.546-2.502-5.587.315-1.124.419-2.307.527-3.534zm-1.92 14.764c.387.418.793.817 1.227 1.187 8.56 7.305 19.743 7.598 30.487 6.594-4.082 2.556-7.938 5.421-11.132 8.559a578.775 578.775 0 0 1-8.765-2.209c-1.691-.44-3.394-.901-5.098-1.377a5.798 5.798 0 0 1-.465-.458c-.245-.28-.505-.534-.753-.806-.621-3.991-4.852-7.266-8.661-10.022 1.053-.476 2.107-.954 3.16-1.468zm-9.529 4.619c.133.11.261.224.394.335 1.586 1.308 3.054 2.827 4.529 4.318a138.522 138.522 0 0 1-8.841-3.34c1.344-.386 2.699-.758 3.918-1.313zm-5.609-18.546c3.517-1.469 7.115-2.699 10.758-3.845-.888 3.698-.64 7.737.616 11.366-1.972.853-3.821 1.842-5.687 2.925-2.989-2.564-6.023-5.056-9.519-6.758a24.778 24.778 0 0 0-.67-.872c1.529-.916 3.058-1.827 4.502-2.816zm-7.405 4.61c2.245 3.256 4.746 6.202 7.518 8.958-1.731.911-3.458 1.828-5.088 2.907-.093.062-.161.139-.238.21-1.904-.993-3.744-2.098-5.334-3.416-.778-.646-2.571-2.532-3.048-3.372a.558.558 0 0 1-.04-.116c1.726-2.072 3.914-3.688 6.23-5.171zm27.335 124.957c-6.166-4.228-12.945-9.613-17.599-15.476-4.965-6.256-8.726-13.985-11.636-21.385-6.849-17.418-10.063-36.109-10.646-54.753-.24-7.663.378-16.345 3.557-23.542.611.899 1.265 1.824 1.981 2.546 1.103 1.112 2.262 1.359 3.444 2.262 1.504 1.149 1.983 2.171 3.801 3.001 1.82.831 3.689 1.564 5.503 2.442 1.605.777 3.177 1.265 4.865 1.818 2.938.961 5.484 2.582 8.47 3.446 10.009 2.892 19.94 6.351 30.1 8.727 9.236 2.16 18.952 3.35 28.394 4.077 20.08 1.546 40.065 2.592 60.195 1.32 18.538-1.172 37.32-3.32 55.498-7.518 9.453-2.182 19.262-4.446 28.189-8.44 3.71-1.661 7.496-3.151 11.17-4.888.767-.362 9.148-4.757 8.891-5.638.436 1.501.631 3.097.625 4.744-.025 7.567-.764 15.107-.742 22.635.048 15.716-5.804 31.741-13.609 45.169-3.852 6.629-7.347 13.872-12.477 19.634-2.53 2.842-5.066 5.56-7.475 8.515-2.229 2.735-4.926 4.676-7.473 7.063-11.036 10.346-24.181 19.121-38.77 23.558-6.85 2.084-14.371 2.766-21.411 4.078-7.816 1.457-16.145 1.342-24.073 1.114-7.832-.223-15.582-1.778-23.356-2.475-7.727-.693-15.149-1.969-22.734-3.686-14.84-3.355-30.085-9.712-42.682-18.348zm21.421 51.736c3.323-5.304 6.899-10.43 10.189-15.758 1.464-2.373 3.342-4.491 4.765-6.872.262-.439.462-.942.639-1.47 6.613 1.761 13.397 2.941 20.207 3.84-1.358 1.775-2.557 3.632-3.823 5.484-2.586 3.782-5.901 7.046-8.456 10.841-6.043 8.976-12.924 17.462-18.857 26.588-2.795 4.299-6.185 8.233-8.826 12.618-2.713 4.504-4.921 9.269-7.788 13.643-5.096 7.773-10.199 15.668-14.575 23.829-1.885 3.517-4.4 7.287-6.678 10.556-3.135 4.498-6.345 9.465-10.926 12.562-3.725 2.518-7.572 2.091-9.496-2.22-2.307-5.168-.511-10.462 1.922-15.127 4.733-9.078 8.649-19.482 15.09-27.501 2.643-3.29 5.816-6.168 8.488-9.435 2.943-3.598 5.319-7.541 7.858-11.42 6.651-10.166 13.812-19.857 20.267-30.158zm308.552 103.305c-2.799 2.958-9.178 4.868-12.946 6.343-5.222 2.046-11.505 3.124-17.04 3.859-6.164.819-12.364 1.311-18.523 2.165-6.437.893-12.653 2.24-19.142 2.851-11.965 1.126-23.988 1.108-35.915 2.371-5.538.587-10.972.764-16.365 2.121-5.746 1.447-12.368 1.985-18.279 2.099-7.148.138-14.14.059-21.262.736-7.297.693-14.484.202-21.804-.051-5.58-.193-11.183-.099-16.794.128-4.32-.489-8.655-.842-13.001-.833-3.072.007-6.138.325-9.2-.041-3.137-.375-6.214-1.059-9.372-1.343-7.835-.705-15.758-.275-23.614-.302-7.101-.025-14.202.11-21.289-.377-6.289-.433-12.611.398-18.78-.015-14.216-.952-28.299-1.318-42.538-1.631-15.229-.335-30.583-.603-45.808-1.265-14.504-.632-29.399-1.116-43.874.128-6.669.573-13.263-.203-19.937-.245-7.744-.048-15.32.681-23.015.786-6.606.089-12.962.59-19.237-2.105-1.37-.589-4.318-1.886-4.422-3.133-.268-3.214 6.824-3.596 8.609-3.598 2.392-.002 5.042.149 6.898-1.665 2.083-2.037 1.345-4.76 2.08-7.283 1.641-5.642 7.654-3.758 11.723-6.287 2.039-1.268 3.164-3.132 3.643-5.435.786-3.782.855-7.56 1.843-11.35.825-3.17 1.027-7.621 4.114-9.56 2.209-1.387-.034-.628 2.709-.555.191.039.353.069.499.096.273.198.552.388.839.568 3.22 2.152 6.471-.821 6.885-3.951.446-3.373 1.488-20.715 8.176-18.007 2.55 1.033 4.392 5.704 5.863 7.843 1.62 2.355 3.947 4.918 6.846 5.603 8.07 1.906 6.629-8.416 6.778-13.004.134-4.121 1.556-8.005 5.441-3.902 2.302 2.43 3.304 5.458 6.212 7.328 1.795 1.155 4.088.603 5.585-.721 6.447-5.697-.739-21.23 8.949-24.532 5.414-1.845 12.497 1.652 16.384 5.236 2.804 2.587 6.303 5.17 10.153 2.561 3.467-2.35 2.841-6.711 1.808-10.197-1.622-5.471-2.693-11.058-2.379-16.804.118-2.182.623-4.27 1.215-6.36 1.162 1.816 2.389 3.614 2.973 5.716.215.775.329 1.526.433 2.266.028 1.586.301 3.129 1.199 4.369 2.825 3.902 8.331.625 6.405-3.744-.305-.693.057-2.616-.074-3.473a13.837 13.837 0 0 0-.241-1.193l.024-.478c.12-2.747-.12-5.491-.039-8.239.185-6.225.98-16.343 6.476-20.221 11.29-7.965 25.201 11.992 26.437 21.422.076.581.277 1.075.548 1.498-1.96 2.852-3.859 5.749-5.578 8.681-2.92 4.982-6.728 9.455-9.963 14.257-3.04 4.513-5.891 9.071-9.095 13.439-3.32 4.525-7.727 8.182-11.047 12.716-3.163 4.319-5.442 9.056-8.131 13.701-3.057 5.278-6.058 10.904-8.458 16.514-1.891 4.421-2.333 9.513-1.383 14.233.79 3.93 3.434 9.724 7.332 11.477 3.115 1.401 8.478.796 11.557-.447 4.327-1.746 8.308-5.812 10.894-9.605 6.196-9.088 11.903-18.347 17.954-27.491 2.002-3.024 3.891-6.122 5.743-9.244 3.514.867 7.188.595 10.892.702 5.24.151 10.244-.385 15.474-.195 2.549.093 4.785-.613 7.332-.729 2.903-.133 5.835.169 8.736.263 5.851.19 11.738-.555 17.624-.541 6.002.013 12.009.118 18.008.041 5.44-.069 10.84-.874 16.302-.855 5.578.018 11.113.926 16.75.941 2.881.007 5.761.025 8.642.018 1.596-.005 3.836-.54 5.561-.453a269.282 269.282 0 0 1 3.434 7.626c2.129 4.952 4.98 9.456 7.617 14.141 2.501 4.444 5.117 9.558 8.255 13.546 5.642 7.168 13.66 11.98 22.901 9.403 8.396-2.342 13.312-11.172 11.7-19.617-.706-3.701-2.434-7.106-3.859-10.518-2.042-4.889-3.117-10.181-5.327-15.061-.781-1.725-1.866-3.132-2.772-4.742-1.238-2.196-1.625-4.417-3.033-6.59-2.966-4.579-4.696-9.883-7.295-14.691-2.649-4.901-6.144-9.531-8.512-14.532-1.304-2.752-1.87-5.699-3.374-8.378-1.238-2.206-2.981-4.049-4.298-6.194a152.35 152.35 0 0 1-2.063-3.464 2.53 2.53 0 0 0-.158-1.742c.079-.125.157-.277.236-.489l.593-.667c.996-.845 1.551-1.871 2.246-2.938 1.885-2.893 4.034-5.542 6.724-7.764 2.225-1.837 4.772-3.938 7.317-5.32 1.357-.737 2.926-1.277 4.416-1.682 2.293-.624 2.41-.984 2.818.707 1.111 4.606-3.464 9.437-3.051 14.173.325 3.739 4.009 5.571 7.071 3.329 1.506-1.103 2.197-2.846 3.212-4.343 1.521-2.245 3.704-4.247 5.766-6.007 2.581-2.203 10.576-7.797 14.151-5.068 2.473 1.888.79 7.799.034 10.117-1.105 3.389-2.369 6.852-4.408 9.804-1.627 2.352-3.32 4.883-4.986 7.177-1.77 2.439-4.269 3.645-5.557 6.497-1.121 2.483.829 6.682 4.102 5.335 2.234-.918 4.291-2.129 6.42-3.267 1.421-.761 2.625-1.539 4.253-1.746.272-.006.546.002.818.006-.614 2.16-1.874 5.939-1.978 6.234-.888 2.507-1.243 4.946.199 7.344 2.975 4.948 9.233 3.58 13.196.853 2.625-1.808 5.347-4.6 7.447-.678 1.321 2.468 1.368 4.491 3.344 6.729.908 1.029 2.441 1.285 3.714.982 3.509-.835 4.749-3.757 6.207-6.729 1.283-2.616 2.743-4.96 4.424-7.338.387-.548 2.612-4.016 2.875-3.966-.108-.021.428 2.895.469 3.128.829 4.759.518 15.381 6.021 17.727 7.415 3.16 10.466-10.82 13.607-14.711 1.629-2.018 4.519-3.739 6.725-1.567 1.729 1.703 1.972 4.449 2.337 6.705 1.029 6.349 2.221 12.75.144 18.995-.409 1.228.028 2.843.981 3.712 2.891 2.637 6.084 1.914 9.263.199 3.297-1.779 10.802-5.352 10.779 1.132-.021 5.757-9.307 20.686-.4 23.123 1.959.536 3.985-.138 5.843-.707 2.938-.9 5.538-1.578 8.604-1.998 2.42-.331 5.31-1.542 7.096.819 1.656 2.187.718 5.184 1.419 7.639 1.456 5.091 7.628 6.545 11.784 8.675 4.35 2.232 6.277 9.056 2.506 13.041z"/><path d="M222.284 289.077c1.467 2.512 3.868 4.434 7.685 5.368 9.351 2.286 20.03 2.646 29.603 2.304 11.58-.413 23.156-.507 34.703-1.27 7.286-.482 18.225-1.65 21.629-9.24.211-.47.392-.941.546-1.414 4.005-1.303 9.089 1.043 12.807-1.079 1.31-.747 1.763-1.895 2.049-3.284.462-2.248 1.072-5.41.577-7.704-.741-3.446-4.921-5.533-8.273-5.331-2.471.149-4.883 1.016-7.333 1.289-.707.079-1.48-.039-2.186.132-.899-2.179-2.045-4.225-3.643-5.473-3.381-2.64-9.413-2.409-13.474-2.289-5.776.17-11.526-.035-17.274.679-4.752.59-9.584.92-14.4 1.22-2.259.088-4.505.228-6.745.437-6.363.449-12.486 1.369-18.824 2.088a2.123 2.123 0 0 0-.647.182c-1.526-.043-3.049-.112-4.542.039-5.281.532-11.511 3.253-13.538 8.221-.269 0-.546.001-.839-.001-2.693-.019-5.415-.551-8.116-.343-4.36.338-6.461 4.293-7.071 8.277-.621 4.044.73 7.193 4.975 7.8 2.573.368 4.22-.475 6.66-.704 1.873-.172 3.926.455 5.671.096zm96.805-17.006c1.605-.23 3.413-.634 5.025-.478 2.953.286 3.905 1.56 3.52 4.516-.088.669-.131 3.495-.583 3.911-.649.598-4.397 0-5.18-.005-1.77-.011-3.284-.047-4.762.141-.042-1.772-.383-3.553-.97-5.34-.262-.796-.536-1.687-.837-2.613 1.256-.096 2.491.054 3.787-.132zm-87.097.56c3.833-1.424 7.323-1.248 11.369-1.691 7.638-.838 15.264-1.919 22.888-2.838 3.588.117 7.176.711 10.762.549 4.622-.208 9.099-.673 13.753-.535 4.171.124 8.231.06 12.355.63 1.765.244 2.579.057 3.536 1.617.838 1.367 1.25 3.598 1.917 5.123 1.584 3.622 2.231 8.082-1.857 10.23-3.17 1.664-8.111 2.105-11.642 2.508-8.714.996-17.448.524-26.196.853-8.489.319-16.622.593-25.09-.03-3.913-.288-8.142-.352-11.973-1.286-4.353-1.063-4.864-4.247-5.027-8.196-.18-4.298 1.33-5.494 5.205-6.934zm-22.67 11.411c-.301-1.482.523-2.666 1.046-3.955.613-1.51 1.163-2.141 2.894-2.236 1.717-.093 3.435-.109 5.146-.321.475-.059 1.18-.284 1.918-.515-.151 2.467-.124 4.89.255 7.122-1.702-.149-3.532.056-4.85.262-1.785.28-5.866 2.322-6.409-.357zM210.095 46.87c3.638-3.324 5.261-7.269 3.351-11.978-1.344-3.315-3.769-7.341-7.148-8.855-5.121-2.295-9.458 4.599-4.485 7.674 1.379.853 3.629 4.26 3.13 5.847-.883 2.81-4.771 3.758-7.128 2.605-4.687-2.294-6.642-9.33-6.356-14.095.459-7.672 5.121-12.964 11.932-15.893 7.859-3.379 15.58-.838 22.361 3.69 6.626 4.424 8.621 12.219 9.101 19.78.541 8.527-2.572 15.29-7.449 22.028-8.79 12.143-21.376 21.316-24.147 37.024-1.514 8.585-.458 16.514 3.078 24.466 3.132 7.044 6.546 14.729 14.665 16.58 2.017.46 3.721-2.055 2.097-3.602-7.019-6.685-12.065-19.074-12.297-28.731-.26-10.739 5.458-21.315 13.108-28.62 6.844-6.537 14.12-14.666 17.424-23.736 3.023-8.299 2.837-19.551-1.089-27.441-2.023-4.065-3.252-7.208-6.71-10.358-3.383-3.082-7.563-5.348-11.703-7.242-8.04-3.677-16.876-2.24-24.455 1.764-13.473 7.12-17.689 25.971-7.518 37.878 5.416 6.343 14.073 6.848 20.238 1.215z"/><path d="M223.884 94.896c-.318 8.294 3.895 14.418 6.47 21.982 2.129 6.253 6.105 8.909 12.623 9.247 1.456.075 1.875-1.682 1.091-2.635-1.973-2.395-4.708-4.901-5.81-7.79-1.497-3.923-2.73-7.66-4.48-11.522-3.421-7.556-1.553-15.814 2.566-22.708 4.566-7.645 15.535-6.777 20.075.482 2.453 3.923 2.127 8.444-1.51 11.354-1.769 1.415-3.304 2.097-5.112.454-1.297-1.179-.973-.896-.83-2.91.281-3.988-5.734-5.53-7.536-2.041-2.728 5.282.67 11.418 6.253 13.245 5.246 1.715 10.505-1.821 13.597-5.847 8.142-10.597-1.71-25.826-13.795-26.907-14.599-1.305-23.093 12.347-23.602 25.596zM261.048 167.363c-.174-1.07-.568-2.09-1.216-2.982-.656-.904-1.48-1.548-2.401-2.019a9.568 9.568 0 0 0-.812-.465c-4.383-2.197-9.692-2.128-14.453-1.529a23.598 23.598 0 0 0-4.725 1.08c-.903.114-1.804.269-2.699.492-1.67.416-2.77 1.096-3.94 1.914-4.612 1.251-9.481 4.057-9.8 8.357-.126.58-.104 1.201.141 1.889.108.489.272.992.499 1.513 1.543 3.549 6.332 5.475 9.846 6.192 6.306 1.285 12.762-.222 18.809-1.851 4.367-1.175 8.8-3.095 10.444-7.659.6-1.673.68-3.37.307-4.932zm-18.608-2.895l.457-.034c1.597-.075 3.211-.123 4.819-.129 1.714.085 3.393.36 4.794 1.013 9.734 4.537.328 9.117-4.328 10.083-5.696 1.181-15.509 3.573-20.599-.494-1.933-1.545-1.552-3.039-.45-4.332 1.498-1.155 3.831-2 5.439-2.756a48.743 48.743 0 0 1 9.312-3.284c.186-.022.367-.051.556-.067z"/></svg>