<?xml version="1.0" encoding="iso-8859-1"?>
<!-- Generator: Adobe Illustrator 19.0.0, SVG Export Plug-In . SVG Version: 6.00 Build 0)  -->
<svg version="1.1" id="Layer_1" xmlns="http://www.w3.org/2000/svg" xmlns:xlink="http://www.w3.org/1999/xlink" x="0px" y="0px"
	 viewBox="0 0 510.234 510.234" style="enable-background:new 0 0 510.234 510.234;" xml:space="preserve">
<path style="fill:#F3D55B;" d="M255.117,331.034c-29.131,0-52.966-23.834-52.966-52.966s23.834-52.966,52.966-52.966
	s52.966,23.834,52.966,52.966S284.248,331.034,255.117,331.034"/>
<g>
	<path style="fill:#FFA700;" d="M255.117,22.069c-35.31,0-68.855,7.062-98.869,20.303l53.848,160.662
		c13.241-7.945,29.131-13.241,45.903-13.241s32.662,4.414,45.903,13.241l53.848-160.662
		C323.972,29.131,290.428,22.069,255.117,22.069"/>
	<path style="fill:#FFA700;" d="M510.234,298.372L342.51,263.945c0.883,4.414,0.883,9.71,0.883,14.124
		c0,37.076-22.952,68.855-54.731,82.097l113.876,128C462.566,444.91,504.055,376.938,510.234,298.372"/>
	<path style="fill:#FFA700;" d="M166.841,278.069c0-4.414,0.883-9.71,0.883-14.124L0,298.372
		c6.179,78.565,47.669,146.538,108.579,189.793l113.876-128C189.793,346.924,166.841,315.145,166.841,278.069"/>
</g>
<g>
</g>
<g>
</g>
<g>
</g>
<g>
</g>
<g>
</g>
<g>
</g>
<g>
</g>
<g>
</g>
<g>
</g>
<g>
</g>
<g>
</g>
<g>
</g>
<g>
</g>
<g>
</g>
<g>
</g>
</svg>
