<svg xmlns="http://www.w3.org/2000/svg" viewBox="0 0 510.234 510.234"><path d="M255.117 331.034c-29.131 0-52.966-23.834-52.966-52.966s23.834-52.966 52.966-52.966 52.966 23.834 52.966 52.966-23.835 52.966-52.966 52.966" fill="#f3d55b"/><g fill="#ffa700"><path d="M255.117 22.069c-35.31 0-68.855 7.062-98.869 20.303l53.848 160.662c13.241-7.945 29.131-13.241 45.903-13.241s32.662 4.414 45.903 13.241L355.75 42.372c-31.778-13.241-65.322-20.303-100.633-20.303M510.234 298.372L342.51 263.945c.883 4.414.883 9.71.883 14.124 0 37.076-22.952 68.855-54.731 82.097l113.876 128c60.028-43.256 101.517-111.228 107.696-189.794M166.841 278.069c0-4.414.883-9.71.883-14.124L0 298.372c6.179 78.565 47.669 146.538 108.579 189.793l113.876-128c-32.662-13.241-55.614-45.02-55.614-82.096"/></g></svg>