<svg xmlns="http://www.w3.org/2000/svg" viewBox="0 0 56 56"><ellipse transform="rotate(45.001 43.914 12.086)" cx="43.914" cy="12.087" rx="16" ry="6" fill="#c56458"/><path d="M42.499 13.501c-2.382-2.382-4.048-4.645-5.12-6.486-.557-.955.507-2.019 1.463-1.463 1.84 1.072 4.104 2.738 6.486 5.12 2.382 2.382 4.048 4.645 5.12 6.486.557.955-.507 2.019-1.463 1.463-1.84-1.073-4.104-2.738-6.486-5.12z" fill="#fbd490"/><path d="M39.671 16.329C33.423 10.081 30.257 3.116 32.6.773c-8.396 8.396-17.562 27.693-11.314 33.941S46.831 31.796 55.227 23.4c-2.343 2.343-9.308-.822-15.556-7.071z" fill="#773f3a"/><path d="M22.693 35.751a6.083 6.083 0 0 1-1.406-1.037 6.246 6.246 0 0 1-1.288-1.925l-6.872 6.872a11.531 11.531 0 0 1-8.876 3.347 4.171 4.171 0 0 0-1.19.1A3.975 3.975 0 0 0 .11 46.052 4.005 4.005 0 0 0 4 51c.05 0 .096-.013.146-.015-.288 1.095-.288 2.303 1.317 3.883.716.705 1.657 1.16 2.661 1.13A4 4 0 0 0 12 52v-.045c-.037-3.305 1.015-6.526 3.352-8.863l7.341-7.341z" fill="#fbd490"/><path d="M38.31 21.667a.994.994 0 0 1-.563-.175c-1.036-.708-2.057-1.563-3.034-2.539s-1.832-1.998-2.54-3.034a2.091 2.091 0 0 0-1.848-.916 2.122 2.122 0 0 0-1.77 1.077 28.65 28.65 0 0 0-1.628 3.377 1 1 0 0 1-1.856-.744 30.315 30.315 0 0 1 1.742-3.613 4.104 4.104 0 0 1 3.425-2.095 4.082 4.082 0 0 1 3.585 1.785 19.662 19.662 0 0 0 2.302 2.749c.89.889 1.814 1.663 2.749 2.303a1 1 0 0 1-.564 1.825zM27.91 33.292c-1.571.001-2.938-.401-3.906-1.37-.914-.914-1.376-2.235-1.374-3.922a1 1 0 0 1 1-.999h.001a1 1 0 0 1 .999 1.002c-.001 1.138.263 1.98.788 2.505 1.574 1.574 6.136.727 11.091-2.063a1 1 0 1 1 .981 1.742c-3.057 1.722-6.668 3.105-9.58 3.105z" fill="#994530"/></svg>