<svg xmlns="http://www.w3.org/2000/svg" viewBox="0 0 511.967 511.967">
  <g fill="#434c6d">
    <path d="M145.048 511.967a8.536 8.536 0 0 1-8.533-8.533V494.9c0-4.71 3.823-8.533 8.533-8.533s8.533 3.823 8.533 8.533v8.533c.001 4.711-3.822 8.534-8.533 8.534M247.448 511.967a8.536 8.536 0 0 1-8.533-8.533V494.9c0-4.71 3.823-8.533 8.533-8.533s8.533 3.823 8.533 8.533v8.533c.001 4.711-3.822 8.534-8.533 8.534"/>
  </g>
  <path d="M486.382 8.5H264.515a8.536 8.536 0 0 0-8.533 8.533v76.8h.077c27.093 0 48.017 23.825 44.51 50.697l-2.287 17.57h188.1a8.536 8.536 0 0 0 8.533-8.533V17.033a8.536 8.536 0 0 0-8.533-8.533" fill="#7383bf"/>
  <path d="M486.382 170.6H288.604l3.536-27.167a36.39 36.39 0 0 0-36.081-41.099h-8.5l-.077-8.5v-76.8C247.482 7.641 255.123 0 264.515 0h221.867c9.393 0 17.033 7.641 17.033 17.034v136.533c0 9.392-7.64 17.033-17.033 17.033zm-178.423-17h178.423l.033-136.566-.033-.034H264.515l-.03 69.009a53.385 53.385 0 0 1 31.692 17.489 53.389 53.389 0 0 1 12.82 42.131l-1.038 7.971z" fill="#434c6d"/>
  <path d="M299.596 127.967c1.297 5.257 1.724 10.829.973 16.563l-2.295 17.57h188.109a8.536 8.536 0 0 0 8.533-8.533v-25.6h-195.32z" fill="#7383bf"/>
  <path d="M486.382 170.6H288.591l3.55-27.171c.579-4.421.311-8.937-.797-13.424l-2.603-10.538h214.675v34.1c0 9.392-7.641 17.033-17.034 17.033zm-178.426-17h178.426l.022-17.133h-177.02a52.1 52.1 0 0 1-.388 9.167l-1.04 7.966z" fill="#434c6d"/>
  <path d="M418.115 213.3h-85.333v-14.217c0-6.289 5.094-11.383 11.383-11.383h62.566c6.289 0 11.383 5.094 11.383 11.383V213.3h.001z" fill="#7383bf"/>
  <path d="M426.615 221.8H324.281v-22.717c0-10.964 8.92-19.883 19.884-19.883h62.566c10.964 0 19.884 8.919 19.884 19.883V221.8zm-85.334-17h68.334v-5.717a2.887 2.887 0 0 0-2.884-2.883h-62.566a2.887 2.887 0 0 0-2.884 2.883v5.717z" fill="#434c6d"/>
  <path fill="#7383bf" d="M358.382 187.7h34.133v-25.6h-34.133z"/>
  <path d="M401.015 196.2h-51.133v-42.6h51.133v42.6zm-34.133-17h17.133v-8.6h-17.133v8.6z" fill="#434c6d"/>
  <path fill="#845c46" d="M332.782 332.767h153.6v-85.334h-153.6z"/>
  <path d="M494.882 341.267H324.281V238.934h170.601v102.333zm-153.601-17h136.601v-68.333H341.281v68.333z" fill="#553323"/>
  <path fill="#845c46" d="M332.782 418.1h153.6v-85.333h-153.6z"/>
  <path d="M494.882 426.601H324.281V324.267h170.601v102.334zm-153.601-17h136.601v-68.334H341.281v68.334z" fill="#553323"/>
  <path fill="#845c46" d="M332.782 503.434h153.6V418.1h-153.6z"/>
  <path d="M494.882 511.934H324.281V409.601h170.601v102.333zm-153.601-17h136.601v-68.333H341.281v68.333z" fill="#553323"/>
  <g fill="#d7b740">
    <path d="M418.115 298.633h-17.067c-4.71 0-8.533-3.823-8.533-8.533s3.823-8.533 8.533-8.533h17.067a8.53 8.53 0 0 1 8.533 8.533 8.53 8.53 0 0 1-8.533 8.533M418.115 383.967h-17.067c-4.71 0-8.533-3.823-8.533-8.533s3.823-8.533 8.533-8.533h17.067a8.53 8.53 0 0 1 8.533 8.533 8.53 8.53 0 0 1-8.533 8.533M418.115 469.3h-17.067c-4.71 0-8.533-3.823-8.533-8.533s3.823-8.533 8.533-8.533h17.067c4.719 0 8.533 3.823 8.533 8.533s-3.814 8.533-8.533 8.533"/>
  </g>
  <path fill="#845c46" d="M25.582 503.434h34.133V247.433H25.582z"/>
  <path d="M68.215 511.934H17.082v-273h51.133v273zm-34.133-17h17.133v-239H34.082v239z" fill="#553323"/>
  <g fill="#d1d4d1">
    <path d="M127.982 494.9h136.533v-25.6H127.982zM196.248 435.167a8.536 8.536 0 0 1-8.533-8.533v-128c0-4.71 3.823-8.533 8.533-8.533s8.533 3.823 8.533 8.533v128c.001 4.71-3.822 8.533-8.533 8.533"/>
  </g>
  <path d="M281.582 358.367H110.915c0-18.85 15.283-34.133 34.133-34.133h102.4c18.851-.001 34.134 15.283 34.134 34.133" fill="#88c057"/>
  <path fill="#845c46" d="M291.599 213.3l-4.454 34.133h216.303V213.3z"/>
  <path d="M511.948 255.934H277.463l6.673-51.133h227.812v51.133zm-215.122-17h198.121V221.8H299.062l-2.236 17.134z" fill="#553323"/>
  <path fill="#845c46" d="M102.352 213.3H8.519v34.133h98.287z"/>
  <path d="M116.488 255.934H.019V204.8h109.795l6.674 51.134zm-99.469-17h80.106L94.889 221.8h-77.87v17.134z" fill="#553323"/>
  <g fill="#434c6d">
    <path d="M281.582 59.7a8.509 8.509 0 0 1-6.033-2.5 8.523 8.523 0 0 1 0-12.066l17.067-17.067c3.337-3.337 8.73-3.337 12.066 0s3.337 8.73 0 12.066L287.615 57.2a8.51 8.51 0 0 1-6.033 2.5M298.648 85.3a8.509 8.509 0 0 1-6.033-2.5 8.523 8.523 0 0 1 0-12.066L326.749 36.6c3.337-3.337 8.73-3.337 12.066 0s3.337 8.73 0 12.066L304.681 82.8a8.509 8.509 0 0 1-6.033 2.5"/>
  </g>
  <path d="M246.099 298.633h-98.244c-24.508 0-45.218-18.176-48.384-42.479L84.376 140.4c-3.814-29.201 18.927-55.1 48.375-55.1h128.444c29.457 0 52.19 25.899 48.384 55.1l-15.095 115.755c-3.175 24.302-23.877 42.478-48.385 42.478" fill="#23a24d"/>
  <path d="M221.848 469.3h-51.2v-25.634c0-9.404 7.629-17.033 17.033-17.033h17.135c9.404 0 17.033 7.629 17.033 17.033V469.3h-.001z" fill="#aeb7ae"/>
</svg>
