<svg xmlns="http://www.w3.org/2000/svg" viewBox="0 0 450.064 450.064" width="512" height="512">
  <path d="M228.322 151.025c-28.01 8.37-57.608-7.609-65.979-35.62-6.175-20.667.717-42.649 17.562-56.237 16.384-11.442 26.61-28.862 29.067-47.753 25.859 16.972 45.74 42.745 54.969 73.632 8.37 28.011-7.608 57.608-35.619 65.978z" fill="#ff5959"/>
  <path d="M213.169 128.458c-12.394 0-23.526-8.286-27.071-20.151-3.246-10.861.147-22.072 8.858-29.417a94.379 94.379 0 0 0 24.323-25.486c9.484 11.31 16.647 24.48 20.908 38.741 2.152 7.203 1.361 14.831-2.229 21.479-3.589 6.648-9.533 11.496-16.735 13.646a28.066 28.066 0 0 1-8.054 1.188z" fill="#ff9500"/>
  <path d="M314.282 139.61c-28.01 8.369-57.608-7.61-65.979-35.62-6.175-20.667.717-42.649 17.562-56.238C282.249 36.311 292.477 18.89 294.932 0c25.859 16.971 45.741 42.744 54.97 73.632 8.37 28.011-7.609 57.608-35.62 65.978z" fill="#ff5959"/>
  <path d="M299.129 117.043c-12.394 0-23.526-8.286-27.071-20.151-3.246-10.863.147-22.072 8.858-29.418a94.375 94.375 0 0 0 24.323-25.485c9.485 11.309 16.647 24.48 20.908 38.741 2.152 7.202 1.36 14.83-2.229 21.479-3.589 6.648-9.532 11.496-16.734 13.647a28.146 28.146 0 0 1-8.055 1.187z" fill="#ff9500"/>
  <path d="M333.447 348.837h-151.85a7.5 7.5 0 0 1-7.5-7.5 7.5 7.5 0 0 1 7.5-7.5h151.85a7.5 7.5 0 0 1 0 15z" fill="#a4a9ad"/>
  <path d="M181.597 333.837a7.5 7.5 0 0 0-7.5 7.5 7.5 7.5 0 0 0 7.5 7.5h20.752l3.421-15h-24.173zM333.447 333.837a7.5 7.5 0 0 1 7.5 7.5 7.5 7.5 0 0 1-7.5 7.5h-20.752l-3.421-15h24.173z" opacity=".2" fill="#222"/>
  <path d="M357.385 450.064c-6.504 0-12.378-4.478-13.886-11.089l-52.595-230.559c-1.751-7.676 3.052-15.317 10.728-17.068 7.675-1.752 15.318 3.051 17.069 10.727l52.595 230.559c1.751 7.677-3.052 15.318-10.728 17.069a14.258 14.258 0 0 1-3.183.361z" fill="#a4a9ad"/>
  <path d="M318.701 202.076c-1.751-7.677-9.394-12.479-17.069-10.727-7.676 1.751-12.479 9.393-10.728 17.068l15.612 68.436a176.389 176.389 0 0 0 26.931-10.14l-14.746-64.637z" opacity=".2" fill="#222"/>
  <g>
    <path d="M158.353 445.418c-1.05 0-2.116-.118-3.183-.362-7.676-1.75-13.172-4.744-11.421-12.421l52.595-230.559c1.752-7.677 9.393-12.479 17.069-10.727 7.676 1.751 12.479 9.393 10.728 17.068l-52.595 230.559c-1.508 6.609-6.69 6.442-13.193 6.442z" fill="#a4a9ad"/>
    <path d="M213.412 191.349c-7.676-1.752-15.317 3.051-17.069 10.727l-14.745 64.637a176.573 176.573 0 0 0 26.931 10.14l15.611-68.436c1.751-7.676-3.052-15.317-10.728-17.068z" opacity=".2" fill="#222"/>
  </g>
  <g>
    <circle cx="160.076" cy="415.939" r="34.126" fill="#333e48"/>
    <circle cx="160.077" cy="415.939" r="11.688" fill="#a4a9ad"/>
    <path d="M160.077 381.814c-18.847 0-34.126 15.279-34.126 34.125 0 18.848 15.279 34.126 34.126 34.126v-68.251z" opacity=".3" fill="#222"/>
  </g>
  <g>
    <path d="M95.417 105.668c0 89.528 72.577 162.105 162.105 162.105 89.529 0 162.106-72.577 162.106-162.105H95.417z" fill="#333e48"/>
    <path d="M95.417 105.668c0 89.528 72.577 162.105 162.105 162.105V105.668H95.417z" opacity=".5" fill="#222"/>
    <path d="M95.417 105.668c0 9.462.82 18.731 2.375 27.748h319.461a163.06 163.06 0 0 0 2.375-27.748H95.417z" opacity=".5" fill="#222"/>
    <g>
      <path d="M419.628 119.924H95.417c-7.873 0-14.255-6.382-14.255-14.256 0-7.874 6.382-14.256 14.255-14.256h324.212c7.873 0 14.255 6.382 14.255 14.256 0 7.874-6.383 14.256-14.256 14.256z" fill="#a4a9ad"/>
      <path d="M95.417 91.412c-7.873 0-14.255 6.382-14.255 14.256 0 7.874 6.382 14.256 14.255 14.256h162.105V91.412H95.417z" opacity=".2" fill="#222"/>
    </g>
  </g>
  <g>
    <path d="M124.282 168.189H60.314a7.5 7.5 0 0 1 0-15h63.968a7.5 7.5 0 0 1 0 15z" fill="#a4a9ad"/>
    <circle cx="46.543" cy="160.689" r="30.363" fill="#997668"/>
    <circle cx="46.543" cy="160.689" r="11.766" fill="#65513c"/>
    <path d="M46.543 130.326c-16.768 0-30.363 13.593-30.363 30.362 0 16.768 13.594 30.362 30.363 30.362v-60.724z" opacity=".2" fill="#222"/>
  </g>
</svg>
