<?xml version="1.0" encoding="UTF-8" standalone="no"?>
<!-- Generator: Adobe Illustrator 19.0.0, SVG Export Plug-In . SVG Version: 6.00 Build 0)  -->

<svg
   xmlns:dc="http://purl.org/dc/elements/1.1/"
   xmlns:cc="http://creativecommons.org/ns#"
   xmlns:rdf="http://www.w3.org/1999/02/22-rdf-syntax-ns#"
   xmlns:svg="http://www.w3.org/2000/svg"
   xmlns="http://www.w3.org/2000/svg"
   xmlns:sodipodi="http://sodipodi.sourceforge.net/DTD/sodipodi-0.dtd"
   xmlns:inkscape="http://www.inkscape.org/namespaces/inkscape"
   version="1.1"
   id="Capa_1"
   x="0px"
   y="0px"
   viewBox="0 0 494.817 494.817"
   style="enable-background:new 0 0 494.817 494.817;"
   xml:space="preserve"
   inkscape:version="0.91 r13725"
   sodipodi:docname="receive.svg"><metadata
     id="metadata65"><rdf:RDF><cc:Work
         rdf:about=""><dc:format>image/svg+xml</dc:format><dc:type
           rdf:resource="http://purl.org/dc/dcmitype/StillImage" /></cc:Work></rdf:RDF></metadata><defs
     id="defs63" /><sodipodi:namedview
     pagecolor="#ffffff"
     bordercolor="#666666"
     borderopacity="1"
     objecttolerance="10"
     gridtolerance="10"
     guidetolerance="10"
     inkscape:pageopacity="0"
     inkscape:pageshadow="2"
     inkscape:window-width="1024"
     inkscape:window-height="723"
     id="namedview61"
     showgrid="false"
     inkscape:zoom="0.47694401"
     inkscape:cx="247.40849"
     inkscape:cy="247.40849"
     inkscape:window-x="0"
     inkscape:window-y="19"
     inkscape:window-maximized="1"
     inkscape:current-layer="Capa_1" /><path
     style="fill:#ffffff"
     d="m 102.617,366.976 c -9.600003,0 -17.600003,-7.8 -17.600003,-17.4 0,-9.6 7.8,-17.6 17.400003,-17.6 9.6,0 17.6,7.8 17.6,17.4 0,4.6 -1.8,9.2 -5.2,12.4 -3.2,3.4 -7.6,5.2 -12.2,5.2 z"
     id="path3"
     inkscape:connector-curvature="0" /><path
     style="fill:#ee8559"
     d="m 102.417,399.576 c -27.600003,-0.4 -49.800003,-23.2 -49.400003,-51 0.4,-27 22,-48.8 49.000003,-49.4 24.4,0 50.6,19.2 50.6,50.2 -0.2,27.8 -22.6,50.2 -50.2,50.2 z m 0,-70.4 c -11.200003,0 -20.200003,9.2 -20.200003,20.4 0,11.2 9.2,20.2 20.400003,20.2 5.4,0 10.4,-2.2 14.2,-6 8,-8 7.8,-20.8 0,-28.8 -4,-3.8 -9,-5.8 -14.4,-5.8 l 0,0 z"
     id="path5"
     inkscape:connector-curvature="0" /><path
     style="fill:#ffffff"
     d="m 471.21699,348.176 -3,0 c -1,0 -2.2,0 -3.2,0 l -3.6,0 -0.8,-6 c -4.2,-29 -31,-49.2 -60,-45 -14.79999,2.2 -28.19999,10.4 -36.39999,22.8 -2.8,4 -5,8.6 -6.4,13.2 l -0.4,1.2 c -0.8,2.6 -1.4,5.2 -1.8,8 l -0.8,6 -199.2,0 -0.6,-5.8 -4.6,-15.6 -10.2,-14.6 c -9.8,-10 -23.4,-15.8 -37.6,-15.8 -17.600003,0.2 -34.200003,8.8 -44.000003,23.4 -2.8,4 -5,8.4 -6.4,13.2 l -0.4,1.2 c -0.8,2.6 -1.4,5.2 -1.8,7.8 l -0.8,6 -28.4,0 c -7.8,0 -14.0000001,-6.2 -14.0000001,-14 l 0,-34.6 c 0,-7.8 6.2000001,-14 14.0000001,-14 l 291.400003,0 c 0.8,0 1.4,-0.6 1.4,-1.4 l 0,0 0,-153.2 77.6,0 79.19999,95.8 17.6,57.8 0,53.8 -0.6,0 c -0.6,2.2 -1.8,4.2 -3.6,5.8 -3.6,3.6 -8.2,4 -12.6,4 z m -134.99999,-195 c -0.8,0 -1.4,0.6 -1.4,1.4 l 0,0 0,107.2 c 0,0.8 0.6,1.4 1.4,1.4 l 0,0 116.99999,0 c 0.4,0 0.8,-0.2 1.2,-0.6 0.2,-0.4 0.4,-0.8 0.2,-1.2 l -7.2,-27 c 0,-0.2 -0.2,-0.4 -0.4,-0.6 l -0.2,-0.2 -65.99999,-80 c -0.2,-0.4 -0.6,-0.6 -1.2,-0.6 l -43.4,0.2 0,0 z"
     id="path7"
     inkscape:connector-curvature="0" /><path
     style="fill:#ffc855"
     d="m 22.216997,282.776 0,-187.2 288.600003,0 0,187.2 -288.600003,0 z m 70,-125.6 c -0.8,0 -1.4,0.6 -1.4,1.4 l 0,0 0,61.2 c 0,0.8 0.6,1.4 1.4,1.4 l 0,0 67.800003,0 -0.6,29 c 0,0.4 0,1 0.4,1.2 0.2,0.2 0.6,0.4 1,0.4 0.4,0 0.6,-0.2 0.8,-0.2 l 80.2,-61.2 c 0.4,-0.2 0.6,-0.6 0.6,-1.2 0,-0.4 -0.2,-0.8 -0.6,-1.2 l -79.4,-61.2 c -0.2,-0.2 -0.6,-0.4 -0.8,-0.4 -0.8,0 -1.4,0.6 -1.4,1.4 l 0,0 -0.2,29.2 -67.800003,0 0,0.2 z"
     id="path9"
     inkscape:connector-curvature="0" /><polygon
     style="fill:#80d1e4"
     points="337.617,156.176 379.017,156.176 444.617,235.576 451.217,260.576 337.617,260.376 "
     id="polygon11"
     transform="translate(-3.1113122e-6,-3.6416833e-7)" /><path
     style="fill:#8bc65a"
     d="m 162.817,219.776 c 0,-0.4 -0.2,-0.8 -0.4,-1 -0.2,-0.2 -0.6,-0.4 -1,-0.4 l -67.800003,0 0,-58.4 67.800003,0 c 0.8,0 1.4,-0.6 1.4,-1.4 l 0,0 0.2,-27.8 75.8,58.4 -76.4,58.4 0.4,-27.8 z"
     id="path13"
     inkscape:connector-curvature="0" /><path
     style="fill:#ffffff"
     d="m 408.41699,366.976 c -9.6,0 -17.59999,-7.8 -17.59999,-17.4 0,-9.6 7.79999,-17.6 17.39999,-17.6 9.6,0 17.6,7.8 17.6,17.4 0,4.6 -1.8,9.2 -5.2,12.4 -3.2,3.4 -7.6,5.2 -12.2,5.2 z"
     id="path15"
     inkscape:connector-curvature="0" /><path
     style="fill:#ee8559"
     d="m 408.21699,399.576 c -27.59999,-0.4 -49.79999,-23.2 -49.39999,-51 0.4,-27 22,-48.8 48.99999,-49.4 24.2,0 50.6,19.2 50.6,50.2 -0.2,27.8 -22.6,50.2 -50.2,50.2 z m 0,-70.4 c -11.2,0 -20.19999,9.2 -20.19999,20.4 0,11.2 9.19999,20.2 20.39999,20.2 5.4,0 10.4,-2.2 14.2,-6 8,-8 7.8,-20.8 0,-28.8 -3.8,-3.8 -9,-5.8 -14.4,-5.8 l 0,0 z"
     id="path17"
     inkscape:connector-curvature="0" /><g
     id="g19"
     transform="translate(-3.1113122e-6,-3.6416833e-7)"><path
       style="fill:#382512"
       d="m 244.417,184.776 -79.6,-61.2 0,0 c -2.4,-1.8 -5.8,-1.4 -7.6,1 -0.8,1 -1.2,2.2 -1.2,3.4 l -0.2,25.2 -63.8,0 c -3,0 -5.4,2.4 -5.4,5.4 l 0,0 0,61.2 c 0,3 2.4,5.4 5.4,5.4 l 0,0 63.8,0 -0.4,24.8 c -0.2,3 2.2,5.6 5.2,5.8 1.2,0 2.6,-0.4 3.6,-1 l 80.2,-61.2 0,0 c 2.4,-1.8 2.8,-5.2 1,-7.6 -0.4,-0.4 -0.8,-0.8 -1,-1.2 l 0,0 z m -78,54.4 0.4,-19.4 c 0,-3 -2.4,-5.4 -5.4,-5.4 l 0,0 -63.8,0 0,-50.4 63.8,0 c 3,0 5.4,-2.4 5.4,-5.4 l 0,0 c 0,-0.2 0,-0.4 0,-0.4 l 0,-19.2 65.2,50.2 -65.6,50 z"
       id="path21"
       inkscape:connector-curvature="0" /><path
       style="fill:#382512"
       d="m 494.817,334.176 0,-50 c 0,-0.6 0,-1 -0.2,-1.6 l -17.6,-57.8 c -0.2,-0.8 -0.6,-1.6 -1.2,-2.4 l -79.6,-96.2 c -1,-1.4 -2.6,-2.2 -4.4,-2.2 l -74.2,0 0,-30 c 0,-3 -2.4,-5.4 -5.4,-5.4 l 0,0 -291.4,0 c -3,0 -5.4,2.4 -5.4,5.4 l 0,185.6 c -9.2,2.2 -15.8,10.4 -15.4,20 l 0,34.4 c 0,11.6 9.4,20.8 20.8,20.8 l 24.8,0 c 3,31.4 31,54.2 62.2,51.2 27.2,-2.6 48.6,-24 51.2,-51.2 l 192.4,0 c 3,31.4 31,54.2 62.2,51.2 27.2,-2.6 48.6,-24 51.2,-51.2 l 9,0 c 5.6,0 10.8,-2.2 14.8,-6.2 l 0,0 c 4,-3.6 6.2,-9 6.2,-14.4 l 0,0 z m -468.4,-234.6 280.6,0 0,179.2 -280.6,0 0,-179.2 z m 108.6,282.6 c -18,18 -47.2,18 -65.2,0 -18,-18 -18,-47.2 0,-65.2 18,-18 47.2,-18 65.2,0 8.6,8.6 13.6,20.4 13.6,32.6 0,12.2 -5,24 -13.6,32.6 z m 305.8,0 c -18,18 -47.2,18 -65.2,0 -18,-18 -18,-47.2 0,-65.2 18,-18 47.2,-18 65.2,0 8.6,8.6 13.6,20.4 13.6,32.6 0,12.2 -5,24 -13.6,32.6 z m 43.2,-48 c 0,2.6 -1,5.2 -3,7 l 0,0 c -1.8,1.8 -4.4,3 -7,3 l -9,0 c 0,0 -7.6,-51.6 -56.8,-51.6 -39.6,0 -55,33.8 -56.8,51.6 l -192.2,0 c 0,0 -6,-51.6 -56.8,-51.6 -33.2,0 -53.8,24.6 -56.8,51.6 l -24.8,0 c -5.6,0 -10,-4.4 -10,-10 l 0,-34.6 c 0.2,-5.4 4.6,-9.8 10,-10 l 291.4,0 c 3,0 5.4,-2.4 5.4,-5.4 l 0,0 0,-149.2 71.8,0 77.4,93.6 17.2,56.4 0,49.2 0,0 z"
       id="path23"
       inkscape:connector-curvature="0" /><path
       style="fill:#382512"
       d="m 458.417,260.576 -7.2,-27 c -0.2,-0.8 -0.6,-1.6 -1.2,-2.4 l -66,-80 c -1,-1.2 -2.6,-2 -4.2,-2 l -43.4,0 c -3,0 -5.4,2.4 -5.4,5.4 l 0,0 0,107.2 c 0,3 2.4,5.4 5.4,5.4 l 0,0 0.4,0 116.4,0 c 3,0 5.4,-2.4 5.4,-5.4 0,-0.4 0,-0.8 -0.2,-1.2 l 0,0 z m -116.8,-4 0,-96.4 35.4,0 63.8,77.4 5.2,19 -104.4,0 z"
       id="path25"
       inkscape:connector-curvature="0" /><path
       style="fill:#382512"
       d="m 425.417,332.376 c -9.4,-9.4 -24.8,-9.6 -34.4,0 l 0,0 0,0 c -9.4,9.4 -9.6,24.8 0,34.4 l 0,0 0,0 c 9.4,9.4 24.8,9.6 34.4,0 l 0,0 0,0 c 9.4,-9.6 9.6,-24.8 0,-34.4 l 0,0 z m -7.6,26.8 c -5.2,5.2 -13.8,5.2 -19,0 -5.2,-5.2 -5.2,-13.8 0,-19 5.2,-5.2 13.8,-5.2 19,0 2.6,2.6 4,6 4,9.6 0,3.4 -1.6,6.8 -4,9.4 z"
       id="path27"
       inkscape:connector-curvature="0" /><path
       style="fill:#382512"
       d="m 119.617,332.376 c -9.4,-9.4 -24.8,-9.6 -34.4,0 l 0,0 0,0 c -9.4,9.4 -9.6,24.8 0,34.4 l 0,0 0,0 c 9.4,9.4 24.8,9.6 34.4,0 l 0,0 0,0 c 9.4,-9.6 9.6,-24.8 0,-34.4 l 0,0 z m -7.6,26.8 c -5.2,5.2 -13.8,5.2 -19,0 -5.2,-5.2 -5.2,-13.8 0,-19 5.2,-5.2 13.8,-5.2 19,0 2.6,2.6 4,6 4,9.6 0,3.4 -1.6,6.8 -4,9.4 l 0,0 z"
       id="path29"
       inkscape:connector-curvature="0" /></g><g
     id="g31" /><g
     id="g33" /><g
     id="g35" /><g
     id="g37" /><g
     id="g39" /><g
     id="g41" /><g
     id="g43" /><g
     id="g45" /><g
     id="g47" /><g
     id="g49" /><g
     id="g51" /><g
     id="g53" /><g
     id="g55" /><g
     id="g57" /><g
     id="g59" /></svg>