<svg xmlns="http://www.w3.org/2000/svg" viewBox="0 0 494.817 494.817"><path d="M102.617 366.976c-9.6 0-17.6-7.8-17.6-17.4 0-9.6 7.8-17.6 17.4-17.6 9.6 0 17.6 7.8 17.6 17.4 0 4.6-1.8 9.2-5.2 12.4-3.2 3.4-7.6 5.2-12.2 5.2z" fill="#fff"/><path d="M102.417 399.576c-27.6-.4-49.8-23.2-49.4-51 .4-27 22-48.8 49-49.4 24.4 0 50.6 19.2 50.6 50.2-.2 27.8-22.6 50.2-50.2 50.2zm0-70.4c-11.2 0-20.2 9.2-20.2 20.4s9.2 20.2 20.4 20.2c5.4 0 10.4-2.2 14.2-6 8-8 7.8-20.8 0-28.8-4-3.8-9-5.8-14.4-5.8z" fill="#ee8559"/><path d="M471.217 348.176h-9.8l-.8-6c-4.2-29-31-49.2-60-45-14.8 2.2-28.2 10.4-36.4 22.8-2.8 4-5 8.6-6.4 13.2l-.4 1.2c-.8 2.6-1.4 5.2-1.8 8l-.8 6h-199.2l-.6-5.8-4.6-15.6-10.2-14.6c-9.8-10-23.4-15.8-37.6-15.8-17.6.2-34.2 8.8-44 23.4-2.8 4-5 8.4-6.4 13.2l-.4 1.2c-.8 2.6-1.4 5.2-1.8 7.8l-.8 6h-28.4c-7.8 0-14-6.2-14-14v-34.6c0-7.8 6.2-14 14-14h291.4c.8 0 1.4-.6 1.4-1.4v-153.2h77.6l79.2 95.8 17.6 57.8v53.8h-.6c-.6 2.2-1.8 4.2-3.6 5.8-3.6 3.6-8.2 4-12.6 4zm-135-195c-.8 0-1.4.6-1.4 1.4v107.2c0 .8.6 1.4 1.4 1.4h117c.4 0 .8-.2 1.2-.6.2-.4.4-.8.2-1.2l-7.2-27c0-.2-.2-.4-.4-.6l-.2-.2-66-80c-.2-.4-.6-.6-1.2-.6l-43.4.2z" fill="#fff"/><path d="M22.217 282.776v-187.2h288.6v187.2h-288.6zm70-125.6c-.8 0-1.4.6-1.4 1.4v61.2c0 .8.6 1.4 1.4 1.4h67.8l-.6 29c0 .4 0 1 .4 1.2.2.2.6.4 1 .4s.6-.2.8-.2l80.2-61.2c.4-.2.6-.6.6-1.2 0-.4-.2-.8-.6-1.2l-79.4-61.2c-.2-.2-.6-.4-.8-.4-.8 0-1.4.6-1.4 1.4l-.2 29.2h-67.8v.2z" fill="#ffc855"/><path fill="#80d1e4" d="M337.617 156.176h41.4l65.6 79.4 6.6 25-113.6-.2z"/><path d="M162.817 219.776c0-.4-.2-.8-.4-1-.2-.2-.6-.4-1-.4h-67.8v-58.4h67.8c.8 0 1.4-.6 1.4-1.4l.2-27.8 75.8 58.4-76.4 58.4.4-27.8z" fill="#8bc65a"/><path d="M408.417 366.976c-9.6 0-17.6-7.8-17.6-17.4 0-9.6 7.8-17.6 17.4-17.6 9.6 0 17.6 7.8 17.6 17.4 0 4.6-1.8 9.2-5.2 12.4-3.2 3.4-7.6 5.2-12.2 5.2z" fill="#fff"/><path d="M408.217 399.576c-27.6-.4-49.8-23.2-49.4-51 .4-27 22-48.8 49-49.4 24.2 0 50.6 19.2 50.6 50.2-.2 27.8-22.6 50.2-50.2 50.2zm0-70.4c-11.2 0-20.2 9.2-20.2 20.4s9.2 20.2 20.4 20.2c5.4 0 10.4-2.2 14.2-6 8-8 7.8-20.8 0-28.8-3.8-3.8-9-5.8-14.4-5.8z" fill="#ee8559"/><g fill="#382512"><path d="M244.417 184.776l-79.6-61.2c-2.4-1.8-5.8-1.4-7.6 1-.8 1-1.2 2.2-1.2 3.4l-.2 25.2h-63.8c-3 0-5.4 2.4-5.4 5.4v61.2c0 3 2.4 5.4 5.4 5.4h63.8l-.4 24.8c-.2 3 2.2 5.6 5.2 5.8 1.2 0 2.6-.4 3.6-1l80.2-61.2c2.4-1.8 2.8-5.2 1-7.6-.4-.4-.8-.8-1-1.2zm-78 54.4l.4-19.4c0-3-2.4-5.4-5.4-5.4h-63.8v-50.4h63.8c3 0 5.4-2.4 5.4-5.4V138.976l65.2 50.2-65.6 50z"/><path d="M494.817 334.176v-50c0-.6 0-1-.2-1.6l-17.6-57.8c-.2-.8-.6-1.6-1.2-2.4l-79.6-96.2c-1-1.4-2.6-2.2-4.4-2.2h-74.2v-30c0-3-2.4-5.4-5.4-5.4h-291.4c-3 0-5.4 2.4-5.4 5.4v185.6c-9.2 2.2-15.8 10.4-15.4 20v34.4c0 11.6 9.4 20.8 20.8 20.8h24.8c3 31.4 31 54.2 62.2 51.2 27.2-2.6 48.6-24 51.2-51.2h192.4c3 31.4 31 54.2 62.2 51.2 27.2-2.6 48.6-24 51.2-51.2h9c5.6 0 10.8-2.2 14.8-6.2 4-3.6 6.2-9 6.2-14.4zm-468.4-234.6h280.6v179.2h-280.6v-179.2zm108.6 282.6c-18 18-47.2 18-65.2 0s-18-47.2 0-65.2 47.2-18 65.2 0c8.6 8.6 13.6 20.4 13.6 32.6 0 12.2-5 24-13.6 32.6zm305.8 0c-18 18-47.2 18-65.2 0s-18-47.2 0-65.2 47.2-18 65.2 0c8.6 8.6 13.6 20.4 13.6 32.6 0 12.2-5 24-13.6 32.6zm43.2-48c0 2.6-1 5.2-3 7-1.8 1.8-4.4 3-7 3h-9s-7.6-51.6-56.8-51.6c-39.6 0-55 33.8-56.8 51.6h-192.2s-6-51.6-56.8-51.6c-33.2 0-53.8 24.6-56.8 51.6h-24.8c-5.6 0-10-4.4-10-10v-34.6c.2-5.4 4.6-9.8 10-10h291.4c3 0 5.4-2.4 5.4-5.4v-149.2h71.8l77.4 93.6 17.2 56.4v49.2z"/><path d="M458.417 260.576l-7.2-27c-.2-.8-.6-1.6-1.2-2.4l-66-80c-1-1.2-2.6-2-4.2-2h-43.4c-3 0-5.4 2.4-5.4 5.4v107.2c0 3 2.4 5.4 5.4 5.4H453.217c3 0 5.4-2.4 5.4-5.4 0-.4 0-.8-.2-1.2zm-116.8-4v-96.4h35.4l63.8 77.4 5.2 19h-104.4zM425.417 332.376c-9.4-9.4-24.8-9.6-34.4 0-9.4 9.4-9.6 24.8 0 34.4 9.4 9.4 24.8 9.6 34.4 0 9.4-9.6 9.6-24.8 0-34.4zm-7.6 26.8c-5.2 5.2-13.8 5.2-19 0-5.2-5.2-5.2-13.8 0-19 5.2-5.2 13.8-5.2 19 0 2.6 2.6 4 6 4 9.6 0 3.4-1.6 6.8-4 9.4zM119.617 332.376c-9.4-9.4-24.8-9.6-34.4 0-9.4 9.4-9.6 24.8 0 34.4 9.4 9.4 24.8 9.6 34.4 0 9.4-9.6 9.6-24.8 0-34.4zm-7.6 26.8c-5.2 5.2-13.8 5.2-19 0-5.2-5.2-5.2-13.8 0-19 5.2-5.2 13.8-5.2 19 0 2.6 2.6 4 6 4 9.6 0 3.4-1.6 6.8-4 9.4z"/></g></svg>