<svg xmlns="http://www.w3.org/2000/svg" viewBox="0 0 259.244 259.244"><path d="M248.348 129.3h-15.849c-.089-64.023-51.668-115.906-115.297-115.906-31.841 0-60.661 12.998-81.534 33.996C14.017 68.549.25 97.092.036 129.3H0l.018.331-.018.402h.036c.393 63.853 51.758 115.816 115.19 115.816 31.841 0 60.661-13.007 81.534-34.049l-25.852-24.931c-14.178 14.303-34.058 23.027-55.682 23.135-44.401.206-79.201-36.49-79.201-80.122-.107-22.893 10.092-42.908 25.486-57.595 14.186-14.285 34.058-23.001 55.691-23.108 44.41-.206 79.201 36.445 79.201 79.997v.125h-15.661c-9.708 0-13.668 6.499-8.814 14.41l33.799 33.433c7.732 7.732 9.967 7.661 17.646 0l33.799-33.433c4.853-7.93.884-14.411-8.824-14.411z" fill="#3db39e"/></svg>