<?xml version="1.0" encoding="UTF-8" standalone="no"?>
<svg
   xmlns:dc="http://purl.org/dc/elements/1.1/"
   xmlns:cc="http://creativecommons.org/ns#"
   xmlns:rdf="http://www.w3.org/1999/02/22-rdf-syntax-ns#"
   xmlns:svg="http://www.w3.org/2000/svg"
   xmlns="http://www.w3.org/2000/svg"
   xml:space="preserve"
   style="enable-background:new 0 0 494.817 494.817;"
   viewBox="0 0 494.817 494.817"
   y="0px"
   x="0px"
   id="Capa_1"
   version="1.1"><metadata
     id="metadata65"><rdf:RDF><cc:Work
         rdf:about=""><dc:format>image/svg+xml</dc:format><dc:type
           rdf:resource="http://purl.org/dc/dcmitype/StillImage" /><dc:title></dc:title></cc:Work></rdf:RDF></metadata><defs
     id="defs63" /><path
     id="path3"
     d="m 392.19975,366.976 c 9.6,0 17.6,-7.8 17.6,-17.4 0,-9.6 -7.8,-17.6 -17.4,-17.6 -9.6,0 -17.6,7.8 -17.6,17.4 0,4.6 1.8,9.2 5.2,12.4 3.2,3.4 7.6,5.2 12.2,5.2 z"
     style="fill:#ffffff" /><path
     id="path5"
     d="m 392.39975,399.576 c 27.6,-0.4 49.8,-23.2 49.4,-51 -0.4,-27 -22,-48.8 -49,-49.4 -24.4,0 -50.6,19.2 -50.6,50.2 0.2,27.8 22.6,50.2 50.2,50.2 z m 0,-70.4 c 11.2,0 20.2,9.2 20.2,20.4 0,11.2 -9.2,20.2 -20.4,20.2 -5.4,0 -10.4,-2.2 -14.2,-6 -8,-8 -7.8,-20.8 0,-28.8 4,-3.8 9,-5.8 14.4,-5.8 l 0,0 z"
     style="fill:#ee8559" /><path
     id="path7"
     d="m 23.599753,348.176 3,0 c 1,0 2.2,0 3.2,0 l 3.6,0 0.8,-6 c 4.2,-29 31,-49.2 60,-45 14.799997,2.2 28.199997,10.4 36.399997,22.8 2.8,4 5,8.6 6.4,13.2 l 0.4,1.2 c 0.8,2.6 1.4,5.2 1.8,8 l 0.8,6 199.2,0 0.6,-5.8 4.6,-15.6 10.2,-14.6 c 9.8,-10 23.4,-15.8 37.6,-15.8 17.6,0.2 34.2,8.8 44,23.4 2.8,4 5,8.4 6.4,13.2 l 0.4,1.2 c 0.8,2.6 1.4,5.2 1.8,7.8 l 0.8,6 28.4,0 c 7.8,0 14,-6.2 14,-14 l 0,-34.6 c 0,-7.8 -6.2,-14 -14,-14 l -291.4,0 c -0.8,0 -1.4,-0.6 -1.4,-1.4 l 0,0 0,-153.2 -77.6,0 -79.199997,95.8 -17.5999999,57.8 0,53.8 0.6,0 c 0.6,2.2 1.8,4.2 3.5999999,5.8 3.6,3.6 8.2,4 12.6,4 z m 134.999997,-195 c 0.8,0 1.4,0.6 1.4,1.4 l 0,0 0,107.2 c 0,0.8 -0.6,1.4 -1.4,1.4 l 0,0 -116.999997,0 c -0.4,0 -0.8,-0.2 -1.2,-0.6 -0.2,-0.4 -0.4,-0.8 -0.2,-1.2 l 7.2,-27 c 0,-0.2 0.2,-0.4 0.4,-0.6 l 0.2,-0.2 65.999997,-80 c 0.2,-0.4 0.6,-0.6 1.2,-0.6 l 43.4,0.2 0,0 z"
     style="fill:#ffffff" /><path
     id="path9"
     d="m 472.59975,282.776 0,-187.2 -288.6,0 0,187.2 288.6,0 z m -70,-125.6 c 0.8,0 1.4,0.6 1.4,1.4 l 0,0 0,61.2 c 0,0.8 -0.6,1.4 -1.4,1.4 l 0,0 -67.8,0 0.6,29 c 0,0.4 0,1 -0.4,1.2 -0.2,0.2 -0.6,0.4 -1,0.4 -0.4,0 -0.6,-0.2 -0.8,-0.2 l -80.2,-61.2 c -0.4,-0.2 -0.6,-0.6 -0.6,-1.2 0,-0.4 0.2,-0.8 0.6,-1.2 l 79.4,-61.2 c 0.2,-0.2 0.6,-0.4 0.8,-0.4 0.8,0 1.4,0.6 1.4,1.4 l 0,0 0.2,29.2 67.8,0 0,0.2 z"
     style="fill:#ffc855" /><polygon
     transform="matrix(-1,0,0,1,494.81675,0)"
     id="polygon11"
     points="444.617,235.576 451.217,260.576 337.617,260.376 337.617,156.176 379.017,156.176 "
     style="fill:#80d1e4" /><path
     id="path13"
     d="m 331.99975,219.776 c 0,-0.4 0.2,-0.8 0.4,-1 0.2,-0.2 0.6,-0.4 1,-0.4 l 67.8,0 0,-58.4 -67.8,0 c -0.8,0 -1.4,-0.6 -1.4,-1.4 l 0,0 -0.2,-27.8 -75.8,58.4 76.4,58.4 -0.4,-27.8 z"
     style="fill:#8bc65a" /><path
     id="path15"
     d="m 86.399753,366.976 c 9.6,0 17.599997,-7.8 17.599997,-17.4 0,-9.6 -7.799997,-17.6 -17.399997,-17.6 -9.6,0 -17.6,7.8 -17.6,17.4 0,4.6 1.8,9.2 5.2,12.4 3.2,3.4 7.6,5.2 12.2,5.2 z"
     style="fill:#ffffff" /><path
     id="path17"
     d="m 86.599753,399.576 c 27.599997,-0.4 49.799997,-23.2 49.399997,-51 -0.4,-27 -22,-48.8 -48.999997,-49.4 -24.2,0 -50.6,19.2 -50.6,50.2 0.2,27.8 22.6,50.2 50.2,50.2 z m 0,-70.4 c 11.2,0 20.199997,9.2 20.199997,20.4 0,11.2 -9.199997,20.2 -20.399997,20.2 -5.4,0 -10.4,-2.2 -14.2,-6 -8,-8 -7.8,-20.8 0,-28.8 3.8,-3.8 9,-5.8 14.4,-5.8 l 0,0 z"
     style="fill:#ee8559" /><g
     transform="matrix(-1,0,0,1,494.81675,0)"
     id="g19"><path
       id="path21"
       d="m 244.417,184.776 -79.6,-61.2 0,0 c -2.4,-1.8 -5.8,-1.4 -7.6,1 -0.8,1 -1.2,2.2 -1.2,3.4 l -0.2,25.2 -63.8,0 c -3,0 -5.4,2.4 -5.4,5.4 l 0,0 0,61.2 c 0,3 2.4,5.4 5.4,5.4 l 0,0 63.8,0 -0.4,24.8 c -0.2,3 2.2,5.6 5.2,5.8 1.2,0 2.6,-0.4 3.6,-1 l 80.2,-61.2 0,0 c 2.4,-1.8 2.8,-5.2 1,-7.6 -0.4,-0.4 -0.8,-0.8 -1,-1.2 l 0,0 z m -78,54.4 0.4,-19.4 c 0,-3 -2.4,-5.4 -5.4,-5.4 l 0,0 -63.8,0 0,-50.4 63.8,0 c 3,0 5.4,-2.4 5.4,-5.4 l 0,0 c 0,-0.2 0,-0.4 0,-0.4 l 0,-19.2 65.2,50.2 -65.6,50 z"
       style="fill:#382512" /><path
       id="path23"
       d="m 494.817,334.176 0,-50 c 0,-0.6 0,-1 -0.2,-1.6 l -17.6,-57.8 c -0.2,-0.8 -0.6,-1.6 -1.2,-2.4 l -79.6,-96.2 c -1,-1.4 -2.6,-2.2 -4.4,-2.2 l -74.2,0 0,-30 c 0,-3 -2.4,-5.4 -5.4,-5.4 l 0,0 -291.4,0 c -3,0 -5.4,2.4 -5.4,5.4 l 0,185.6 c -9.2,2.2 -15.8,10.4 -15.4,20 l 0,34.4 c 0,11.6 9.4,20.8 20.8,20.8 l 24.8,0 c 3,31.4 31,54.2 62.2,51.2 27.2,-2.6 48.6,-24 51.2,-51.2 l 192.4,0 c 3,31.4 31,54.2 62.2,51.2 27.2,-2.6 48.6,-24 51.2,-51.2 l 9,0 c 5.6,0 10.8,-2.2 14.8,-6.2 l 0,0 c 4,-3.6 6.2,-9 6.2,-14.4 l 0,0 z m -468.4,-234.6 280.6,0 0,179.2 -280.6,0 0,-179.2 z m 108.6,282.6 c -18,18 -47.2,18 -65.2,0 -18,-18 -18,-47.2 0,-65.2 18,-18 47.2,-18 65.2,0 8.6,8.6 13.6,20.4 13.6,32.6 0,12.2 -5,24 -13.6,32.6 z m 305.8,0 c -18,18 -47.2,18 -65.2,0 -18,-18 -18,-47.2 0,-65.2 18,-18 47.2,-18 65.2,0 8.6,8.6 13.6,20.4 13.6,32.6 0,12.2 -5,24 -13.6,32.6 z m 43.2,-48 c 0,2.6 -1,5.2 -3,7 l 0,0 c -1.8,1.8 -4.4,3 -7,3 l -9,0 c 0,0 -7.6,-51.6 -56.8,-51.6 -39.6,0 -55,33.8 -56.8,51.6 l -192.2,0 c 0,0 -6,-51.6 -56.8,-51.6 -33.2,0 -53.8,24.6 -56.8,51.6 l -24.8,0 c -5.6,0 -10,-4.4 -10,-10 l 0,-34.6 c 0.2,-5.4 4.6,-9.8 10,-10 l 291.4,0 c 3,0 5.4,-2.4 5.4,-5.4 l 0,0 0,-149.2 71.8,0 77.4,93.6 17.2,56.4 0,49.2 0,0 z"
       style="fill:#382512" /><path
       id="path25"
       d="m 458.417,260.576 -7.2,-27 c -0.2,-0.8 -0.6,-1.6 -1.2,-2.4 l -66,-80 c -1,-1.2 -2.6,-2 -4.2,-2 l -43.4,0 c -3,0 -5.4,2.4 -5.4,5.4 l 0,0 0,107.2 c 0,3 2.4,5.4 5.4,5.4 l 0,0 0.4,0 116.4,0 c 3,0 5.4,-2.4 5.4,-5.4 0,-0.4 0,-0.8 -0.2,-1.2 l 0,0 z m -116.8,-4 0,-96.4 35.4,0 63.8,77.4 5.2,19 -104.4,0 z"
       style="fill:#382512" /><path
       id="path27"
       d="m 425.417,332.376 c -9.4,-9.4 -24.8,-9.6 -34.4,0 l 0,0 0,0 c -9.4,9.4 -9.6,24.8 0,34.4 l 0,0 0,0 c 9.4,9.4 24.8,9.6 34.4,0 l 0,0 0,0 c 9.4,-9.6 9.6,-24.8 0,-34.4 l 0,0 z m -7.6,26.8 c -5.2,5.2 -13.8,5.2 -19,0 -5.2,-5.2 -5.2,-13.8 0,-19 5.2,-5.2 13.8,-5.2 19,0 2.6,2.6 4,6 4,9.6 0,3.4 -1.6,6.8 -4,9.4 z"
       style="fill:#382512" /><path
       id="path29"
       d="m 119.617,332.376 c -9.4,-9.4 -24.8,-9.6 -34.4,0 l 0,0 0,0 c -9.4,9.4 -9.6,24.8 0,34.4 l 0,0 0,0 c 9.4,9.4 24.8,9.6 34.4,0 l 0,0 0,0 c 9.4,-9.6 9.6,-24.8 0,-34.4 l 0,0 z m -7.6,26.8 c -5.2,5.2 -13.8,5.2 -19,0 -5.2,-5.2 -5.2,-13.8 0,-19 5.2,-5.2 13.8,-5.2 19,0 2.6,2.6 4,6 4,9.6 0,3.4 -1.6,6.8 -4,9.4 l 0,0 z"
       style="fill:#382512" /></g><g
     id="g31" /><g
     id="g33" /><g
     id="g35" /><g
     id="g37" /><g
     id="g39" /><g
     id="g41" /><g
     id="g43" /><g
     id="g45" /><g
     id="g47" /><g
     id="g49" /><g
     id="g51" /><g
     id="g53" /><g
     id="g55" /><g
     id="g57" /><g
     id="g59" /></svg>