<svg xmlns="http://www.w3.org/2000/svg" viewBox="0 0 491.52 491.52"><path d="M425.261 12.49c0-6.898-5.357-12.49-11.966-12.49H21.33C14.721 0 9.363 5.592 9.363 12.49v271.3h415.898V12.49z" fill="#64798a"/><path fill="#44c4a1" d="M33.091 24.765h368.445V259.02H33.091z"/><path d="M9.363 283.79v46.03c0 6.898 5.358 12.49 11.967 12.49h391.965c6.61 0 11.966-5.592 11.966-12.49v-46.03H9.363z" fill="#ebf0f3"/><ellipse cx="217.293" cy="313.037" rx="16.246" ry="16.957" fill="#64798a"/><path fill="#e1e6e9" d="M157.993 342.313h118.63v53.468h-118.63z"/><path fill="#d5d6db" d="M276.631 395.776l-118.638-53.465h118.638z"/><path fill="#ebf0f3" d="M276.631 395.776H157.993l-15.219 20.122H291.85z"/><path fill="#3a556a" d="M425.261 174.587h-23.725v84.436H274.021v24.766h151.24z"/><path d="M274.021 209.428v49.595h127.515v-84.436H308.87c-19.214 0-34.849 15.627-34.849 34.841z" fill="#3ea69b"/><path d="M465.142 202.91H308.865c-9.397 0-17.015 7.617-17.015 17.014v254.582c0 9.396 7.618 17.014 17.015 17.014h156.277c9.397 0 17.015-7.618 17.015-17.014V219.924c0-9.397-7.618-17.014-17.015-17.014z" fill="#3a556a"/><path d="M465.142 192.415H308.865c-9.397 0-17.015 7.618-17.015 17.014v254.582c0 9.396 7.618 17.014 17.015 17.014h156.277c9.397 0 17.015-7.618 17.015-17.014V209.429c0-9.396-7.618-17.014-17.015-17.014z" fill="#64798a"/><path fill="#fcd462" d="M312.832 213.407h148.321v225.997H312.832z"/><path fill="#f6c358" d="M312.832 427.059h148.321v12.339H312.832z"/><circle cx="387.021" cy="459.418" r="15.621" fill="#3a556a"/></svg>