<?xml version="1.0" encoding="iso-8859-1"?>
<!-- Generator: Adobe Illustrator 19.0.0, SVG Export Plug-In . SVG Version: 6.00 Build 0)  -->
<svg version="1.1" id="Layer_1" xmlns="http://www.w3.org/2000/svg" xmlns:xlink="http://www.w3.org/1999/xlink" x="0px" y="0px"
	 viewBox="0 0 491.52 491.52" style="enable-background:new 0 0 491.52 491.52;" xml:space="preserve">
<path style="fill:#64798A;" d="M425.261,12.49c0-6.898-5.357-12.49-11.966-12.49H21.33C14.721,0,9.363,5.592,9.363,12.49v271.3
	h415.898V12.49z"/>
<rect x="33.091" y="24.765" style="fill:#44C4A1;" width="368.445" height="234.255"/>
<path style="fill:#EBF0F3;" d="M9.363,283.79v46.03c0,6.898,5.358,12.49,11.967,12.49h391.965c6.61,0,11.966-5.592,11.966-12.49
	v-46.03H9.363z"/>
<ellipse style="fill:#64798A;" cx="217.293" cy="313.037" rx="16.246" ry="16.957"/>
<rect x="157.993" y="342.313" style="fill:#E1E6E9;" width="118.63" height="53.468"/>
<polygon style="fill:#D5D6DB;" points="276.631,395.776 157.993,342.311 276.631,342.311 "/>
<polygon style="fill:#EBF0F3;" points="276.631,395.776 157.993,395.776 142.774,415.898 291.85,415.898 "/>
<polygon style="fill:#3A556A;" points="425.261,174.587 401.536,174.587 401.536,259.023 274.021,259.023 274.021,283.789 
	425.261,283.789 "/>
<path style="fill:#3EA69B;" d="M274.021,209.428v49.595h127.515v-84.436H308.87C289.656,174.587,274.021,190.214,274.021,209.428z"
	/>
<path style="fill:#3A556A;" d="M465.142,202.91H308.865c-9.397,0-17.015,7.617-17.015,17.014v254.582
	c0,9.396,7.618,17.014,17.015,17.014h156.277c9.397,0,17.015-7.618,17.015-17.014V219.924
	C482.157,210.527,474.539,202.91,465.142,202.91z"/>
<path style="fill:#64798A;" d="M465.142,192.415H308.865c-9.397,0-17.015,7.618-17.015,17.014v254.582
	c0,9.396,7.618,17.014,17.015,17.014h156.277c9.397,0,17.015-7.618,17.015-17.014V209.429
	C482.157,200.033,474.539,192.415,465.142,192.415z"/>
<rect x="312.832" y="213.407" style="fill:#FCD462;" width="148.321" height="225.997"/>
<rect x="312.832" y="427.059" style="fill:#F6C358;" width="148.321" height="12.339"/>
<circle style="fill:#3A556A;" cx="387.021" cy="459.418" r="15.621"/>
<g>
</g>
<g>
</g>
<g>
</g>
<g>
</g>
<g>
</g>
<g>
</g>
<g>
</g>
<g>
</g>
<g>
</g>
<g>
</g>
<g>
</g>
<g>
</g>
<g>
</g>
<g>
</g>
<g>
</g>
</svg>
