<?xml version="1.0" encoding="iso-8859-1"?>
<!-- Generator: Adobe Illustrator 19.0.0, SVG Export Plug-In . SVG Version: 6.00 Build 0)  -->
<svg version="1.1" id="Layer_1" xmlns="http://www.w3.org/2000/svg" xmlns:xlink="http://www.w3.org/1999/xlink" x="0px" y="0px"
	 viewBox="0 0 297 297" style="enable-background:new 0 0 297 297;" xml:space="preserve">
<g>
	<path style="fill:#AEBAAE;" d="M294.796,86.865L252.702,44.77L210.135,2.204c-2.94-2.938-7.704-2.938-10.643,0l-64.403,64.404
		c-6.833,6.833-10.595,15.916-10.595,25.578s3.763,18.746,10.594,25.578l16.752,16.752l-52.933,52.933
		c-2.939,2.94-2.939,7.704,0,10.643c0.08,0.08,0.166,0.149,0.249,0.225c1.435,1.313,3.252,1.979,5.073,1.979
		c1.925,0,3.852-0.735,5.322-2.204l52.933-52.933l16.752,16.752c6.833,6.833,15.916,10.595,25.578,10.595
		s18.746-3.763,25.578-10.594l64.404-64.404C297.735,94.569,297.735,89.805,294.796,86.865z M157.161,86.865l42.331-42.33
		c2.941-2.939,7.705-2.937,10.643,0c2.939,2.94,2.939,7.704,0,10.643l-42.331,42.33c-1.47,1.469-3.396,2.204-5.322,2.204
		c-1.926,0-3.852-0.735-5.322-2.204C154.222,94.569,154.222,89.805,157.161,86.865z M183.648,120.877
		c-1.821,0-3.637-0.666-5.073-1.979c-0.083-0.076-0.169-0.145-0.249-0.225c-2.939-2.94-2.939-7.704,0-10.643l42.33-42.33
		c2.94-2.938,7.704-2.938,10.643,0c0.08,0.08,0.149,0.166,0.225,0.249c2.703,2.954,2.634,7.535-0.225,10.395l-42.33,42.33
		C187.5,120.143,185.574,120.877,183.648,120.877z M252.465,97.509l-42.33,42.331c-1.47,1.469-3.396,2.204-5.322,2.204
		c-1.925,0-3.852-0.735-5.322-2.204c-2.939-2.94-2.939-7.704,0-10.643l42.33-42.331c2.94-2.938,7.704-2.938,10.643,0
		C255.404,89.805,255.404,94.569,252.465,97.509z"/>
	<g>
		<path style="fill:#8C9496;" d="M162.976,134.023c-2.94-2.938-7.704-2.938-10.643,0l-53.426,53.426
			c-2.939,2.94-2.939,7.704,0,10.643c0.08,0.08,0.166,0.149,0.249,0.225l64.045-64.045
			C163.125,134.191,163.056,134.104,162.976,134.023z"/>
		<path style="fill:#6F7677;" d="M163.201,134.273l-64.045,64.045c1.435,1.313,3.252,1.979,5.073,1.979
			c1.925,0,3.852-0.735,5.322-2.204l53.426-53.426C165.835,141.808,165.904,137.227,163.201,134.273z"/>
	</g>
	<path style="fill:#919B91;" d="M294.796,86.865L252.702,44.77l-21.177,21.177c2.703,2.954,2.634,7.535-0.225,10.395l-42.33,42.33
		c-1.47,1.469-3.396,2.204-5.322,2.204c-1.821,0-3.637-0.666-5.073-1.979l-21.177,21.177l21.837,21.836
		c6.833,6.833,15.916,10.595,25.578,10.595s18.746-3.763,25.578-10.594l64.404-64.404C297.735,94.569,297.735,89.805,294.796,86.865
		z M204.813,142.043c-1.925,0-3.852-0.735-5.322-2.204c-2.939-2.94-2.939-7.704,0-10.643l42.33-42.331
		c2.94-2.938,7.704-2.938,10.643,0c2.939,2.94,2.939,7.704,0,10.643l-42.33,42.331C208.665,141.309,206.739,142.043,204.813,142.043
		z"/>
	<path style="fill:#AEBAAE;" d="M178.327,118.674c-2.939-2.94-2.939-7.704,0-10.643l42.33-42.33c2.94-2.938,7.704-2.938,10.643,0
		c0.08,0.08,0.149,0.166,0.225,0.249l21.177-21.177L210.135,2.204c-2.94-2.938-7.704-2.938-10.643,0l-64.403,64.404
		c-6.833,6.833-10.595,15.916-10.595,25.578s3.763,18.746,10.594,25.578l22.311,22.31l21.177-21.177
		C178.493,118.823,178.407,118.754,178.327,118.674z M167.804,97.509c-1.47,1.469-3.396,2.204-5.322,2.204
		c-1.926,0-3.852-0.735-5.322-2.204c-2.939-2.94-2.939-7.704,0-10.643l42.331-42.33c2.941-2.939,7.705-2.937,10.643,0
		c2.939,2.94,2.939,7.704,0,10.643L167.804,97.509z"/>
	<path style="fill:#5F2904;" d="M108.542,193.719l-2.394-2.393l-2.867-2.867c-8.486-8.486-22.294-8.483-30.781,0L6.375,254.585
		C2.264,258.695,0,264.161,0,269.974c0,5.815,2.264,11.28,6.375,15.392l2.866,2.866l2.393,2.393
		c4.112,4.111,9.577,6.375,15.392,6.375c5.813,0,11.279-2.264,15.391-6.375l66.126-66.126
		C117.027,216.012,117.027,202.206,108.542,193.719z"/>
	<path style="fill:#7F3705;" d="M103.281,188.458c-8.486-8.486-22.294-8.483-30.781,0L6.375,254.585
		C2.264,258.695,0,264.161,0,269.975s2.264,11.28,6.375,15.392l2.866,2.866l96.908-96.908L103.281,188.458z"/>
	<path style="fill:#5F2904;" d="M108.542,193.719l-2.394-2.393L9.241,288.232l2.393,2.393c4.111,4.111,9.577,6.375,15.392,6.375
		c5.814,0,11.279-2.264,15.391-6.375l66.126-66.126C117.027,216.014,117.027,202.206,108.542,193.719z"/>
</g>
<g>
</g>
<g>
</g>
<g>
</g>
<g>
</g>
<g>
</g>
<g>
</g>
<g>
</g>
<g>
</g>
<g>
</g>
<g>
</g>
<g>
</g>
<g>
</g>
<g>
</g>
<g>
</g>
<g>
</g>
</svg>
