<svg xmlns="http://www.w3.org/2000/svg" viewBox="0 0 297 297">
  <path d="M294.796 86.865L252.702 44.77 210.135 2.204a7.528 7.528 0 0 0-10.643 0l-64.403 64.404c-6.833 6.833-10.595 15.916-10.595 25.578s3.763 18.746 10.594 25.578l16.752 16.752-52.933 52.933a7.526 7.526 0 0 0 0 10.643c.08.08.166.149.249.225a7.508 7.508 0 0 0 10.395-.225l52.933-52.933 16.752 16.752c6.833 6.833 15.916 10.595 25.578 10.595s18.746-3.763 25.578-10.594l64.404-64.404a7.526 7.526 0 0 0 0-10.643zm-137.635 0l42.331-42.33a7.526 7.526 0 1 1 10.643 10.643l-42.331 42.33a7.506 7.506 0 0 1-5.322 2.204 7.527 7.527 0 0 1-5.321-12.847zm26.487 34.012a7.505 7.505 0 0 1-5.073-1.979c-.083-.076-.169-.145-.249-.225a7.526 7.526 0 0 1 0-10.643l42.33-42.33a7.528 7.528 0 0 1 10.643 0c.08.08.149.166.225.249 2.703 2.954 2.634 7.535-.225 10.395l-42.33 42.33a7.501 7.501 0 0 1-5.321 2.203zm68.817-23.368l-42.33 42.331a7.506 7.506 0 0 1-5.322 2.204 7.526 7.526 0 0 1-5.322-12.847l42.33-42.331a7.528 7.528 0 0 1 10.643 0 7.525 7.525 0 0 1 .001 10.643z" fill="#aebaae"/>
  <path d="M162.976 134.023a7.528 7.528 0 0 0-10.643 0l-53.426 53.426a7.526 7.526 0 0 0 0 10.643c.08.08.166.149.249.225l64.045-64.045c-.076-.081-.145-.168-.225-.249z" fill="#8c9496"/>
  <path d="M163.201 134.273l-64.045 64.045a7.508 7.508 0 0 0 10.395-.225l53.426-53.426c2.858-2.859 2.927-7.44.224-10.394z" fill="#6f7677"/>
  <path d="M294.796 86.865L252.702 44.77l-21.177 21.177c2.703 2.954 2.634 7.535-.225 10.395l-42.33 42.33a7.506 7.506 0 0 1-10.395.225l-21.177 21.177 21.837 21.836c6.833 6.833 15.916 10.595 25.578 10.595s18.746-3.763 25.578-10.594l64.404-64.404a7.524 7.524 0 0 0 .001-10.642zm-89.983 55.178a7.526 7.526 0 0 1-5.322-12.847l42.33-42.331a7.526 7.526 0 1 1 10.643 10.643l-42.33 42.331a7.498 7.498 0 0 1-5.321 2.204z" fill="#919b91"/>
  <path d="M178.327 118.674a7.526 7.526 0 0 1 0-10.643l42.33-42.33a7.528 7.528 0 0 1 10.643 0c.08.08.149.166.225.249l21.177-21.177-42.567-42.569a7.528 7.528 0 0 0-10.643 0l-64.403 64.404c-6.833 6.833-10.595 15.916-10.595 25.578s3.763 18.746 10.594 25.578l22.311 22.31 21.177-21.177c-.083-.074-.169-.143-.249-.223zm-10.523-21.165a7.506 7.506 0 0 1-5.322 2.204 7.526 7.526 0 0 1-5.322-12.847l42.331-42.33a7.526 7.526 0 1 1 10.643 10.643l-42.33 42.33z" fill="#aebaae"/>
  <path d="M108.542 193.719l-2.394-2.393-2.867-2.867c-8.486-8.486-22.294-8.483-30.781 0L6.375 254.585A21.619 21.619 0 0 0 0 269.974c0 5.815 2.264 11.28 6.375 15.392l2.866 2.866 2.393 2.393A21.626 21.626 0 0 0 27.026 297a21.627 21.627 0 0 0 15.391-6.375l66.126-66.126c8.484-8.487 8.484-22.293-.001-30.78z" fill="#5f2904"/>
  <path d="M103.281 188.458c-8.486-8.486-22.294-8.483-30.781 0L6.375 254.585C2.264 258.695 0 264.161 0 269.975s2.264 11.28 6.375 15.392l2.866 2.866 96.908-96.908-2.868-2.867z" fill="#7f3705"/>
  <path d="M108.542 193.719l-2.394-2.393-96.907 96.906 2.393 2.393A21.624 21.624 0 0 0 27.026 297a21.625 21.625 0 0 0 15.391-6.375l66.126-66.126c8.484-8.485 8.484-22.293-.001-30.78z" fill="#5f2904"/>
</svg>
