<svg xmlns="http://www.w3.org/2000/svg" viewBox="0 0 509.287 509.287">
  <circle cx="254.644" cy="254.644" r="254.644" fill="#fbd303"/>
  <path d="M426.215 354.331v-27.126c0-25.77-22.04-46.792-49.166-46.792H132.238c-27.126 0-49.166 21.022-49.166 46.792v27.126h343.143z" fill="#74594e"/>
  <path d="M304.487 322.119c-22.379 37.976-77.648 37.976-100.026 0v-65.441h100.026v65.441z" fill="#f0ba7a"/>
  <path d="M438.082 359.417c-3.052-12.885-13.224-23.057-26.787-27.465l-93.584-28.143-23.057 21.362-80.36.339-25.77-21.701-90.532 28.143c-13.563 4.408-23.396 14.919-26.787 27.465l-13.902 55.947c46.453 57.303 117.658 93.923 197.34 93.923s150.887-36.62 197.679-93.923l-14.24-55.947z" fill="#f1f3f7"/>
  <circle cx="253.287" cy="139.359" r="125.457" fill="#393d47"/>
  <path d="M298.045 91.211c-35.603 74.257-121.049 65.102-146.819 60.355v38.993c0 56.286 45.775 102.061 102.061 102.061s102.061-45.775 102.061-102.061v-46.453c-47.131-3.73-57.303-52.895-57.303-52.895z" fill="#f7cfa2"/>
  <g fill="#886c60">
    <path d="M116.98 468.599c11.528 7.46 24.074 14.241 36.959 19.666V311.947H116.98v156.652zM355.687 488.265c12.885-5.425 25.091-12.207 36.959-19.666V311.947h-36.959v176.318z"/>
  </g>
  <path d="M263.46 325.849h-17.971l-24.074 28.821 19.666 28.482-18.988 124.101c10.511 1.356 21.362 2.034 32.551 2.034s22.04-.678 32.551-2.034l-19.327-124.101 19.666-28.482-24.074-28.821z" fill="#4b5aa7"/>
  <g fill="#fcfcfd">
    <path d="M204.8 284.143l48.487 41.706-38.993 57.303-25.77-79.343zM303.131 284.143l-48.487 41.706 38.993 57.303 25.77-79.343z"/>
  </g>
</svg>
