<?xml version="1.0" encoding="iso-8859-1"?>
<!-- Generator: Adobe Illustrator 19.0.0, SVG Export Plug-In . SVG Version: 6.00 Build 0)  -->
<svg version="1.1" id="Layer_1" xmlns="http://www.w3.org/2000/svg" xmlns:xlink="http://www.w3.org/1999/xlink" x="0px" y="0px"
	 viewBox="0 0 512 512" style="enable-background:new 0 0 512 512;" xml:space="preserve">
<path style="fill:#FFC94E;" d="M412.894,48.381c-16.322,8.117-23.356,25.626-20.221,43.151c1.817,10.16,6.914,16.711,16.265,20.821
	c8.628,3.793,20.449,7.433,29.847,4.837c8.835-2.441,16.656-9.186,18.898-18.315c1.335-5.439,2.607-11.151,2.564-16.757
	c-0.023-2.926-0.776-5.684-1.41-8.523c-0.649-2.908-0.511-6.347-2.01-8.983c-1.117-1.965-2.564-3.913-3.804-5.817
	c-2.662-4.086-6.391-7.39-10.694-9.668c-8.155-4.316-18.368-5.11-27.016-1.802C414.488,47.638,413.681,47.989,412.894,48.381z"/>
<g>
	<path style="fill:#7CC366;" d="M187.004,369.139c-3.155-9.327-9.051-24.439-20.504-25.85c-19.103-2.353-21.356,18.385-21.64,32.95
		c0.669-4.765-4.165-10.007-7.972-5.451c-5.095,6.098-1.616,16.392-1.9,23.448c-0.474,11.77-17.856-0.708-25.438,2.604
		c-6.205,2.711-6.995,19.206-11.002,18.564c-2.322-0.372-5.309-4.4-8.067-4.99c-4.946-1.057-6.409,3.292-7.889,7.241
		c-1.291,3.446-1.625,8.022-5.724,5.596c-3.545-2.098-4.042-7.037-8.499-8.376c-3.497-1.05-7.744,0.421-10.033,3.16
		c-2.133,2.551-2.911,6.301-3.668,9.499c-0.41,1.736-0.401,7.928-2.062,8.89c-2.211,1.281-4.655-2.293-7.727-0.494
		c-5.031,2.946-6.479,13.723-7.383,18.661c-0.579,3.159-1.195,12.018-4.624,13.239c-3.977,1.416-5.971-2.756-9.527,1.908
		c-1.797,2.358-1.486,7.885-3.949,9.354c-0.97,0.579-4.337-0.2-5.716,0.134c-2.537,0.617-5.015,2.038-6.947,3.809
		c-4.332,3.969-3.021,8.867,2.502,11.053c4.721,1.869,11.8,1.205,16.85,1.597c4.934,0.384,9.78-0.122,14.723-0.11
		c25.871,0.064,51.591,0.189,77.45,1.185c25.35,0.977,50.679,0.164,75.991,1.178c49.276,1.973,98.72-0.085,148.027-0.085
		c7.774,0,15.555,0.098,23.322,0.366c9.084,0.313,17.877-0.891,26.969-1.144c15.699-0.435,31.046-0.727,46.644-3.095
		c14.737-2.237,29.213-5.855,43.953-7.981c6.729-0.97,16.572-2.169,20.458-8.453c2.426-3.923,3.52-9.969,1.752-14.295
		c-2.499-6.113-8.052-5.421-12.206-9.33c-3.636-3.422-2.368-9.888-6.843-13.057c-6.474-4.585-14.541,1.56-21.288,0.778
		c-0.323-2.559,1.297-5.632,1.412-8.433c0.131-3.171,0.863-8.207-0.023-11.259c-2.144-7.382-9.452-3.379-14.854-2.96
		c-3.242,0.252-1.821,1.297-3.067-1.656c-1.45-3.438-1.805-9.225-2.488-13.06c-0.89-5.003-0.795-13.707-6.891-15.753
		c-8.334-2.796-9.774,11.28-15.312,13.525c-6.831,2.769-5.685-9.07-5.76-12.16c-0.235-9.596-8.842-1.63-11.709,2.602
		c-1.476,2.179-2.543,5.958-5.711,6.032c-3.007,0.069-3.776-3.046-5.554-4.992c-3.268-3.577-5.369-2.534-9.684-0.495
		c-2.934,1.386-9.691,5.99-9.996,0.3c-0.214-3.99,5.725-8.36,1.429-12.076c-3.684-3.186-7.658,2.731-11.189,1.607
		c1.701-3.88,5.446-6.538,7.373-10.308c1.305-2.553,2.071-5.721,2.703-8.534c0.83-3.698,1.773-8.732-0.069-12.267
		c-6.809-13.058-22.798,4.908-28.784,9.723c2.145-3.809,4.938-11.167,1.603-15.135c-2.124-2.523-6.299-1.676-9.027-0.517
		c-6.4,2.719-12.485,10.261-16.484,15.678c-1.664,2.254-4.841,6.156-4.377,9.237c0.303,2.014,2.02,3.613,3.092,5.335
		c1.988,3.19,3.769,6.784,5.334,10.203c2.686,5.865,5.234,11.586,8.273,17.274c8.16,15.278,20.37,32.472,22.744,49.882
		c1.353,9.923-1.445,13.791-11.189,15.097c-8.313,1.114-12.562-0.582-17.893-7.335c-5.595-7.088-8.163-15.979-12.849-23.626
		c-3.204-5.229-3.808-12.712-10.443-13.569c-9.241-1.195-20.6,1.42-29.996,1.903c-11.559,0.593-23.065-0.894-34.627-0.956
		c-18.802-0.101-37.595,2.137-56.304,3.025c-9.165,0.435-8.694,5.425-12.92,12.861c-3.776,6.644-9.398,12.575-14.144,18.559
		c-2.906,3.663-5.473,8.249-8.782,11.546c-7.213,7.187-13.78-0.316-14.643-8.379c-1.114-10.389,6.414-20.877,11.774-29.061
		C159.528,412.85,172.754,392.001,187.004,369.139z"/>
	<path style="fill:#7CC366;" d="M198.394,400.652c2.082-6.472,8.12-12.019,12.076-17.392c2.095-2.844,4.752-8.473,8.047-10.138
		c5.132-2.595,5.79,6.376,7.309,10.035c2.49-3.303,6.691-8.882,11.481-8.673c3.916,0.171,7.118,4.372,7.463,7.914
		c5.323-3.561,11.126-16.01,18.064-6.792c1.781,2.368,2.363,5.95,5.588,4.582c3.668-1.556,3.722-7.994,7.424-9.832
		c9.784-4.861,14.827,10.459,17.085,17.104c0.958,2.817,4.347,10.001,1.859,12.546c-1.361,1.393-7.627,0.983-9.314,1.025
		c-6.275,0.156-12.489-0.306-18.744-0.387c-14.689-0.189-29.293-0.372-43.974-0.371C215.712,400.274,205.79,401.906,198.394,400.652
		z"/>
</g>
<g>
	<path style="fill:#A8A6A2;" d="M208.266,342.941c-7.556,6.18-11.971,15.91-17.631,23.714
		c-8.886,12.252-17.453,24.785-26.898,36.657c-11.911,14.972-34.693,40.35-29.231,62.006c2.08,8.243,10.257,10.264,16.45,5
		c10.103-8.586,16.714-22.433,23.697-33.42c14.83-23.333,29.419-46.484,46.704-68.085c3.028-3.783,19.456-18.942,10.086-22.374
		c-4.074-1.492-9.644-1.223-13.991-2.079C214.125,343.71,210.897,342.71,208.266,342.941z"/>
	<path style="fill:#A8A6A2;" d="M275.468,349.396c0.331,3.319,3.528,7.642,5.316,10.482c3.013,4.788,5.982,9.585,8.436,14.737
		c5.295,11.118,9.116,22.95,14.474,34.096c5.496,11.431,10.626,23.145,16.386,34.4c4.366,8.53,9.169,20.041,18.219,24.557
		c7.002,3.493,11.822,2.712,17.392-2.657c7.549-7.277,2.422-15.64-1.628-23.553c-10.415-20.352-17.359-42.54-29.059-62.276
		c-4.334-7.313-9.044-14.157-13.047-21.681c-2.424-4.555-3.487-10.951-9.133-11.908c-5.627-0.954-12.771,0.652-18.335,1.539
		C279.695,347.893,276.124,348.209,275.468,349.396z"/>
</g>
<g>
	<path style="fill:#777673;" d="M198.394,400.273c-3.177,4.632-7.374,8.481-10.472,13.215c-1.434,2.191-5.667,6.973-5.839,9.769
		c-0.257,4.193,5.107,4.634,8.203,4.648c8.354,0.038,16.803-1.464,25.188-1.444c12.762,0.028,25.455-0.773,38.236-0.748
		c13.344,0.025,26.657-1.034,39.98-0.4c3.876,0.185,13.03,2.748,15.206-1.31c2.383-4.446-4.124-12.624-6.007-16.24
		c-3.661-7.027-6.549-8.266-14.949-7.836c-19.751,1.01-39.824,0.787-59.65,0.351C219.83,400.091,206.58,397.358,198.394,400.273z"/>
	<path style="fill:#777673;" d="M130.812,200.184c-8.514,25.83-3.267,53.175,5.342,78.167c4.869,14.135,9.163,26.911,19.212,38.256
		c8.209,9.269,17.846,15.135,29.362,19.404c20.546,7.617,42.412,10.334,64.204,11.505c22.198,1.193,42.347-0.629,63.235-8.375
		c11.913-4.418,26.334-11.475,35.626-20.303c9.649-9.167,18.874-20.514,26.192-31.598c13.626-20.637,17.299-46.626,16.901-71.033
		c-0.082-5.052-0.811-14.87-7.85-13.39c-4.476,0.941-10.095,5.515-14.251,7.53c-5.288,2.564-10.782,4.965-16.383,6.626
		c-30.053,8.911-59.685,12.786-91.009,12.824c-30.358,0.038-62.251-2.907-91.524-11.39c-8.741-2.533-19.351-6.236-26.346-12.15
		C141.77,204.778,130.824,194.695,130.812,200.184z"/>
</g>
<path style="fill:#EC9B5E;" d="M266.735,265.488c-7.374-2.207-19.318,0.371-26.786,1.813c-4.635,0.895-12.108,1.542-14.882,5.779
	c-2.531,3.864-2.753,9.919-0.779,14.141c3.428,7.336,11.983,5.769,18.805,5.677c19.464-0.263,39.097,2.086,58.391-1.13
	c10.374-1.729,14.897-8.912,11.675-19.562c-2.303-7.613-10.392-8.609-17.359-8.712C285.379,263.342,274.415,264.128,266.735,265.488
	z"/>
<g>
	<path style="fill:#88524C;" d="M325.964,268.905c-6.868,0-17.531,0.384-13.297,10.546c1.818,4.365,5.947,4.009,10.084,3.894
		c4.533-0.126,6.442-1.523,7.39-6.005c1.034-4.894-1.622-9.117-7.213-6.917"/>
	<path style="fill:#88524C;" d="M220.416,275.739c-3.222-1.015-9.716-0.42-11.703,2.657c-2.641,4.09-1.994,8.956,2.972,9.88
		c3.246,0.604,8.579,0.158,10.556-2.655C224.446,282.482,223.39,277.496,220.416,275.739z"/>
</g>
<path style="fill:#E66C73;" d="M180.929,167.912c-5.701,2.701-12.932,7.024-14.902,13.365c-1.887,6.077-1.658,18.505,4.073,22.513
	c7.781,5.441,22.05,4.372,30.98,4.001c11.201-0.464,20.362-2.468,31.292,0.977c7.782,2.452,14.601,4.364,22.772,3.612
	c10.29-0.948,25.85-2.115,33.722-9.718c5.747-5.55,6.885-18.445,5.203-25.721c-2.045-8.845-11.717-10.757-18.53-15.314
	c-4.5-3.01-6.695-6.956-10.507-10.433c-5.504-5.02-16.576-3.078-23.291-3.032C218.766,148.316,201.692,161.388,180.929,167.912z"/>
<path style="fill:#FAC1B7;" d="M237.121,162.596c-4.761,1.398-12.741,3.628-14.046,9.502c-1.463,6.579,6.404,7.032,10.924,7.203
	c5.77,0.219,31.803-1.802,25.142-13.667C255.711,159.524,240.565,162.874,237.121,162.596z"/>
<path style="fill:#7CC366;" d="M291.035,153.863c-4.336,0.574-10.861,5.086-7.987,10.076c2.209,3.835,8.512,4.123,11.582,6.999
	c5.988,5.611-1.332,15.539,1.427,22.325c5.237,12.888,49.958-8.515,23.812-21.174c-4.942-2.393-5.397-3.039-6.805-8.333
	C310.7,154.863,300.182,152.942,291.035,153.863z"/>
<path style="fill:#FFD274;" d="M342.069,167.416c-3.931,0.945-2.987,2.523-5.3,5.12c-1.375,1.545-4.006,2.247-5.868,3.063
	c-4.698,2.057-5.368,8.922-0.76,11.287c1.992,1.022,4.096,0.942,5.981,2.384c1.612,1.232,2.212,3.135,3.587,4.46
	c7.223,6.966,14.305-2.761,15.869-9.577c1.134-4.946-1.591-14.067-6.41-16.507c-2.062-1.043-4.711-0.77-6.889-0.28
	C342.207,167.382,342.137,167.4,342.069,167.416z"/>
<path style="fill:#EC838E;" d="M313.816,195.628c-7.628,0.514-4.122,10.233-0.304,13.267c4.503,3.579,13.394,4.127,18.531,2.012
	c12.641-5.205,13.414-22.294-1.901-22.873c-3.916-0.148-5.314,0.698-8.068,3.324C318.407,194.85,315.468,196.126,313.816,195.628z"
	/>
<path style="fill:#FAAD60;" d="M312.296,158.8c2.654,1.632,0.939,5.355,1.521,7.896c0.732,3.206,0.978,2.493,3.987,3.837
	c4.351,1.944,5.88,6.328,11.2,5.373c5.549-0.997,8.381-4.556,8.816-10.167c0.443-5.711-2.742-8.186-8.247-9.644
	C324.157,154.662,316.978,154.699,312.296,158.8z"/>
<path style="fill:#D1D3D4;" d="M164.223,182.339c-2.794,12.779,4.668,23.65,17.197,26.961c14.191,3.751,28.457-6.783,42.885-2.967
	c6.294,1.665,11.321,4.862,18.035,5.601c7.486,0.824,15.365,0.752,22.783-0.693c7.436-1.448,16.099-4.111,22.081-8.979
	c5.25-4.272,5.258-8.101,12.276-6.256c5.193,1.366,5.942,1.247,8.165,5.876c2.155,4.489,6.151,7.319,11.094,8.479
	c4.247,0.995,11.705,1.556,15.377-1.237c3.825-2.909,5.057-8.412,8.36-11.222c2.123-1.805,5.326-2.398,7.596-4.399
	c2.598-2.291,3.528-3.714,7.025-4.309c6.709-1.14,21.556,1.637,24.991,8.721c1.84,3.793-2.699,6.816-5.623,9.099
	c-8.374,6.536-18.694,9.775-28.865,12.3c-21.951,5.449-45.317,9.347-67.768,11.783c-10.46,1.136-20.591,0.159-31.018-0.54
	c-9.2-0.617-18.451-0.685-27.621-1.416c-18.124-1.444-35.307-4.644-52.795-9.577c-9.805-2.766-17.749-7.745-26.039-13.602
	c-3.491-2.466-9.26-7.013-5.644-11.476c2.762-3.409,9.935-5.815,13.833-7.799C154.626,184.614,158.604,182.017,164.223,182.339z"/>
<path d="M393.772,61.705c-0.993,2.31-1.989,4.761-2.791,7.172c-0.088,0.198-0.182,0.398-0.267,0.595
	c-3.977,9.294-3.869,22.507,1.372,31.308c5.52,9.268,14.496,15.135,24.938,17.325c9.969,2.09,23.193,3.762,32.3-1.949
	c3.41-2.138,5.823-7.089,7.243-10.715c1.865-4.762,4.336-8.921,4.832-14.108c1.026-10.722,0.86-21.886-5.375-31.063
	c-5.337-7.858-12.232-14.979-22.137-16.31c-10.238-1.376-20.698-1.075-29.446,5.243C400.242,52.238,395.833,56.913,393.772,61.705z
	 M411.707,53.553c4.593-2.245,9.075-3.451,14.266-2.976c2.485,0.228,5.407,0.608,7.973,0.277c4.365,1.321,8.347,3.693,11.901,7.061
	c5.555,5.266,8.617,13.529,9.252,21.004c0.79,9.283-1.253,17.647-5.536,25.828c-1.707,3.261-3.294,6.012-6.938,7.27
	c-4.857,1.678-11.47,1.554-16.455,0.814c-9.077-1.344-17.716-2.69-24.371-9.61c-7.725-8.032-8.261-17.547-6.489-28.04
	c0.794-4.702,3.557-8.177,6.277-11.89C404.4,59.453,407.339,55.689,411.707,53.553z"/>
<path d="M414.985,32.129c0.289,1.903,1.269,4.132,3.035,5.097c0.642,0.351,1.513,0.425,2.148,0c2.236-1.497,1.593-3.67,1.801-5.971
	c0.24-2.665-0.279-5.393-1.06-7.93c-1.491-4.848-9.29-2.604-7.547,2.081C414.21,27.681,414.623,29.748,414.985,32.129z"/>
<path d="M436.654,128.071c-1.038-2.574-4.243-2.594-5.278,0c-0.918,2.301-1.271,5.417-1.113,7.904
	c0.096,1.508,0.437,2.849,0.428,4.382c-0.031,5.112,8.003,5.12,7.944,0c-0.006-0.524,0.016-1.054-0.005-1.578
	c-0.055-1.426-0.523-2.367-0.85-3.7C437.212,132.761,437.578,130.368,436.654,128.071z"/>
<path d="M370.662,103.102c0.365-0.008,0.722-0.039,1.092-0.081c0.992-0.112,1.955-0.35,2.903-0.66
	c0.984-0.322,1.842-0.763,2.743-1.251c0.976-0.529,2.066-0.752,2.983-1.402c1.492-1.058,2.329-3.541,0.637-4.937
	c-1.537-1.267-3.448-1.983-5.465-1.521c-1.432,0.328-2.673,0.991-4.144,1.265c-0.682,0.128-2.144,0.072-3.16,0.317
	c-1.961,0.473-3.095,1.827-3.804,3.66c-0.745,1.925,0.664,4.244,2.432,4.955C368.28,104.011,369.57,103.806,370.662,103.102z"/>
<path d="M467.192,80.622c1.221,0.663,2.089,0.579,3.413,0.47c1.221-0.1,2.453,0.153,3.721-0.172
	c1.412-0.361,2.775-0.852,4.237-1.023c1.488-0.173,2.886-0.01,4.342-0.506c4.094-1.391,3.76-8.426-1.084-8.011
	c-0.157,0.014-0.313,0.027-0.47,0.04c-0.241,0.021-0.484,0.064-0.722,0.125c-2.606,0.486-5.091,0.754-7.544,1.925
	c-0.073,0.035-0.747,0.386-0.995,0.555c-0.32,0.016-1.026,0.11-1.134,0.124c-1.295,0.173-1.968,1.074-3.102,1.408
	C465.638,76.212,465.047,79.458,467.192,80.622z"/>
<path d="M456.22,49.161c0.76-0.763,1.613-1.433,2.382-2.188c0.372-0.366,0.713-0.756,1.049-1.155
	c0.432-0.513,0.182-0.229,0.608-0.579c2.179-1.794,5.03-3.943,3.95-7.215c-0.951-2.882-4.089-3.482-6.324-1.67
	c-0.605,0.491-0.841,1.114-1.247,1.727c0.342-0.514-0.452,0.399-0.486,0.431c-0.803,0.763-1.556,1.506-2.188,2.432
	c-1.281,1.875-2.653,3.793-2.803,6.12C450.989,49.684,454.486,50.903,456.22,49.161z"/>
<path d="M395.734,122.002c-1.756,2.176-4.064,4.423-4.973,7.079c-1.043,3.049,2.901,6.197,5.611,4.313
	c2.226-1.547,3.436-4.046,4.876-6.291c1.121-1.747,2.5-3.448,3.252-5.386c0.677-1.746-1.034-3.489-2.682-3.522
	C399.201,118.141,397.267,120.103,395.734,122.002z"/>
<path d="M375.46,53.165c2.132,0.984,4.298,1.891,6.406,2.927c2.05,1.008,3.985,1.939,6.254,1.078
	c1.523-0.577,2.368-2.182,1.509-3.71c-1.812-3.222-5.098-5.364-8.423-6.987c-0.544-0.745-1.35-1.273-2.278-1.469
	c-1.93-0.407-3.647,0.298-4.733,1.926l-0.267,0.399C372.737,49.114,373.451,52.239,375.46,53.165z"/>
<path d="M465.972,117.158c1.64,0.937,3.645,0.617,5-0.645c0.218-0.203,0.484-0.583,0.645-0.835c0.894-1.398,0.72-3.9-0.645-5
	c-1.046-0.842-2.07-1.403-3.325-1.884c-0.328-0.125-0.669-0.218-0.993-0.347c-0.256-0.083-0.262-0.091-0.017-0.025
	c-0.141-0.08-0.285-0.157-0.428-0.231c-0.948-0.531-1.14-0.506-1.944-0.866c-0.539-0.24-0.67-0.311-0.998-0.461
	c-0.249-0.115-1.355-0.783-0.742-0.341c-1.235-0.89-3.431-0.015-3.686,1.499C458.097,112.439,462.668,115.269,465.972,117.158z"/>
<path d="M437.008,38.382c2.466-3.182,3.106-5.753,4.247-9.645c1.189-4.05,3.574-7.737,4.514-11.849
	c0.624-2.734-2.456-4.313-4.492-2.615c-1.599,1.334-1.873,3.103-2.605,4.973c-0.956,2.441-2.083,4.78-2.83,7.306
	c-0.726,2.452-1.047,4.976-1.477,7.486c-0.269,1.568-0.677,2.622,0.316,4.046C435.16,38.772,436.376,39.199,437.008,38.382z"/>
<path d="M463.134,63.636c2.869,1.401,6.521-0.816,9.28-1.863c4.519-1.717,9.309-4.34,14.144-4.951c4.041-0.511,4.317-6.717,0-6.538
	c-4.586,0.19-9.161,2.441-13.289,4.334c-3.555,1.63-7.578,3.402-10.518,6.043C461.887,61.435,462.067,63.114,463.134,63.636z"/>
<path d="M451.495,124.292c-0.551-0.699-1.978-0.696-2.526,0c-1.953,2.48-0.334,6.405,0.195,9.243
	c0.86,4.623,2.985,8.601,4.11,13.079c1.128,4.495,7.786,2.573,6.89-1.9c-0.802-4.006-3.394-7.608-4.485-11.598
	C454.742,129.699,453.644,127.022,451.495,124.292z"/>
<path d="M416.127,125.918c-3.54,2.108-4.615,7.242-6.381,10.768c-0.849,1.696-1.572,3.481-2.508,5.129
	c-0.861,1.516-1.975,2.524-2.45,4.242c-1.17,4.226,5.392,6.03,6.561,1.809c0.117-0.423,1.552-2.178,2.022-3.097
	c0.962-1.886,1.767-3.873,2.662-5.793c1.665-3.577,3.967-7.805,3.168-11.808C418.932,125.834,417.22,125.267,416.127,125.918z"/>
<path d="M371.745,124.577c0.783-0.919,3.024-1.449,4.102-2.217c1.778-1.268,3.694-2.317,5.472-3.577
	c2.996-2.123,5.938-3.615,8.617-6.169c0.696-0.663,0.76-2.008,0-2.661c-1.501-1.292-2.69-1.316-4.496-0.691
	c-2.49,0.86-4.896,1.919-7.069,3.389c-2.189,1.48-4.526,3.231-6.834,4.478c-2.068,1.116-3.717,1.229-5.103,3.352
	C364.364,123.652,369.236,127.521,371.745,124.577z"/>
<path d="M365.64,74.699c2.579,0.216,4.877,0.913,7.339,1.69c1.764,0.557,4.108,1.859,6.009,1.584c0.456-0.066,2.328-1.041,1.182-0.4
	c0.665-0.372,1.025-0.364,1.66-0.96c0.951-0.895,0.159-2.359-0.977-2.414c-1.706-2.086-3.769-3.266-6.42-4.484
	c-1.964-0.902-3.997-1.614-6.131-1.98c-1.72-0.295-3.676-0.017-5.118-1.088c-3.392-2.518-7.088,2.804-4.376,5.671
	C360.701,74.322,363.037,74.48,365.64,74.699z"/>
<path d="M395.103,37.158c1.162,3.022,3.917,8.4,7.988,6.194c0.601-0.326,1.057-1.256,0.786-1.932
	c-2.726-6.791-3.89-14.177-7.428-20.661c-1.491-2.733-5.277-1.802-6.208,0.811c-0.997,2.8,0.789,4.963,1.891,7.429
	C393.314,31.639,394.068,34.463,395.103,37.158z"/>
<path d="M481.782,96.965c-1.575-0.467-3.185-1.114-4.744-1.648c-1.429-0.49-3.711-1.088-5.019-1.825
	c-3.735-2.102-7.051,3.567-3.357,5.743c2.811,1.656,6.355,2.389,9.411,3.592c1.408,0.555,2.711,0.877,4.176,1.228
	c2.035,0.488,3.851,1.513,5.868,2.063c4.315,1.178,6.136-5.459,1.844-6.689c-1.098-0.316-2.078-0.768-3.154-1.206
	C485.154,97.55,483.472,97.467,481.782,96.965z"/>
<path d="M510.588,461.553c-2.229-4.867-5.609-6.912-10.281-9.064c-0.863-0.398-2.082-0.772-2.908-1.302
	c-2.139-1.373-1.84-1.646-2.426-3.906c-0.59-2.275-0.942-4.528-2.173-6.596c-2.466-4.143-7.016-6.072-11.698-5.607
	c-2.875,0.285-6.005,0.671-8.841,1.277c-1.098,0.235-2.064,0.568-3.106,0.927c0.472-1.235,0.986-2.423,1.189-3.192
	c0.51-1.937,0.953-3.91,1.272-5.889c0.598-3.701,0.804-7.805-1.288-11.109c-2.439-3.849-7.538-4.976-11.801-4.673
	c-2.032,0.145-4.023,0.722-5.833,1.648c-0.362,0.186-0.71,0.407-1.055,0.636c0.333-4.397-0.312-8.774-1.027-13.298
	c-0.819-5.178-1.103-10.3-5.026-14.206c-3.526-3.509-8.207-3.649-12.631-1.699c-5,2.204-7.473,7.376-9.749,12.037
	c-0.079,0.161-0.17,0.329-0.268,0.5c-0.047-0.177-0.088-0.343-0.116-0.495c-0.849-4.521-1.408-11.285-5.188-14.528
	c-3.946-3.384-7.921-0.034-10.568,3.111c-2.06,2.447-4.221,4.934-5.892,7.672c-0.213,0.35-0.556,1.106-0.936,1.944
	c-0.369-1.449-0.81-2.892-1.94-4.081c-1.915-2.016-5.004-3.23-7.775-3.317c-2.092-0.065-4.827,0.694-6.983,1.731
	c0.123-0.573,0.222-1.104,0.294-1.504c0.919-5.096-0.021-12.349-6.604-12.265c-1.391,0.018-2.67,0.202-3.876,0.499
	c0.878-1.206,1.752-2.418,2.49-3.735c3.061-5.454,5.767-12.666,5.036-18.977c-1.319-11.394-11.878-10.473-19.961-6.186
	c-2.662,1.412-5.351,3.35-7.728,5.552c0.055-0.229,0.11-0.461,0.158-0.682c0.885-4.179,1.066-9.446-3.29-11.665
	c-5.178-2.637-12.648,0.858-16.853,3.975c-5.501,4.079-10.658,8.169-13.888,14.331c-0.276,0.526-0.662,1.167-1.079,1.876
	c-0.878-1.784-1.709-3.577-2.458-5.355c-1.309-3.111-3.147-5.875-5.122-8.538c12.082-3.979,23.048-10.362,33.322-18.407
	c5.827-4.563,11.629-9.739,16.253-15.512c2.591-3.237,5.631-6.047,8.215-9.291c2.73-3.426,4.733-7.224,7.128-10.862
	c5.397-8.195,10.119-16.925,13.273-26.229c3.291-9.708,6.484-19.762,6.503-30.102c0.016-9.341,1.393-18.755,0.667-28.124
	c-0.357-4.599-2.338-8.518-5.127-12.123c-0.998-1.289-2.042-2.59-3.5-3.393c-0.568-0.313-1.183-0.51-1.8-0.698
	c-6.082-3.487-18.051-8.224-25.038-8.411c0.016-0.285,0.023-0.568,0.014-0.846c-0.223-6.622-1.746-11.454-7.076-15.783
	c-3.812-3.098-7.426-4.509-11.569-3.372c0.003-2.811-0.835-5.535-2.767-7.71c-4.419-4.974-11.762-5.464-17.879-4.643
	c-2.852,0.384-6.5,1.76-8.603,4.122c-0.311-0.337-0.632-0.664-0.973-0.969c-6.013-5.38-13.052-5.916-20.583-3.828
	c-3.728,1.034-9.743,4.681-10.55,9.181c-0.027-0.009-0.055-0.017-0.081-0.026c-4.526-1.488-6.062-3.662-8.17-7.718
	c-3.448-6.634-10.002-7.879-17.016-8.11c-8.765-0.289-17.632,0.091-26.154,2.353c-8.256,2.193-16.498,4.668-24.482,7.713
	c-3.785,1.444-7.57,2.783-11.394,4.105c-3.198,1.105-5.787,3.3-8.9,4.638c-3.558,1.53-7.115,3.161-10.315,5.365
	c-3.047,2.098-5.236,5.283-8.389,6.978c-7.486,4.024-16.347,5.494-23.602,9.873c-2.953,1.784-5.672,3.677-7.978,5.943
	c-0.816,0.65-1.603,1.428-2.464,2.335c-4.932,5.186-7.251,13.61-8.289,20.515c-2.695,17.928,0.179,37.042,4.204,54.542
	c3.766,16.369,10.459,34.809,22.985,46.597c6.472,6.09,13.561,11.444,21.138,16.019c7.513,4.537,15.285,7.677,23.332,11.096
	c2.496,1.06,5.037,1.985,7.608,2.818c-0.949,1.123-1.827,2.232-2.606,3.129c-3.992,4.588-7.456,9.868-11.014,14.811
	c-3.631-13.86-18.896-29.875-33.087-23.27c-8.962,4.17-10.457,13.894-11.885,22.665c-0.067,0.412-0.116,0.825-0.166,1.237
	c-3.033-2.997-7.631-2.895-10.264,1.175c-2.93,4.529-3.906,11.005-4.036,16.245c-0.091,3.721,0.215,7.372,0.698,11.06
	c0.161,1.223,0.312,2.451,0.554,3.661c-0.533-0.103-1.07-0.204-1.62-0.342c-2.349-0.584-4.549-1.419-6.938-1.881
	c-4.439-0.858-9.526-1.722-13.881-0.035c-3.906,1.513-6.66,4.931-8.044,8.801c-0.829,2.32-1.37,4.8-2.032,7.182
	c-0.956-1.018-1.986-1.983-3.111-2.761c-3.136-2.17-7.156-2.598-10.617-0.876c-3.234,1.609-5.447,4.557-6.26,8.047
	c-0.409,1.753-0.343,3.635-0.226,5.523c-0.223-0.409-0.434-0.779-0.633-1.075c-1.272-1.89-2.516-3.733-4.228-5.254
	c-3.49-3.1-7.127-3.876-11.528-2.141c-4.663,1.837-7.633,6.201-9.439,10.703c-1.324,3.297-1.828,6.364-2.158,9.537
	c-2.61-0.219-5.204,0.412-7.112,2.402c-4.839,5.044-5.781,9.992-7.092,16.651c-0.319,1.62-0.58,3.256-0.851,4.884
	c-0.196,1.174-0.014,4.311-0.826,5.137c-1.251,1.271-4.549,0.924-6.31,1.392c-5.247,1.394-8.883,5.859-9.976,11.061
	c-0.043,0.202-0.194,0.78-0.261,1.248c-1.14,0.016-2.3,0.054-2.37,0.056c-3.016,0.141-5.852,1.001-8.521,2.424
	c-4.583,2.444-8.272,8.199-6.145,13.472c2.047,5.077,8.952,7.736,13.857,8.991c6.996,1.789,13.549,1.294,20.679,1.384
	c3.774,0.048,7.429-0.76,11.201-0.775c4.259-0.017,8.559,0.087,12.816,0.254c3.987,0.157,7.946,0.751,11.943,0.681
	c4.106-0.072,8.177-0.64,12.29-0.657c16.657-0.072,33.304,0.591,49.943,1.182c8.229,0.292,16.577,0.229,24.776,0.929
	c8.003,0.683,15.968,0.277,23.988,0.462c8.078,0.186,16.289,0.56,24.328,1.343c6.598,0.642,13.288-0.355,20.002,0.091
	c9.142,0.607,18.388,0.378,27.548,0.262c4.571-0.058,9.143-0.265,13.714-0.124c4.451,0.138,8.741,1.066,13.156,1.412
	c4.081,0.32,8.178-0.263,12.265-0.131c4.628,0.149,9.261,0.5,13.868,0.957c4.546,0.45,9.198,1.186,13.773,1.054
	c0.934-0.026,1.86-0.117,2.783-0.233c1.74,0.188,3.48,0.374,5.217,0.54c6.029,0.574,11.758-0.419,17.757-0.424
	c2.432-0.002,4.539-0.48,6.928-0.704c3.082-0.29,6.24,0.249,9.327,0.197c5.417-0.091,11.013-0.924,16.354-1.787
	c5.137-0.83,10.054-1.867,15.259-2.31c5.089-0.434,10.199-0.511,15.283-0.991c11.195-1.057,22.559-0.924,33.73-2.69
	c5.56-0.879,10.918-2.206,16.536-2.849c5.67-0.648,11.394-1.419,16.991-2.542c9.478-1.902,18.509-5.587,26.884-10.281
	C510.95,479.551,514.032,469.072,510.588,461.553z M313,369.592c2.302,3.64,4.176,7.313,6.708,10.813
	c2.726,3.769,3.639,8.234,5.921,12.239c2.131,3.742,4.688,7.112,6.733,10.932c2.341,4.375,4.306,8.825,6.478,13.276
	c0.968,1.984,2.425,3.698,3.248,5.693c0.819,1.982,1.166,3.458,2.401,5.202c2.659,3.76,4.282,8.547,5.663,12.945
	c2.014,6.412,8.095,15.917,2.342,21.887c-2.665,2.767-7.882,3.622-11.12,1.55c-4.694-3.004-6.995-6.91-9.861-11.454
	c-9.937-15.748-17.707-32.696-25.859-49.398c-2.145-4.396-4.679-8.569-6.756-12.988c-2.266-4.823-4.14-9.9-6.627-14.601
	c-2.521-4.765-5.298-9.333-7.958-14.016c-1.427-2.513-2.761-5.622-4.545-8.159c6.112-0.761,12.158-1.857,18.257-2.931
	c1.144-0.202,2.276-0.427,3.4-0.67c0.116,0.153,0.233,0.305,0.362,0.457c1.632,1.922,3.1,3.49,4.4,5.679
	C308.772,360.399,310.276,365.283,313,369.592z M227.999,386.372c2.678-1.425,2.379-3.709,3.823-6.105
	c2.628-4.364,7.616-5.017,9.675,0.063c1.015,2.504,2.44,8.038,6.499,5.688c1.727-1,1.306-2.156,1.608-3.805
	c0.755-4.131,3.122-8.714,8.108-7.339c5.12,1.411,6.364,7.797,10.543,10.343c2.066,1.26,4.665,0.022,5.348-2.176
	c1.057-3.403,3.464-9.251,6.529-11.378c0.542-0.377,0.907-0.838,1.129-1.33c1.564,3.015,3.154,6.019,4.622,9.088
	c2.176,4.548,4.015,9.301,6.122,13.901c0.608,1.327,1.254,2.633,1.915,3.933c-1.59-0.11-3.149-0.526-4.759-0.592
	c-4.147-0.17-8.368-0.035-12.454,0.631c-4.975,0.811-10.07,0.276-15.086,0.316c-5.08,0.04-10.159,0.145-15.237,0.146
	c-3.135,0.001-6.106,0.366-9.244,0.285c-4.58-0.117-9.173-0.476-13.732-0.517c-4.987-0.044-9.993,0.167-14.979,0.268
	c-1.542,0.031-3.186-0.057-4.767,0.024c1.275-1.703,2.539-3.403,3.759-5.111c4.016-5.622,8.065-11.304,12.532-16.575
	c0.188-0.222,0.361-0.453,0.544-0.68c1.485,2.613,1.649,5.983,2.428,8.858C223.526,386.529,226.048,387.41,227.999,386.372z
	 M223.392,371.62c0.763-1.057,1.526-2.117,2.332-3.157c1.668-2.153,3.435-4.266,5.006-6.496c1.869-2.654,3.531-5.336,5.635-7.816
	c0.621-0.731,1.153-1.423,1.58-2.137c2.559,0.265,5.114,0.516,7.653,0.761c9.252,0.894,18.579,2.128,27.915,1.385
	c0.361-0.028,0.72-0.067,1.081-0.099c0.435,1.531,0.63,3.138,1.21,4.651c0.813,2.125,1.789,4.264,2.777,6.312
	c0.21,0.433,0.431,0.86,0.645,1.292c-0.181-0.048-0.37-0.084-0.57-0.105c-3.582-0.354-5.834,1.095-7.497,4.201
	c-0.896,1.676-1.793,3.333-2.579,5.033c-0.817-0.695-1.694-1.349-2.479-2.047c-2.199-1.959-4.66-3.4-7.692-3.67
	c-6.049-0.538-10.504,3.615-12.246,9.191c-0.286-0.918-0.9-1.976-1.298-2.635c-1.244-2.049-3.141-3.622-5.514-4.135
	c-3.058-0.661-6.117,0.468-8.618,2.178c-1.166,0.797-2.215,1.728-3.21,2.727C226.547,375.055,225.309,373.319,223.392,371.62z
	 M209.162,402.773c5.021,0.097,10.141-0.077,15.146,0.27c4.454,0.309,9.003,0.396,13.447,0.768c3.405,0.284,6.593-0.043,10.03,0.158
	c4.924,0.288,9.867,0.167,14.798,0.279c4.646,0.105,9.34,0.675,13.976,0.118c4.342-0.522,9.181-0.992,13.574-0.473
	c2.6,0.308,4.999,0.713,7.363,0.249c0.629,1.232,1.245,2.472,1.829,3.728c2.23,4.791,4.554,9.506,6.841,14.245
	c-2.164,0.113-4.399,0.517-6.138,0.524c-5.773,0.021-11.497,0.232-17.215-0.547c-4.97-0.678-10.357-0.305-15.336,0.169
	c-6.312,0.601-12.611,0.493-18.959,0.509c-5.558,0.014-11.197-0.255-16.722,0.341c-5.866,0.633-11.815-0.343-17.666,0.607
	c-2.784,0.452-5.137,0.588-7.96,0.637c-2.529,0.043-4.688,0.834-7.17,1.044c-4.062,0.344-9.167,0.843-13.584,0.502
	c3.077-5.263,6.097-10.56,9.373-15.68c1.593-2.491,3.333-4.935,5.117-7.359C202.953,402.94,206.096,402.714,209.162,402.773z
	 M377.928,199.013c0.891,0.893,1.99,1.511,3.038,2.278c-0.902,0.543-1.956,0.965-2.688,1.456c-1.859,1.246-3.379,2.433-5.493,3.284
	c-0.197,0.08-0.385,0.174-0.58,0.257c-1.403-1.59-3.631-2.871-5.722-3.987c2.277-1.713,4.447-3.513,6.339-5.514
	C374.502,197.579,376.187,198.335,377.928,199.013z M357.963,191.43c0.157,0.073,0.311,0.146,0.475,0.212
	c2.677,1.085,5.449,1.608,8.183,2.475c-1.754,1.242-3.431,2.869-4.795,3.947c-0.396,0.313-0.797,0.625-1.196,0.939
	c-2.173-1.191-4.476-2.251-6.623-3.39C355.492,194.568,356.863,193.098,357.963,191.43z M365.747,209.512
	c-1.167,0.62-2.342,1.229-3.558,1.785c-3.148,1.441-6.421,2.543-9.738,3.509c-0.198-0.215-0.412-0.425-0.649-0.623
	c1.746-1.332,3.488-2.672,5.159-4.112c1.326-1.142,2.603-2.35,3.874-3.567c0.226,0.124,0.447,0.251,0.673,0.374
	C362.906,207.638,364.313,208.575,365.747,209.512z M355.187,203.28c-1.187,0.933-2.377,1.863-3.55,2.807
	c-1.715,1.378-4.026,2.924-6.282,4.634c-1.795-0.888-3.457-1.758-5.206-2.259c2.188-2.243,3.755-5.146,4.29-8.165
	c1.222-0.254,2.465-0.777,3.67-1.379C350.445,200.439,352.804,201.877,355.187,203.28z M341.173,168.936
	c2.44,0.809,4.939,1.229,7.105,2.94c1.545,1.221,3.017,2.647,3.976,4.381c1.031,1.863,0.891,4.446,1.068,6.56
	c0.495,5.917-5.259,7.683-9.97,9.994c-0.349-0.655-0.752-1.295-1.255-1.903c-1.685-2.035-7.84-5.949-12.068-6.006
	c0.339-1.775,0.355-3.541,0.049-5.229C335.263,178.849,339.512,174.202,341.173,168.936z M332.376,207.088
	c-2.063,1.018-3.647,1.849-6.006,1.508c-2.15-0.311-4.534-0.59-6.521-1.439c-1.564-0.669-5.352-1.904-6.465-3.104
	c-0.957-1.032-1.244-2.672-1.261-4.159c7.061-1.083,13.62-4.635,16.588-10.949c0.103-0.22,0.19-0.442,0.285-0.663
	c4.286,0.975,9.356,3.594,10.773,8.09c0.329,1.046,0.408,2.014,0.286,2.91C339.564,202.936,335.787,205.404,332.376,207.088z
	 M339.903,215.723c-0.778,0.965-1.399,1.968-1.803,3.009c-3.86,0.868-8.153,2.305-12.108,2.342
	c-3.846,0.036-7.573-1.658-11.088-3.215c-0.485-0.276-0.974-0.55-1.459-0.816c1.665-1.039,3.323-2.256,4.209-3.467
	c6.057,2.564,11.755,1.873,17.003-1.05C336.36,213.653,338.03,214.847,339.903,215.723z M334.583,160.21
	c2.654,2.84,1.366,7.856-1.037,10.504c-1.3,1.433-2.988,1.845-4.575,2.78c-0.485,0.286-0.858,0.583-1.19,0.896
	c-0.765-1.015-1.707-1.944-2.833-2.761c-2.581-1.873-5.366-3.31-8.554-3.52c0.566-2.902,0.01-5.994-1.36-8.694
	C320.597,156.102,330.366,155.697,334.583,160.21z M314.022,173.025c1.871-0.001,3.727,0.306,5.666,1.55
	c3.19,2.047,5.203,4.528,4.364,8.513c-0.472,2.242-1.301,4.108-3.01,5.686c-5.631,5.195-15.272,6.863-22.102,3.346
	c1.013-3.424,1.41-6.987,1.023-10.198c-0.039-0.32-0.088-0.647-0.141-0.975c0.788-1.374,1.34-2.296,3.458-2.789
	c1.78-0.415,2.772-0.898,4.331-1.743C309.689,175.29,312.32,174.765,314.022,173.025z M217.409,210.874
	c0.021-0.011,0.041-0.023,0.062-0.033c0.5-0.277,0.822-0.69,0.993-1.155c3.622,0.066,7.221,0.563,10.81,1.852
	c3.324,1.194,6.472,2.9,9.915,3.76c3.544,0.885,7.379,0.937,11.013,0.867c3.333-0.065,6.735-0.427,10.143-0.915
	c0.016,0.013,0.033,0.025,0.049,0.038c0.109,0.11,0.215,0.224,0.328,0.333c-3.17,2.018-6.412,3.966-9.637,5.847
	c-1.637,0.954-3.373,1.85-4.973,2.907c-2.905-1.072-5.8-1.819-6.974-2.206C231.551,219.664,224.829,213.92,217.409,210.874z
	 M233.061,226.969c-12.93-0.181-25.658-2.203-38.227-4.982c2.412-0.892,4.783-2.136,6.851-3.122c3.094-1.475,6.218-3.009,9.308-4.59
	c1.041,0.721,2.178,1.341,3.354,1.912c1.254,0.91,2.612,1.723,4.107,2.561c3.571,1.999,6.928,4.372,10.535,6.297
	C230.318,225.751,231.682,226.377,233.061,226.969z M254.693,225.695c3.837-1.923,7.18-4.547,10.929-6.601
	c2.677,1.474,5.635,2.673,8.413,3.898c0.818,0.41,1.628,0.824,2.419,1.25c1.072,0.577,2.171,1.107,3.274,1.63
	c0.33,0.198,0.671,0.406,1.019,0.618c-1.687,0.17-3.37,0.37-5.008,0.597c-4.896,0.677-9.776,0.5-14.716,0.456
	c-3.006-0.027-6.009-0.09-9.011-0.158c-0.074-0.059-0.151-0.118-0.229-0.177C252.762,226.703,253.734,226.175,254.693,225.695z
	 M280.74,218.684c-2.387-1.423-4.943-2.557-7.585-3.477c1.179-0.595,2.353-1.202,3.536-1.779c1.493-0.729,2.939-1.236,3.984-2.193
	c0.825-0.325,1.635-0.698,2.434-1.095c1.421,1.182,3.199,2.009,4.893,2.739c3.882,1.674,7.775,3.237,11.636,4.935
	c-0.49,0.342-0.982,0.679-1.467,1.029c-1.449,1.041-4.948,2.829-7.471,4.938c-0.18-0.082-0.359-0.161-0.54-0.248
	C287.017,222.011,283.758,220.481,280.74,218.684z M288.454,206.859c1.333-0.98,2.608-2.022,3.772-3.14
	c1.599-1.534,3.007-3.44,4.178-5.548c2.753,1.157,5.897,1.84,9.134,2.029c-0.058,2.099,0.693,4.391,1.522,6.066
	c0.842,1.701,1.989,2.881,3.32,3.808c-0.476,0.368-0.966,0.77-1.505,1.19c-0.936,0.731-1.891,1.426-2.852,2.111
	C300.164,210.776,294.423,208.745,288.454,206.859z M306.353,221.12c1.408,0.81,2.857,1.689,4.337,2.546
	c-3.271,0.452-6.546,0.871-9.83,1.218C302.699,223.645,304.488,222.328,306.353,221.12z M297.202,156.221
	c5.57-0.585,14.004,3.694,13.062,10.248c-0.509,3.545-8.03,4.614-10.728,5.507c-0.906,0.3-1.722,0.722-2.444,1.234
	c-0.06-0.1-0.115-0.206-0.177-0.305c-0.47-4.157-4.244-7.473-7.936-9.379c-1.153-0.596-2.341-1.079-3.545-1.515
	C288.724,158.622,291.909,156.778,297.202,156.221z M176.128,175.836c0.361-0.462,0.796-0.976,1.28-1.504
	c3.188-2.102,6.67-3.517,10.546-5.112c2.704-1.113,5.09-2.959,7.843-3.85c3.378-1.092,6.73-2.168,10.077-3.366
	c6.531-2.338,13.234-4.258,19.964-5.923c7.444-1.843,14.725-3.59,22.451-3.556c3.436,0.015,6.994-0.151,10.398,0.323
	c4.31,0.6,5.902,1.924,8.155,5.61c3.051,4.992,7.36,7.456,12.807,9.073c2.335,0.694,4.709,1.379,6.823,2.623
	c0.827,0.488,1.483,1.03,2.059,1.609c0.304,0.818,0.671,1.553,1.047,2.309c-1.178,1.76-3.979,3.162-5.595,4.52
	c-2.673,2.245-5.227,4.493-8.254,6.266c-5.265,3.083-10.895,5.516-16.99,5.942c-6.22,0.434-12.044,0.315-18.313-0.047
	c-6.29-0.363-9.309-3.671-14.609-6.304c-4.539-2.255-9.447-1.656-14.243-0.68c-6.213,1.263-12.435,1.355-18.673,2.363
	c-3.71,0.599-7.321,0.956-11.08,0.639c-1.658-0.14-3.334-0.38-4.955-0.76c-1.56-0.366-4.68-1.869-5.023-3.652
	C171.658,181.399,175.52,176.615,176.128,175.836z M168.143,189.002c0.095-1.088,0.204-2.055,0.359-2.946
	c0.535,0.801,1.289,1.579,2.333,2.327c5.381,3.852,14.011,4.018,20.218,3.163c4.287-0.591,8.458-0.975,12.778-1.297
	c4.119-0.308,8.051-1.54,12.133-2.031c8.167-0.984,12.03,5.588,19.394,7.162c3.817,0.816,7.942,0.628,11.824,0.942
	c3.545,0.287,6.716,0.069,10.186-0.352c3.669-0.445,6.541-0.724,10.095-1.833c3.629-1.132,6.846-2.646,10.142-4.546
	c3.125-1.801,5.868-3.974,8.613-6.305c1.558-1.324,3.63-2.646,5.276-4.203c0.85,3.243,0.885,6.257-0.089,9.75
	c-1.115,4.001-2.015,7.069-5.245,9.913c-2.404,2.117-6.062,4.675-9.13,5.808c-3.539,1.308-7.928,1.247-11.626,1.77
	c-4.041,0.571-8.063,1.361-12.119,1.826c-3.862,0.443-8.212,0.533-12.032-0.345c-3.446-0.792-6.606-2.572-9.915-3.76
	c-6.093-2.187-12.995-2.722-19.359-1.882c-3.703,0.489-7.473,0.6-11.156,1.106c-3.515,0.482-6.769,1.228-10.392,1.177
	c-7.039-0.101-15.287-0.74-20.313-6.323c-1.447-1.606-2.132-3.546-2.502-5.587C167.931,191.412,168.035,190.229,168.143,189.002z
	 M166.223,203.766c0.387,0.418,0.793,0.817,1.227,1.187c8.56,7.305,19.743,7.598,30.487,6.594
	c-4.082,2.556-7.938,5.421-11.132,8.559c-2.928-0.714-5.851-1.45-8.765-2.209c-1.691-0.44-3.394-0.901-5.098-1.377
	c-0.174-0.157-0.335-0.31-0.465-0.458c-0.245-0.28-0.505-0.534-0.753-0.806c-0.621-3.991-4.852-7.266-8.661-10.022
	C164.116,204.758,165.17,204.28,166.223,203.766z M156.694,208.385c0.133,0.11,0.261,0.224,0.394,0.335
	c1.586,1.308,3.054,2.827,4.529,4.318c-2.998-1.025-5.959-2.129-8.841-3.34C154.12,209.312,155.475,208.94,156.694,208.385z
	 M151.085,189.839c3.517-1.469,7.115-2.699,10.758-3.845c-0.888,3.698-0.64,7.737,0.616,11.366
	c-1.972,0.853-3.821,1.842-5.687,2.925c-2.989-2.564-6.023-5.056-9.519-6.758c-0.224-0.304-0.447-0.596-0.67-0.872
	C148.112,191.739,149.641,190.828,151.085,189.839z M143.68,194.449c2.245,3.256,4.746,6.202,7.518,8.958
	c-1.731,0.911-3.458,1.828-5.088,2.907c-0.093,0.062-0.161,0.139-0.238,0.21c-1.904-0.993-3.744-2.098-5.334-3.416
	c-0.778-0.646-2.571-2.532-3.048-3.372c-0.014-0.024-0.026-0.065-0.04-0.116C139.176,197.548,141.364,195.932,143.68,194.449z
	 M171.015,319.406c-6.166-4.228-12.945-9.613-17.599-15.476c-4.965-6.256-8.726-13.985-11.636-21.385
	c-6.849-17.418-10.063-36.109-10.646-54.753c-0.24-7.663,0.378-16.345,3.557-23.542c0.611,0.899,1.265,1.824,1.981,2.546
	c1.103,1.112,2.262,1.359,3.444,2.262c1.504,1.149,1.983,2.171,3.801,3.001c1.82,0.831,3.689,1.564,5.503,2.442
	c1.605,0.777,3.177,1.265,4.865,1.818c2.938,0.961,5.484,2.582,8.47,3.446c10.009,2.892,19.94,6.351,30.1,8.727
	c9.236,2.16,18.952,3.35,28.394,4.077c20.08,1.546,40.065,2.592,60.195,1.32c18.538-1.172,37.32-3.32,55.498-7.518
	c9.453-2.182,19.262-4.446,28.189-8.44c3.71-1.661,7.496-3.151,11.17-4.888c0.767-0.362,9.148-4.757,8.891-5.638
	c0.436,1.501,0.631,3.097,0.625,4.744c-0.025,7.567-0.764,15.107-0.742,22.635c0.048,15.716-5.804,31.741-13.609,45.169
	c-3.852,6.629-7.347,13.872-12.477,19.634c-2.53,2.842-5.066,5.56-7.475,8.515c-2.229,2.735-4.926,4.676-7.473,7.063
	c-11.036,10.346-24.181,19.121-38.77,23.558c-6.85,2.084-14.371,2.766-21.411,4.078c-7.816,1.457-16.145,1.342-24.073,1.114
	c-7.832-0.223-15.582-1.778-23.356-2.475c-7.727-0.693-15.149-1.969-22.734-3.686C198.857,334.399,183.612,328.042,171.015,319.406z
	 M192.436,371.142c3.323-5.304,6.899-10.43,10.189-15.758c1.464-2.373,3.342-4.491,4.765-6.872c0.262-0.439,0.462-0.942,0.639-1.47
	c6.613,1.761,13.397,2.941,20.207,3.84c-1.358,1.775-2.557,3.632-3.823,5.484c-2.586,3.782-5.901,7.046-8.456,10.841
	c-6.043,8.976-12.924,17.462-18.857,26.588c-2.795,4.299-6.185,8.233-8.826,12.618c-2.713,4.504-4.921,9.269-7.788,13.643
	c-5.096,7.773-10.199,15.668-14.575,23.829c-1.885,3.517-4.4,7.287-6.678,10.556c-3.135,4.498-6.345,9.465-10.926,12.562
	c-3.725,2.518-7.572,2.091-9.496-2.22c-2.307-5.168-0.511-10.462,1.922-15.127c4.733-9.078,8.649-19.482,15.09-27.501
	c2.643-3.29,5.816-6.168,8.488-9.435c2.943-3.598,5.319-7.541,7.858-11.42C178.82,391.134,185.981,381.443,192.436,371.142z
	 M500.988,474.447c-2.799,2.958-9.178,4.868-12.946,6.343c-5.222,2.046-11.505,3.124-17.04,3.859
	c-6.164,0.819-12.364,1.311-18.523,2.165c-6.437,0.893-12.653,2.24-19.142,2.851c-11.965,1.126-23.988,1.108-35.915,2.371
	c-5.538,0.587-10.972,0.764-16.365,2.121c-5.746,1.447-12.368,1.985-18.279,2.099c-7.148,0.138-14.14,0.059-21.262,0.736
	c-7.297,0.693-14.484,0.202-21.804-0.051c-5.58-0.193-11.183-0.099-16.794,0.128c-4.32-0.489-8.655-0.842-13.001-0.833
	c-3.072,0.007-6.138,0.325-9.2-0.041c-3.137-0.375-6.214-1.059-9.372-1.343c-7.835-0.705-15.758-0.275-23.614-0.302
	c-7.101-0.025-14.202,0.11-21.289-0.377c-6.289-0.433-12.611,0.398-18.78-0.015c-14.216-0.952-28.299-1.318-42.538-1.631
	c-15.229-0.335-30.583-0.603-45.808-1.265c-14.504-0.632-29.399-1.116-43.874,0.128c-6.669,0.573-13.263-0.203-19.937-0.245
	c-7.744-0.048-15.32,0.681-23.015,0.786c-6.606,0.089-12.962,0.59-19.237-2.105c-1.37-0.589-4.318-1.886-4.422-3.133
	c-0.268-3.214,6.824-3.596,8.609-3.598c2.392-0.002,5.042,0.149,6.898-1.665c2.083-2.037,1.345-4.76,2.08-7.283
	c1.641-5.642,7.654-3.758,11.723-6.287c2.039-1.268,3.164-3.132,3.643-5.435c0.786-3.782,0.855-7.56,1.843-11.35
	c0.825-3.17,1.027-7.621,4.114-9.56c2.209-1.387-0.034-0.628,2.709-0.555c0.191,0.039,0.353,0.069,0.499,0.096
	c0.273,0.198,0.552,0.388,0.839,0.568c3.22,2.152,6.471-0.821,6.885-3.951c0.446-3.373,1.488-20.715,8.176-18.007
	c2.55,1.033,4.392,5.704,5.863,7.843c1.62,2.355,3.947,4.918,6.846,5.603c8.07,1.906,6.629-8.416,6.778-13.004
	c0.134-4.121,1.556-8.005,5.441-3.902c2.302,2.43,3.304,5.458,6.212,7.328c1.795,1.155,4.088,0.603,5.585-0.721
	c6.447-5.697-0.739-21.23,8.949-24.532c5.414-1.845,12.497,1.652,16.384,5.236c2.804,2.587,6.303,5.17,10.153,2.561
	c3.467-2.35,2.841-6.711,1.808-10.197c-1.622-5.471-2.693-11.058-2.379-16.804c0.118-2.182,0.623-4.27,1.215-6.36
	c1.162,1.816,2.389,3.614,2.973,5.716c0.215,0.775,0.329,1.526,0.433,2.266c0.028,1.586,0.301,3.129,1.199,4.369
	c2.825,3.902,8.331,0.625,6.405-3.744c-0.305-0.693,0.057-2.616-0.074-3.473c-0.062-0.404-0.145-0.801-0.241-1.193
	c0.008-0.159,0.017-0.319,0.024-0.478c0.12-2.747-0.12-5.491-0.039-8.239c0.185-6.225,0.98-16.343,6.476-20.221
	c11.29-7.965,25.201,11.992,26.437,21.422c0.076,0.581,0.277,1.075,0.548,1.498c-1.96,2.852-3.859,5.749-5.578,8.681
	c-2.92,4.982-6.728,9.455-9.963,14.257c-3.04,4.513-5.891,9.071-9.095,13.439c-3.32,4.525-7.727,8.182-11.047,12.716
	c-3.163,4.319-5.442,9.056-8.131,13.701c-3.057,5.278-6.058,10.904-8.458,16.514c-1.891,4.421-2.333,9.513-1.383,14.233
	c0.79,3.93,3.434,9.724,7.332,11.477c3.115,1.401,8.478,0.796,11.557-0.447c4.327-1.746,8.308-5.812,10.894-9.605
	c6.196-9.088,11.903-18.347,17.954-27.491c2.002-3.024,3.891-6.122,5.743-9.244c3.514,0.867,7.188,0.595,10.892,0.702
	c5.24,0.151,10.244-0.385,15.474-0.195c2.549,0.093,4.785-0.613,7.332-0.729c2.903-0.133,5.835,0.169,8.736,0.263
	c5.851,0.19,11.738-0.555,17.624-0.541c6.002,0.013,12.009,0.118,18.008,0.041c5.44-0.069,10.84-0.874,16.302-0.855
	c5.578,0.018,11.113,0.926,16.75,0.941c2.881,0.007,5.761,0.025,8.642,0.018c1.596-0.005,3.836-0.54,5.561-0.453
	c1.177,2.52,2.329,5.055,3.434,7.626c2.129,4.952,4.98,9.456,7.617,14.141c2.501,4.444,5.117,9.558,8.255,13.546
	c5.642,7.168,13.66,11.98,22.901,9.403c8.396-2.342,13.312-11.172,11.7-19.617c-0.706-3.701-2.434-7.106-3.859-10.518
	c-2.042-4.889-3.117-10.181-5.327-15.061c-0.781-1.725-1.866-3.132-2.772-4.742c-1.238-2.196-1.625-4.417-3.033-6.59
	c-2.966-4.579-4.696-9.883-7.295-14.691c-2.649-4.901-6.144-9.531-8.512-14.532c-1.304-2.752-1.87-5.699-3.374-8.378
	c-1.238-2.206-2.981-4.049-4.298-6.194c-0.694-1.129-1.383-2.289-2.063-3.464c0.146-0.571,0.113-1.176-0.158-1.742
	c0.079-0.125,0.157-0.277,0.236-0.489c0.197-0.222,0.395-0.445,0.593-0.667c0.996-0.845,1.551-1.871,2.246-2.938
	c1.885-2.893,4.034-5.542,6.724-7.764c2.225-1.837,4.772-3.938,7.317-5.32c1.357-0.737,2.926-1.277,4.416-1.682
	c2.293-0.624,2.41-0.984,2.818,0.707c1.111,4.606-3.464,9.437-3.051,14.173c0.325,3.739,4.009,5.571,7.071,3.329
	c1.506-1.103,2.197-2.846,3.212-4.343c1.521-2.245,3.704-4.247,5.766-6.007c2.581-2.203,10.576-7.797,14.151-5.068
	c2.473,1.888,0.79,7.799,0.034,10.117c-1.105,3.389-2.369,6.852-4.408,9.804c-1.627,2.352-3.32,4.883-4.986,7.177
	c-1.77,2.439-4.269,3.645-5.557,6.497c-1.121,2.483,0.829,6.682,4.102,5.335c2.234-0.918,4.291-2.129,6.42-3.267
	c1.421-0.761,2.625-1.539,4.253-1.746c0.272-0.006,0.546,0.002,0.818,0.006c-0.614,2.16-1.874,5.939-1.978,6.234
	c-0.888,2.507-1.243,4.946,0.199,7.344c2.975,4.948,9.233,3.58,13.196,0.853c2.625-1.808,5.347-4.6,7.447-0.678
	c1.321,2.468,1.368,4.491,3.344,6.729c0.908,1.029,2.441,1.285,3.714,0.982c3.509-0.835,4.749-3.757,6.207-6.729
	c1.283-2.616,2.743-4.96,4.424-7.338c0.387-0.548,2.612-4.016,2.875-3.966c-0.108-0.021,0.428,2.895,0.469,3.128
	c0.829,4.759,0.518,15.381,6.021,17.727c7.415,3.16,10.466-10.82,13.607-14.711c1.629-2.018,4.519-3.739,6.725-1.567
	c1.729,1.703,1.972,4.449,2.337,6.705c1.029,6.349,2.221,12.75,0.144,18.995c-0.409,1.228,0.028,2.843,0.981,3.712
	c2.891,2.637,6.084,1.914,9.263,0.199c3.297-1.779,10.802-5.352,10.779,1.132c-0.021,5.757-9.307,20.686-0.4,23.123
	c1.959,0.536,3.985-0.138,5.843-0.707c2.938-0.9,5.538-1.578,8.604-1.998c2.42-0.331,5.31-1.542,7.096,0.819
	c1.656,2.187,0.718,5.184,1.419,7.639c1.456,5.091,7.628,6.545,11.784,8.675C502.832,463.638,504.759,470.462,500.988,474.447z"/>
<path d="M222.284,289.077c1.467,2.512,3.868,4.434,7.685,5.368c9.351,2.286,20.03,2.646,29.603,2.304
	c11.58-0.413,23.156-0.507,34.703-1.27c7.286-0.482,18.225-1.65,21.629-9.24c0.211-0.47,0.392-0.941,0.546-1.414
	c4.005-1.303,9.089,1.043,12.807-1.079c1.31-0.747,1.763-1.895,2.049-3.284c0.462-2.248,1.072-5.41,0.577-7.704
	c-0.741-3.446-4.921-5.533-8.273-5.331c-2.471,0.149-4.883,1.016-7.333,1.289c-0.707,0.079-1.48-0.039-2.186,0.132
	c-0.899-2.179-2.045-4.225-3.643-5.473c-3.381-2.64-9.413-2.409-13.474-2.289c-5.776,0.17-11.526-0.035-17.274,0.679
	c-4.752,0.59-9.584,0.92-14.4,1.22c-2.259,0.088-4.505,0.228-6.745,0.437c-6.363,0.449-12.486,1.369-18.824,2.088
	c-0.243,0.027-0.454,0.095-0.647,0.182c-1.526-0.043-3.049-0.112-4.542,0.039c-5.281,0.532-11.511,3.253-13.538,8.221
	c-0.269,0-0.546,0.001-0.839-0.001c-2.693-0.019-5.415-0.551-8.116-0.343c-4.36,0.338-6.461,4.293-7.071,8.277
	c-0.621,4.044,0.73,7.193,4.975,7.8c2.573,0.368,4.22-0.475,6.66-0.704C218.486,288.809,220.539,289.436,222.284,289.077z
	 M319.089,272.071c1.605-0.23,3.413-0.634,5.025-0.478c2.953,0.286,3.905,1.56,3.52,4.516c-0.088,0.669-0.131,3.495-0.583,3.911
	c-0.649,0.598-4.397,0-5.18-0.005c-1.77-0.011-3.284-0.047-4.762,0.141c-0.042-1.772-0.383-3.553-0.97-5.34
	c-0.262-0.796-0.536-1.687-0.837-2.613C316.558,272.107,317.793,272.257,319.089,272.071z M231.992,272.631
	c3.833-1.424,7.323-1.248,11.369-1.691c7.638-0.838,15.264-1.919,22.888-2.838c3.588,0.117,7.176,0.711,10.762,0.549
	c4.622-0.208,9.099-0.673,13.753-0.535c4.171,0.124,8.231,0.06,12.355,0.63c1.765,0.244,2.579,0.057,3.536,1.617
	c0.838,1.367,1.25,3.598,1.917,5.123c1.584,3.622,2.231,8.082-1.857,10.23c-3.17,1.664-8.111,2.105-11.642,2.508
	c-8.714,0.996-17.448,0.524-26.196,0.853c-8.489,0.319-16.622,0.593-25.09-0.03c-3.913-0.288-8.142-0.352-11.973-1.286
	c-4.353-1.063-4.864-4.247-5.027-8.196C226.607,275.267,228.117,274.071,231.992,272.631z M209.322,284.042
	c-0.301-1.482,0.523-2.666,1.046-3.955c0.613-1.51,1.163-2.141,2.894-2.236c1.717-0.093,3.435-0.109,5.146-0.321
	c0.475-0.059,1.18-0.284,1.918-0.515c-0.151,2.467-0.124,4.89,0.255,7.122c-1.702-0.149-3.532,0.056-4.85,0.262
	C213.946,284.679,209.865,286.721,209.322,284.042z"/>
<path d="M210.095,46.87c3.638-3.324,5.261-7.269,3.351-11.978c-1.344-3.315-3.769-7.341-7.148-8.855
	c-5.121-2.295-9.458,4.599-4.485,7.674c1.379,0.853,3.629,4.26,3.13,5.847c-0.883,2.81-4.771,3.758-7.128,2.605
	c-4.687-2.294-6.642-9.33-6.356-14.095c0.459-7.672,5.121-12.964,11.932-15.893c7.859-3.379,15.58-0.838,22.361,3.69
	c6.626,4.424,8.621,12.219,9.101,19.78c0.541,8.527-2.572,15.29-7.449,22.028c-8.79,12.143-21.376,21.316-24.147,37.024
	c-1.514,8.585-0.458,16.514,3.078,24.466c3.132,7.044,6.546,14.729,14.665,16.58c2.017,0.46,3.721-2.055,2.097-3.602
	c-7.019-6.685-12.065-19.074-12.297-28.731c-0.26-10.739,5.458-21.315,13.108-28.62c6.844-6.537,14.12-14.666,17.424-23.736
	c3.023-8.299,2.837-19.551-1.089-27.441c-2.023-4.065-3.252-7.208-6.71-10.358c-3.383-3.082-7.563-5.348-11.703-7.242
	c-8.04-3.677-16.876-2.24-24.455,1.764c-13.473,7.12-17.689,25.971-7.518,37.878C195.273,51.998,203.93,52.503,210.095,46.87z"/>
<path d="M223.884,94.896c-0.318,8.294,3.895,14.418,6.47,21.982c2.129,6.253,6.105,8.909,12.623,9.247
	c1.456,0.075,1.875-1.682,1.091-2.635c-1.973-2.395-4.708-4.901-5.81-7.79c-1.497-3.923-2.73-7.66-4.48-11.522
	c-3.421-7.556-1.553-15.814,2.566-22.708c4.566-7.645,15.535-6.777,20.075,0.482c2.453,3.923,2.127,8.444-1.51,11.354
	c-1.769,1.415-3.304,2.097-5.112,0.454c-1.297-1.179-0.973-0.896-0.83-2.91c0.281-3.988-5.734-5.53-7.536-2.041
	c-2.728,5.282,0.67,11.418,6.253,13.245c5.246,1.715,10.505-1.821,13.597-5.847c8.142-10.597-1.71-25.826-13.795-26.907
	C232.887,67.995,224.393,81.647,223.884,94.896z"/>
<path d="M261.048,167.363c-0.174-1.07-0.568-2.09-1.216-2.982c-0.656-0.904-1.48-1.548-2.401-2.019
	c-0.26-0.165-0.529-0.322-0.812-0.465c-4.383-2.197-9.692-2.128-14.453-1.529c-1.755,0.221-3.297,0.593-4.725,1.08
	c-0.903,0.114-1.804,0.269-2.699,0.492c-1.67,0.416-2.77,1.096-3.94,1.914c-4.612,1.251-9.481,4.057-9.8,8.357
	c-0.126,0.58-0.104,1.201,0.141,1.889c0.108,0.489,0.272,0.992,0.499,1.513c1.543,3.549,6.332,5.475,9.846,6.192
	c6.306,1.285,12.762-0.222,18.809-1.851c4.367-1.175,8.8-3.095,10.444-7.659C261.341,170.622,261.421,168.925,261.048,167.363z
	 M242.44,164.468c0.147-0.011,0.305-0.023,0.457-0.034c1.597-0.075,3.211-0.123,4.819-0.129c1.714,0.085,3.393,0.36,4.794,1.013
	c9.734,4.537,0.328,9.117-4.328,10.083c-5.696,1.181-15.509,3.573-20.599-0.494c-1.933-1.545-1.552-3.039-0.45-4.332
	c1.498-1.155,3.831-2,5.439-2.756c2.976-1.399,6.104-2.512,9.312-3.284C242.07,164.513,242.251,164.484,242.44,164.468z"/>
<g>
</g>
<g>
</g>
<g>
</g>
<g>
</g>
<g>
</g>
<g>
</g>
<g>
</g>
<g>
</g>
<g>
</g>
<g>
</g>
<g>
</g>
<g>
</g>
<g>
</g>
<g>
</g>
<g>
</g>
</svg>
