<?xml version="1.0" encoding="iso-8859-1"?>
<!-- Generator: Adobe Illustrator 19.0.0, SVG Export Plug-In . SVG Version: 6.00 Build 0)  -->
<svg xmlns="http://www.w3.org/2000/svg" xmlns:xlink="http://www.w3.org/1999/xlink" version="1.1" id="Layer_1" x="0px" y="0px" viewBox="0 0 450.064 450.064" style="enable-background:new 0 0 450.064 450.064;" xml:space="preserve" width="512" height="512">
<g>
	<g>
		<path style="fill:#FF5959;" d="M228.322,151.025c-28.01,8.37-57.608-7.609-65.979-35.62c-6.175-20.667,0.717-42.649,17.562-56.237    c16.384-11.442,26.61-28.862,29.067-47.753c25.859,16.972,45.74,42.745,54.969,73.632    C272.311,113.058,256.333,142.655,228.322,151.025z"/>
		<path style="fill:#FF9500;" d="M213.169,128.458c-12.394,0-23.526-8.286-27.071-20.151c-3.246-10.861,0.147-22.072,8.858-29.417    c9.728-6.956,17.949-15.639,24.323-25.486c9.484,11.31,16.647,24.48,20.908,38.741c2.152,7.203,1.361,14.831-2.229,21.479    c-3.589,6.648-9.533,11.496-16.735,13.646C218.588,128.059,215.878,128.458,213.169,128.458z"/>
	</g>
	<g>
		<path style="fill:#FF5959;" d="M314.282,139.61c-28.01,8.369-57.608-7.61-65.979-35.62c-6.175-20.667,0.717-42.649,17.562-56.238    C282.249,36.311,292.477,18.89,294.932,0c25.859,16.971,45.741,42.744,54.97,73.632    C358.272,101.643,342.293,131.24,314.282,139.61z"/>
		<path style="fill:#FF9500;" d="M299.129,117.043c-12.394,0-23.526-8.286-27.071-20.151c-3.246-10.863,0.147-22.072,8.858-29.418    c9.728-6.955,17.949-15.639,24.323-25.485c9.485,11.309,16.647,24.48,20.908,38.741c2.152,7.202,1.36,14.83-2.229,21.479    c-3.589,6.648-9.532,11.496-16.734,13.647C304.548,116.643,301.838,117.043,299.129,117.043z"/>
	</g>
	<g>
		<path style="fill:#A4A9AD;" d="M333.447,348.837h-151.85c-4.142,0-7.5-3.357-7.5-7.5c0-4.143,3.358-7.5,7.5-7.5h151.85    c4.142,0,7.5,3.357,7.5,7.5C340.947,345.479,337.589,348.837,333.447,348.837z"/>
		<path style="opacity:0.2;fill:#222222;" d="M181.597,333.837c-4.142,0-7.5,3.357-7.5,7.5c0,4.143,3.358,7.5,7.5,7.5h20.752    l3.421-15H181.597z"/>
		<path style="opacity:0.2;fill:#222222;" d="M333.447,333.837c4.142,0,7.5,3.357,7.5,7.5c0,4.143-3.358,7.5-7.5,7.5h-20.752    l-3.421-15H333.447z"/>
	</g>
	<g>
		<path style="fill:#A4A9AD;" d="M357.385,450.064c-6.504,0-12.378-4.478-13.886-11.089l-52.595-230.559    c-1.751-7.676,3.052-15.317,10.728-17.068c7.675-1.752,15.318,3.051,17.069,10.727l52.595,230.559    c1.751,7.677-3.052,15.318-10.728,17.069C359.502,449.947,358.435,450.064,357.385,450.064z"/>
		<path style="opacity:0.2;fill:#222222;" d="M318.701,202.076c-1.751-7.677-9.394-12.479-17.069-10.727    c-7.676,1.751-12.479,9.393-10.728,17.068l15.612,68.436c9.314-2.66,18.31-6.066,26.931-10.14L318.701,202.076z"/>
	</g>
	<g>
		<path style="fill:#A4A9AD;" d="M158.353,445.418c-1.05,0-2.116-0.118-3.183-0.362c-7.676-1.75-13.172-4.744-11.421-12.421    l52.595-230.559c1.752-7.677,9.393-12.479,17.069-10.727c7.676,1.751,12.479,9.393,10.728,17.068l-52.595,230.559    C170.038,445.585,164.856,445.418,158.353,445.418z"/>
		<path style="opacity:0.2;fill:#222222;" d="M213.412,191.349c-7.676-1.752-15.317,3.051-17.069,10.727l-14.745,64.637    c8.622,4.073,17.618,7.48,26.931,10.14l15.611-68.436C225.891,200.741,221.088,193.1,213.412,191.349z"/>
	</g>
	<g>
		<circle style="fill:#333E48;" cx="160.076" cy="415.939" r="34.126"/>
		<circle style="fill:#A4A9AD;" cx="160.077" cy="415.939" r="11.688"/>
		<path style="opacity:0.3;fill:#222222;" d="M160.077,381.814c-18.847,0-34.126,15.279-34.126,34.125    c0,18.848,15.279,34.126,34.126,34.126V381.814z"/>
	</g>
	<g>
		<g>
			<path style="fill:#333E48;" d="M95.417,105.668c0,89.528,72.577,162.105,162.105,162.105     c89.529,0,162.106-72.577,162.106-162.105H95.417z"/>
			<path style="opacity:0.5;fill:#222222;" d="M95.417,105.668c0,89.528,72.577,162.105,162.105,162.105V105.668H95.417z"/>
			<path style="opacity:0.5;fill:#222222;" d="M95.417,105.668c0,9.462,0.82,18.731,2.375,27.748h319.461     c1.556-9.017,2.375-18.286,2.375-27.748H95.417z"/>
		</g>
		<g>
			<path style="fill:#A4A9AD;" d="M419.628,119.924H95.417c-7.873,0-14.255-6.382-14.255-14.256c0-7.874,6.382-14.256,14.255-14.256     h324.212c7.873,0,14.255,6.382,14.255,14.256C433.884,113.542,427.501,119.924,419.628,119.924z"/>
			<path style="opacity:0.2;fill:#222222;" d="M95.417,91.412c-7.873,0-14.255,6.382-14.255,14.256     c0,7.874,6.382,14.256,14.255,14.256h162.105V91.412H95.417z"/>
		</g>
	</g>
	<g>
		<path style="fill:#A4A9AD;" d="M124.282,168.189H60.314c-4.142,0-7.5-3.358-7.5-7.5c0-4.143,3.358-7.5,7.5-7.5h63.968    c4.142,0,7.5,3.357,7.5,7.5C131.782,164.831,128.424,168.189,124.282,168.189z"/>
		<g>
			<circle style="fill:#997668;" cx="46.543" cy="160.689" r="30.363"/>
			<circle style="fill:#65513C;" cx="46.543" cy="160.689" r="11.766"/>
			<path style="opacity:0.2;fill:#222222;" d="M46.543,130.326c-16.768,0-30.363,13.593-30.363,30.362     c0,16.768,13.594,30.362,30.363,30.362V130.326z"/>
		</g>
	</g>
</g>















</svg>
