<svg version="1" xmlns="http://www.w3.org/2000/svg" width="1312" height="1312" viewBox="0 0 984 984">
  <path d="M319.7 102.7a56.3 56.3 0 0 0-.3 38.8c2.7 6.9 4.8 18.2 3.7 18.9-.3.2-4.3.7-8.8 1.1l-8.3.7v-6c0-3.3-.7-7.7-1.7-9.8-.9-2.2-1.9-8.2-2.3-13.9l-.6-10-1.8 3.9a29 29 0 0 0-.7 21.4c1.9 6.2 2.9 15.2 1.6 15.2-2 0-39.5 5.6-53.2 8-107.5 18.5-166.4 49.6-166.5 88-.1 8.8 1.8 12.8 9.1 18.8 30 25 108.4 48.7 213.6 64.6 38.3 5.8 82.1 10.4 131.5 13.8 25.3 1.8 136 1.8 161 0 96.6-6.8 173.7-21.8 235.2-45.8 35-13.6 55.7-27.5 62.9-42.1a27.8 27.8 0 0 0-.1-22.6c-10-20.9-49.5-41.2-115.1-59.1-69.3-19-136.6-27.9-246.4-32.7-46.2-2-146.4.1-177.2 3.6l-5.3.6v-4.9a40 40 0 0 0-2-10.7c-1.4-4-2-8.6-2.1-14.9l-.1-9.1-2.4 5c-3 6.3-3.1 13.6-.4 22.3 2.3 7.3 2.6 12.1.8 12.6-.7.3-4.5.7-8.4 1l-7.1.6-.6-7.3a67.3 67.3 0 0 0-3.3-14.7 78.4 78.4 0 0 1-2.6-33.3c1-6.5.1-7.4-2.1-2z"/>
  <path d="M79 287.2c0 4.1 6.2 31.6 12.5 55.6l4.5 17.7c0 .9-5.9.5-6.5-.5-.3-.5.1-2 1-3.3 1.5-2.3 1.4-2.4-2.3-3.5-7.1-2.2-32.7-7.1-42.5-8.3-5.3-.6-14.6-1-20.6-.7-12.8.4-13.9 1-17.3 9.7a68 68 0 0 0 .1 35.6A78.4 78.4 0 0 0 29 425.2a75.3 75.3 0 0 0 10.7 9.8c.6 0 2.2-1.7 3.4-3.8l4.4-6.8 5.5-8.7 3.4-5.6 9.3 9.4c9.9 9.9 18.6 16.3 30.1 22a95 95 0 0 0 30.4 8.9l5.7.1 2.7 6.5c11.1 26.8 40.7 73.9 65.3 104a563.7 563.7 0 0 0 58 58.2c.1.4-23.2.8-51.7 1l-51.7.4-10 2.7a118.6 118.6 0 0 0-74.9 62.2c-10.1 21.2-11.9 32.4-11.4 68.5.4 25.8.6 28.1 3.1 37.3 12.3 45.9 48.5 80.4 92.7 88.3 11.6 2.1 676.9 2 688.6 0a119 119 0 0 0 94.5-97.4c1.8-10.3 2-14.4 1.6-36.6-.5-26.6-1.2-32.3-6.4-47.6a118.2 118.2 0 0 0-72.6-72.4c-15.3-5.1-21.8-5.6-66.7-5.6-44.1 0-138.6-1.3-133.4-1.8 3-.3 3.1-.4 2.3-4a438 438 0 0 0-4.9-18.7 694 694 0 0 1-5-18.5c-1.8-7.1-3.8-14.7-6.5-24-3.8-13.5-5.6-20-6.5-24l-3.5-13c-2.8-9.9-5-18.1-6.5-24a1682.4 1682.4 0 0 1-10-37c-1.2-5.1-4.5-17.2-7.4-27.5a1603 1603 0 0 1-9.1-33.5c-6.1-22.4-6.4-23.4-7-26.4l-.6-2.9-10.7.7A1765 1765 0 0 1 420 365a1214.2 1214.2 0 0 1-159-20.6c-62.7-12.6-125.7-32.2-169.4-52.8-6.5-3.1-12-5.6-12.2-5.6-.2 0-.4.6-.4 1.2zm766 360.6a92.2 92.2 0 0 1 64 59.9c4.4 13.4 5.3 22.3 4.7 47.7-.6 24.9-1.8 31.6-8.7 46.2a90.3 90.3 0 0 1-72.5 53.4c-12.4 1.4-655.6 1.4-668 0a91.2 91.2 0 0 1-75.9-61.1c-5.1-14.2-5.8-21-5.4-48.9.4-23.1.6-25 3.1-33.3a90.6 90.6 0 0 1 77.1-65.6c4.4-.5 157.7-.8 340.6-.7l332.5.1 8.5 2.3z"/>
  <path d="M562.2 686.2c-2.5 2.5-1 39.9 2.3 61.8.9 5.2 2.9 16.9 4.7 25.9l3.2 16.3-4.2 3.5c-3.5 2.8-4.2 4.1-4.2 6.9 0 3 .5 3.7 3.5 5 7.3 3 13.9.9 28.3-9.2A84.8 84.8 0 0 0 624 767c3.3-6.4 3.9-18 1.4-25.1a25.4 25.4 0 0 0-26.1-17.6 25 25 0 0 0-17.1 8.2c-1.1 1.4-2.3 2.2-2.6 1.7-.7-1.1-2.6-27.1-2.6-35.6 0-6.4-.2-7-3.4-10.2-3.6-3.6-9-4.6-11.4-2.2zm45.2 55.3c5.1 3.4 5.4 14.2.5 22.1a82 82 0 0 1-17.6 16.6l-3 1.8-1.2-5.9c-.6-3.2-1.4-9.4-1.8-13.7-.5-6.8-.3-8.5 1.5-11.9 5.2-10.2 14.1-13.9 21.6-9zM229.1 694.1c-26.2 11.6-49.1 50.2-43 72.3 1.5 5.5 7.8 11.8 15.2 15.2 5.3 2.4 7.8 2.9 17 3.2 12.4.5 21-1.1 31.6-5.9l6.6-2.9.9 4.7c1 7.4 5.6 20.4 8.2 23 2.7 2.7 7.5 3.1 9.4.7 1.1-1.2 1.1-3.3.2-10.7a624.2 624.2 0 0 1-4.2-43.3V746h10c11.3 0 15.9-1.4 18.6-5.5 2.3-3.6.7-7-3.8-7.9a442 442 0 0 0-28.4-1.3c-26.9-.7-35 .1-41.1 3.8-5.4 3.4-5.6 8.7-.3 10.9 3.7 1.5 5.2 1.6 17.7.6l10.1-.7.4 6.8c.4 6.5.3 6.9-2.6 9.6-6.8 6.2-27.7 9.6-38.8 6.3-7.9-2.3-9.3-4.2-9.3-13 .1-8.2 3.4-17 10.1-27.2 7.8-11.7 21.6-24.4 26.5-24.4.9 0 3.6 1.6 5.9 3.5 4.3 3.6 7.7 4.4 9.8 2.3 2.1-2.1 1.3-4.7-3-9.5-7.5-8-15.1-10-23.7-6.2zM467.3 694.7c-3.5 5.4-1.5 41.8 4.8 85.6a172 172 0 0 0 4.4 23.7c.8 1.5 2.8 3.9 4.4 5.3 3.5 2.9 6.4 2.6 8.8-1 1.8-2.7 1.6-5.6-1.7-30.3a1215.7 1215.7 0 0 1-7.6-77.2c-1.2-8-9.4-11.8-13.1-6.1zM518.3 694.7c-3.8 5.8-1.5 42.6 5.9 92.8 2.2 15.2 3.2 18 7.7 21.8 3.6 3 6.4 2.6 8.8-1 1.8-2.7 1.5-6.9-2.7-39.3a849 849 0 0 1-5.5-56c-.4-5.8-1.1-12.2-1.6-14.2-1.7-6.8-9.2-9.3-12.6-4.1zM409 707.4c-6.5 1.4-11.5 3.9-12.4 6.1-.8 2.2 1 6.2 3.3 7.4 2.7 1.5 6.1 1.4 15.6-.4 4.4-.8 11.8-1.8 16.4-2.2 6.2-.6 8.7-1.2 9.5-2.5 1.5-2.4-.9-6.3-4.9-8.3-4-1.8-19.3-1.9-27.5-.1zM374.5 720.4c-16.9 4.1-35.1 19.1-40.5 33.3-.9 2.5-2 4.1-2.4 3.5-.3-.6-1.5-7-2.6-14.3-1.2-7.2-2.5-14-3.1-15-1.3-2.4-8.2-4.3-11.7-3.1-2 .6-2.8 1.6-3 4-.6 6.1 6.2 45.6 10.7 61.7 1.7 6.1 5.4 11.9 8.2 12.9 7.1 2.5 11.1-2.9 12.3-16.4 2.3-25.1 12.1-40.5 32.6-51.5 10.5-5.6 15-9.4 15-12.4 0-3.9-6.2-5-15.5-2.7zM792.5 720.4a62 62 0 0 0-41.3 34.1l-1.8 4.7-1.7-9.4c-.9-5.1-1.9-11.8-2.3-14.8-.8-6.3-2.3-8.5-7.1-10.1-4.2-1.3-7.9-.5-9.3 2.1-1.6 3 5.6 46.6 10.5 63.1 2.9 9.9 6.8 14.3 12.2 13.7 4.1-.5 7-5.5 7.8-13.6 2.2-21.7 6.8-32.7 17.9-43.7 5.3-5.1 10-8.5 17.6-12.6 7.6-4 10.9-6.3 11.9-8.4 1.3-2.6 1.2-3-.9-4.7-2.5-2.1-6.3-2.2-13.5-.4zM669 726a36 36 0 0 0-25.1 20.2c-3.9 9.4-1.4 25.5 5.4 35.4 8.7 12.6 26.8 17.8 42.9 12.3 13.2-4.4 23.3-14.8 20.8-21.4-1.4-3.7-5.3-3.2-14 2a62.7 62.7 0 0 1-11.5 5.7 31.2 31.2 0 0 1-18.1-.5 18 18 0 0 1-8.9-10.8c-.9-3.9.4-4.9 6.6-4.9 14.8 0 39.1-9 41.3-15.3 2.3-6.4-4.3-15.9-14.1-20.4A49.5 49.5 0 0 0 669 726zm21.7 15.3c1.7 1.7 1.7 1.9-.1 3.2-2.1 1.6-16.5 5-24.8 5.9-7.1.8-7.6-.6-2.1-5.4 5.7-5 8.9-6.1 17.5-5.8 5.9.2 8.2.7 9.5 2.1zM418.3 742.5c-3.6 2.5-4.6 7.6-3.8 18.9a159 159 0 0 0 4.4 28.5c2.7 9 10.5 15.6 15.4 13 4.5-2.4 4.8-5.6 1.3-16.1-2.6-7.7-4.6-21.4-4.6-31.1 0-6.3-1.7-10.7-5.2-13.1-2.8-2-4.8-2-7.5-.1zM892.3 360.7L873.4 409l-18.5 46.9c-.5 1.3-.8 2.6-.5 2.8.8.8 29.5-1.6 38.6-3.1 16.9-3 35.2-9.3 45.8-15.9l5.2-3.3-3.7-6-5-8-3.6-6-2.4-4.1 3.9-5.9c5.2-7.7 11.3-20.6 12.8-27.2 1.7-7.5.9-15.7-1.9-18.5-1.8-1.9-3.7-2.3-12.4-2.8-5.6-.4-16.4-.7-24-.8l-13.8-.1-1.6 3.7z"/>
</svg>
