<?xml version="1.0" standalone="no"?>
<!DOCTYPE svg PUBLIC "-//W3C//DTD SVG 20010904//EN"
 "http://www.w3.org/TR/2001/REC-SVG-20010904/DTD/svg10.dtd">
<svg version="1.0" xmlns="http://www.w3.org/2000/svg"
 width="984.000000pt" height="984.000000pt" viewBox="0 0 984.000000 984.000000"
 preserveAspectRatio="xMidYMid meet">
<metadata>
Created by potrace 1.11, written by Peter Selinger 2001-2013
</metadata>
<g transform="translate(0.000000,984.000000) scale(0.100000,-0.100000)"
fill="#000000" stroke="none">
<path d="M3197 8813 c-47 -122 -48 -268 -3 -388 27 -69 48 -182 37 -189 -3 -2
-43 -7 -88 -11 l-83 -7 0 60 c0 33 -7 77 -17 98 -9 22 -19 82 -23 139 l-6 100
-18 -39 c-29 -65 -32 -134 -7 -214 19 -62 29 -152 16 -152 -20 0 -395 -56
-532 -80 -1075 -185 -1664 -496 -1665 -880 -1 -88 18 -128 91 -188 300 -250
1084 -487 2136 -646 383 -58 821 -104 1315 -138 253 -18 1360 -18 1610 0 966
68 1737 218 2352 458 350 136 557 275 629 421 32 65 31 159 -1 226 -100 209
-495 412 -1151 591 -693 190 -1366 279 -2464 327 -462 20 -1464 -1 -1772 -36
l-53 -6 0 49 c0 27 -9 75 -20 107 -14 40 -20 86 -21 149 l-1 91 -24 -50 c-30
-63 -31 -136 -4 -223 23 -73 26 -121 8 -126 -7 -3 -45 -7 -84 -10 l-71 -6 -6
73 c-3 39 -18 106 -33 147 -31 85 -42 234 -26 333 10 65 1 74 -21 20z"/>
<path d="M790 6968 c0 -41 62 -316 125 -556 25 -95 45 -175 45 -177 0 -9 -59
-5 -65 5 -3 5 1 20 10 33 15 23 14 24 -23 35 -71 22 -327 71 -425 83 -53 6
-146 10 -206 7 -128 -4 -139 -10 -173 -97 -31 -81 -31 -244 1 -356 41 -143
103 -247 211 -357 53 -54 101 -98 107 -98 6 0 22 17 34 38 13 20 33 51 44 68
11 17 36 57 55 87 l34 56 93 -94 c99 -99 186 -163 301 -220 95 -46 234 -87
304 -89 l57 -1 27 -65 c111 -268 407 -739 653 -1040 105 -129 404 -434 505
-515 41 -33 75 -63 75 -67 1 -4 -232 -8 -517 -10 l-517 -4 -100 -27 c-323 -87
-607 -323 -749 -622 -101 -212 -119 -324 -114 -685 4 -258 6 -281 31 -373 123
-459 485 -804 927 -883 116 -21 6769 -20 6886 0 407 72 749 371 898 784 14 40
35 126 47 190 18 103 20 144 16 366 -5 266 -12 323 -64 476 -112 332 -395 614
-726 724 -153 51 -218 56 -667 56 -441 0 -1386 13 -1334 18 30 3 31 4 23 40
-4 20 -26 105 -49 187 -23 83 -46 166 -50 185 -18 71 -38 147 -65 240 -38 135
-56 200 -65 240 -5 19 -20 78 -35 130 -28 99 -50 181 -65 240 -4 19 -27 103
-50 185 -23 83 -45 166 -50 185 -12 51 -45 172 -74 275 -14 50 -32 115 -40
145 -8 30 -31 116 -51 190 -61 224 -64 234 -70 264 l-6 29 -107 -7 c-356 -25
-1261 -22 -1642 4 -592 41 -1084 105 -1590 206 -627 126 -1257 322 -1694 528
-65 31 -120 56 -122 56 -2 0 -4 -6 -4 -12z m7660 -3606 c303 -81 541 -304 640
-599 44 -134 53 -223 47 -477 -6 -249 -18 -316 -87 -462 -141 -303 -406 -498
-725 -534 -124 -14 -6556 -14 -6680 0 -348 39 -638 272 -759 611 -51 142 -58
210 -54 489 4 231 6 250 31 333 112 366 412 621 771 656 44 5 1577 8 3406 7
l3325 -1 85 -23z"/>
<path d="M5622 2978 c-25 -25 -10 -399 23 -618 9 -52 29 -169 47 -259 l32
-163 -42 -35 c-35 -28 -42 -41 -42 -69 0 -30 5 -37 35 -50 73 -30 139 -9 283
92 137 96 231 193 282 294 33 64 39 180 14 251 -42 116 -145 186 -261 176 -68
-5 -137 -38 -171 -82 -11 -14 -23 -22 -26 -17 -7 11 -26 271 -26 356 0 64 -2
70 -34 102 -36 36 -90 46 -114 22z m452 -553 c51 -34 54 -142 5 -221 -23 -38
-133 -142 -176 -166 l-30 -18 -12 59 c-6 32 -14 94 -18 137 -5 68 -3 85 15
119 52 102 141 139 216 90z"/>
<path d="M2291 2899 c-262 -116 -491 -502 -430 -723 15 -55 78 -118 152 -152
53 -24 78 -29 170 -32 124 -5 210 11 316 59 35 16 65 29 66 29 1 0 5 -21 9
-47 10 -74 56 -204 82 -230 27 -27 75 -31 94 -7 11 12 11 33 2 107 -19 142
-42 385 -42 433 l0 44 100 0 c113 0 159 14 186 55 23 36 7 70 -38 79 -18 4
-146 9 -284 13 -269 7 -350 -1 -411 -38 -54 -34 -56 -87 -3 -109 37 -15 52
-16 177 -6 l101 7 4 -68 c4 -65 3 -69 -26 -96 -68 -62 -277 -96 -388 -63 -79
23 -93 42 -93 130 1 82 34 170 101 272 78 117 216 244 265 244 9 0 36 -16 59
-35 43 -36 77 -44 98 -23 21 21 13 47 -30 95 -75 80 -151 100 -237 62z"/>
<path d="M4673 2893 c-35 -54 -15 -418 48 -856 16 -115 36 -221 44 -237 8 -15
28 -39 44 -53 35 -29 64 -26 88 10 18 27 16 56 -17 303 -26 201 -57 497 -65
630 -3 58 -8 122 -11 142 -12 80 -94 118 -131 61z"/>
<path d="M5183 2893 c-38 -58 -15 -426 59 -928 22 -152 32 -180 77 -218 36
-30 64 -26 88 10 18 27 15 69 -27 393 -24 183 -47 413 -55 560 -4 58 -11 122
-16 142 -17 68 -92 93 -126 41z"/>
<path d="M4090 2766 c-65 -14 -115 -39 -124 -61 -8 -22 10 -62 33 -74 27 -15
61 -14 156 4 44 8 118 18 164 22 62 6 87 12 95 25 15 24 -9 63 -49 83 -40 18
-193 19 -275 1z"/>
<path d="M3745 2636 c-169 -41 -351 -191 -405 -333 -9 -25 -20 -41 -24 -35 -3
6 -15 70 -26 143 -12 72 -25 140 -31 150 -13 24 -82 43 -117 31 -20 -6 -28
-16 -30 -40 -6 -61 62 -456 107 -617 17 -61 54 -119 82 -129 71 -25 111 29
123 164 23 251 121 405 326 515 105 56 150 94 150 124 0 39 -62 50 -155 27z"/>
<path d="M7925 2636 c-181 -44 -352 -186 -413 -341 l-18 -47 -17 94 c-9 51
-19 118 -23 148 -8 63 -23 85 -71 101 -42 13 -79 5 -93 -21 -16 -30 56 -466
105 -631 29 -99 68 -143 122 -137 41 5 70 55 78 136 22 217 68 327 179 437 53
51 100 85 176 126 76 40 109 63 119 84 13 26 12 30 -9 47 -25 21 -63 22 -135
4z"/>
<path d="M6690 2580 c-109 -23 -213 -106 -251 -202 -39 -94 -14 -255 54 -354
87 -126 268 -178 429 -123 132 44 233 148 208 214 -14 37 -53 32 -140 -20 -41
-25 -93 -51 -115 -57 -57 -16 -145 -14 -181 5 -42 21 -81 69 -89 108 -9 39 4
49 66 49 148 0 391 90 413 153 23 64 -43 159 -141 204 -61 28 -177 38 -253 23z
m217 -153 c17 -17 17 -19 -1 -32 -21 -16 -165 -50 -248 -59 -71 -8 -76 6 -21
54 57 50 89 61 175 58 59 -2 82 -7 95 -21z"/>
<path d="M4183 2415 c-36 -25 -46 -76 -38 -189 7 -103 26 -224 44 -285 27 -90
105 -156 154 -130 45 24 48 56 13 161 -26 77 -46 214 -46 311 0 63 -17 107
-52 131 -28 20 -48 20 -75 1z"/>
<path d="M8923 6233 c-9 -21 -94 -238 -189 -483 -96 -245 -179 -456 -185 -469
-5 -13 -8 -26 -5 -28 8 -8 295 16 386 31 169 30 352 93 458 159 l52 33 -37 60
c-21 33 -43 69 -50 80 -7 10 -23 38 -36 60 l-24 41 39 59 c52 77 113 206 128
272 17 75 9 157 -19 185 -18 19 -37 23 -124 28 -56 4 -164 7 -240 8 l-138 1
-16 -37z"/>
</g>
</svg>
